<svg xmlns="http://www.w3.org/2000/svg" viewBox="0 0 376.37 458.45"><defs><style>.cls-1,.cls-11,.cls-9{fill:none;}.cls-1{stroke:#007bc6;stroke-width:2.24px;}.cls-1,.cls-9{stroke-miterlimit:10;}.cls-2{fill:#0b90d3;}.cls-3{fill:#007bc6;}.cls-4{fill:#0cafe8;}.cls-5{fill:#fff;}.cls-6{fill:#382673;}.cls-11,.cls-6{opacity:0.2;isolation:isolate;}.cls-7{fill:#ffde39;}.cls-8{fill:#fec632;}.cls-9{stroke:#f15a9e;stroke-width:3px;}.cls-11,.cls-9{stroke-linecap:round;}.cls-10{fill:#d44a90;}.cls-11{stroke:#382673;stroke-linejoin:round;stroke-width:2px;}</style></defs><title>blocktime0</title><g id="Layer_2" data-name="Layer 2"><g id="Layer_1-2" data-name="Layer 1"><circle class="cls-1" cx="116.45" cy="54.9" r="53.76" transform="translate(-11.75 43.14) rotate(-20)"/><rect class="cls-2" x="115.01" y="63.42" width="37.4" height="79.48" transform="translate(-27.22 51.95) rotate(-20)"/><rect class="cls-3" x="146.79" y="57.8" width="4.68" height="79.48" transform="translate(-24.36 56.88) rotate(-20)"/><rect class="cls-3" x="107.06" y="64.81" width="37.4" height="32.73" transform="translate(-20.18 47.9) rotate(-20)"/><rect class="cls-2" x="240.9" y="109" width="63.11" height="28.05" transform="translate(45.82 317.96) rotate(-65)"/><path class="cls-4" d="M300.12,112l-37.4-17.3L266,88.16a10,10,0,0,1,12.62-4.67l20.57,9.35a10,10,0,0,1,4.67,12.62Z"/><rect class="cls-2" x="26.08" y="175.49" width="28.05" height="63.11" transform="translate(-164.5 155.9) rotate(-65)"/><path class="cls-4" d="M12.14,216.72l17.3-37.4-6.54-3.27c-4.68-2.34-10.29,0-12.62,4.68L.92,201.3c-2.34,4.67,0,10.29,4.67,12.62Z"/><circle class="cls-4" cx="198.58" cy="280.75" r="177.65" transform="translate(-84.04 84.85) rotate(-20)"/><path class="cls-2" d="M316.48,148a173.48,173.48,0,0,1,41.14,65c33.66,92.1-14,194-106.12,227.67A177.22,177.22,0,0,1,72.91,406.53a177.83,177.83,0,0,0,186.53,41.14C351.54,414,399.23,312.09,365.57,220A181.47,181.47,0,0,0,316.48,148Z"/><circle class="cls-5" cx="198.58" cy="280.75" r="140.25" transform="matrix(0.94, -0.34, 0.34, 0.94, -84.04, 84.85)"/><path class="cls-6" d="M74.31,335.94C47.67,263.47,85.53,183.06,158,156.42c49.55-18.23,103.32-6.08,140.25,26.18A140.23,140.23,0,0,0,66.37,328.92a139,139,0,0,0,39.27,57.5A146.36,146.36,0,0,1,74.31,335.94Z"/><circle class="cls-6" cx="198.58" cy="280.75" r="37.4" transform="translate(-84.04 84.85) rotate(-20)"/><path class="cls-7" d="M157.06,166.7l14.49,39.74a79.39,79.39,0,0,1,101.92,47.69l39.74-14.49C289.83,176.52,220.17,143.79,157.06,166.7Z"/><path class="cls-8" d="M157.06,166.7l14.49,39.74a78.05,78.05,0,0,1,60.77,2.8l17.77-38.34A123,123,0,0,0,157.06,166.7Z"/><line class="cls-9" x1="163.61" y1="293.86" x2="312.74" y2="239.63"/><circle class="cls-10" cx="198.58" cy="280.75" r="18.7" transform="translate(-84.04 84.85) rotate(-20)"/><path class="cls-4" d="M154.72,77.88,101.9,97.51,90.68,66.66a13.36,13.36,0,0,1,8.41-17.76l26.18-9.82A13.36,13.36,0,0,1,143,47.49Z"/><path class="cls-2" d="M125.27,39.07l-13.09,4.67a13.36,13.36,0,0,1,17.76,8.41L141.17,83l13.09-4.67L143,47.49A13.36,13.36,0,0,0,125.27,39.07Z"/><line class="cls-11" x1="237" y1="386.43" x2="229.06" y2="364.45"/><line class="cls-11" x1="150.98" y1="382.69" x2="160.8" y2="361.65"/><line class="cls-11" x1="93.01" y1="319.57" x2="114.99" y2="311.16"/><line class="cls-11" x1="279.08" y1="318.64" x2="300.12" y2="328.46"/><line class="cls-11" x1="96.75" y1="233.55" x2="118.26" y2="243.37"/></g></g></svg>