<svg xmlns="http://www.w3.org/2000/svg" viewBox="0 0 781.82 147.56"><defs><style>.cls-1{fill:#d5e3ed;}.cls-2{fill:#fff;}</style></defs><title>logo</title><g id="Layer_2" data-name="Layer 2"><g id="Layer_1-2" data-name="Layer 1"><path class="cls-1" d="M0,107V7.19Q0,4,3.29,2a15.89,15.89,0,0,1,8.33-2,17.08,17.08,0,0,1,8.64,2q3.44,2,3.44,5.2V67.13L49.08,42.51a6.22,6.22,0,0,1,4.59-1.84q3.82,0,7.65,3.75T65.14,52a5.7,5.7,0,0,1-1.83,4.13L47.1,71.1,68,100.46a7.13,7.13,0,0,1,1.22,3.67q0,4-4.59,7.88t-9,3.9A6.45,6.45,0,0,1,50,113L31.5,85.63l-7.8,7.19V107q0,2.75-3.59,5a15.44,15.44,0,0,1-8.49,2.29,14.67,14.67,0,0,1-8.26-2.22Q0,109.95,0,107Z"/><path class="cls-1" d="M80.58,24.4a9.4,9.4,0,0,1-3.67-7.34,9.2,9.2,0,0,1,3.67-7.27,13.41,13.41,0,0,1,8.87-3.05,13.2,13.2,0,0,1,8.72,3.05,9.2,9.2,0,0,1,3.67,7.27,9.4,9.4,0,0,1-3.67,7.34,13,13,0,0,1-8.72,3.13A13.22,13.22,0,0,1,80.58,24.4ZM77.68,107V48.78q0-3.21,3.29-5.2a16.22,16.22,0,0,1,8.49-2,16.73,16.73,0,0,1,8.49,2q3.44,2,3.44,5.2V107q0,2.75-3.52,5a15.06,15.06,0,0,1-8.41,2.29A15,15,0,0,1,81,112.16Q77.68,109.95,77.68,107Z"/><path class="cls-1" d="M102,137.48a11.53,11.53,0,0,1,2.52-7.76,8,8,0,0,1,6.35-3,3.19,3.19,0,0,0,3.36-2.19,21.94,21.94,0,0,0,.76-6.73V48.7q0-3.18,3.29-5.14a16,16,0,0,1,8.33-2,17.08,17.08,0,0,1,8.64,2q3.44,2,3.44,5.2v69.88q0,13-6.42,20.95t-17.89,8Q102,147.56,102,137.48ZM117.89,24.4a9.4,9.4,0,0,1-3.67-7.34,9.19,9.19,0,0,1,3.67-7.27,13.41,13.41,0,0,1,8.87-3.05,13.2,13.2,0,0,1,8.72,3.05,9.19,9.19,0,0,1,3.67,7.27,9.4,9.4,0,0,1-3.67,7.34,13,13,0,0,1-8.72,3.13A13.22,13.22,0,0,1,117.89,24.4Z"/><path class="cls-1" d="M149.7,83.49V72.79q0-13,10.25-22.55a34.63,34.63,0,0,1,24.47-9.56,35.14,35.14,0,0,1,24.46,9.48q10.4,9.48,10.4,22.63v10.7q0,12.85-10.47,22.63a35.19,35.19,0,0,1-48.7,0Q149.69,96.34,149.7,83.49Zm23.7,0a11.78,11.78,0,0,0,3.21,8.11,10.11,10.11,0,0,0,7.8,3.56,10.35,10.35,0,0,0,7.88-3.56,11.63,11.63,0,0,0,3.29-8.11V72.84A11.07,11.07,0,0,0,192.21,65a10.53,10.53,0,0,0-7.8-3.49A10.29,10.29,0,0,0,176.68,65a11.18,11.18,0,0,0-3.29,7.88Z"/><path class="cls-1" d="M230.28,107V48.78q0-3.21,3.29-5.2a15.9,15.9,0,0,1,8.33-2,13.39,13.39,0,0,1,7.49,2,6,6,0,0,1,3.06,5.24v5.7A25.9,25.9,0,0,1,260,44.83a16.7,16.7,0,0,1,10.63-4.16h4.43A7.45,7.45,0,0,1,281,43.76,11.08,11.08,0,0,1,283.49,51,11.3,11.3,0,0,1,281,58.39a7.45,7.45,0,0,1-5.89,3.08h-4.43q-6.58,0-11.62,6.33t-5,16.39v22.87q0,2.75-3.59,5a15.46,15.46,0,0,1-8.49,2.29,14.67,14.67,0,0,1-8.26-2.22Q230.28,109.95,230.28,107Z"/><path class="cls-1" d="M286.7,83.49V72.79q0-13,10.25-22.55a34.63,34.63,0,0,1,24.47-9.56,35.14,35.14,0,0,1,24.47,9.48q10.4,9.48,10.4,22.63v10.7q0,12.85-10.47,22.63a35.19,35.19,0,0,1-48.7,0Q286.7,96.34,286.7,83.49Zm23.7,0a11.77,11.77,0,0,0,3.21,8.11,10.11,10.11,0,0,0,7.8,3.56,10.35,10.35,0,0,0,7.88-3.56,11.63,11.63,0,0,0,3.29-8.11V72.84A11.06,11.06,0,0,0,329.21,65a10.53,10.53,0,0,0-7.8-3.49A10.28,10.28,0,0,0,313.69,65a11.18,11.18,0,0,0-3.29,7.88Z"/><path class="cls-1" d="M364.53,83.49V72.79q0-13,10.25-22.55a34.63,34.63,0,0,1,24.46-9.56,35.14,35.14,0,0,1,24.47,9.48q10.4,9.48,10.4,22.63v10.7q0,12.85-10.47,22.63a35.19,35.19,0,0,1-48.7,0Q364.53,96.34,364.53,83.49Zm23.7,0a11.77,11.77,0,0,0,3.21,8.11,10.11,10.11,0,0,0,7.8,3.56,10.35,10.35,0,0,0,7.88-3.56,11.63,11.63,0,0,0,3.29-8.11V72.84A11.06,11.06,0,0,0,407,65a10.53,10.53,0,0,0-7.8-3.49A10.29,10.29,0,0,0,391.52,65a11.18,11.18,0,0,0-3.29,7.88Z"/><path class="cls-1" d="M442.36,83.49V72.79q0-13,10.25-22.55a34.63,34.63,0,0,1,24.46-9.56,35.14,35.14,0,0,1,24.47,9.48q10.4,9.48,10.4,22.63v10.7q0,12.85-10.47,22.63a35.19,35.19,0,0,1-48.7,0Q442.36,96.34,442.36,83.49Zm23.7,0a11.78,11.78,0,0,0,3.21,8.11,10.11,10.11,0,0,0,7.8,3.56,10.35,10.35,0,0,0,7.88-3.56,11.63,11.63,0,0,0,3.29-8.11V72.84A11.06,11.06,0,0,0,484.87,65a10.53,10.53,0,0,0-7.8-3.49A10.29,10.29,0,0,0,469.35,65a11.18,11.18,0,0,0-3.29,7.88Z"/><path class="cls-2" d="M524.11,113.46a6.86,6.86,0,0,1,0-8.87,5.33,5.33,0,0,1,4.18-1.83,5.16,5.16,0,0,1,4,1.91,6.44,6.44,0,0,1,0,8.72,5.16,5.16,0,0,1-4,1.91A5.33,5.33,0,0,1,524.11,113.46Z"/><path class="cls-2" d="M548.78,87V69.57q0-12.54,7.26-20.41t21.48-7.87q8.72,0,14.68,3.13t6,6.19a3.63,3.63,0,0,1-1.07,2.52,3.27,3.27,0,0,1-2.45,1.15A5.93,5.93,0,0,1,592,52.83a26.14,26.14,0,0,0-5.58-3,22.62,22.62,0,0,0-8.72-1.53q-10.25,0-15.83,5.66t-5.58,15.6V87q0,10.09,5.5,15.67t16.06,5.58a24.67,24.67,0,0,0,9.17-1.53,24.92,24.92,0,0,0,5.81-3.06,6,6,0,0,1,2.91-1.53,3,3,0,0,1,2.37,1.15,3.77,3.77,0,0,1,1,2.52q0,3.21-6.19,6.35t-15.37,3.13q-14.07,0-21.41-7.8T548.78,87Z"/><path class="cls-2" d="M609.64,87V69.27a27,27,0,0,1,8.26-19.65,26.8,26.8,0,0,1,19.72-8.33,27.26,27.26,0,0,1,19.73,8.26,26.69,26.69,0,0,1,8.41,19.73V87q0,11.16-8.49,19.73t-19.65,8.56q-11.16,0-19.57-8.49A27.26,27.26,0,0,1,609.64,87Zm7.49,0a21.08,21.08,0,0,0,6,14.76,19,19,0,0,0,14.45,6.5,19.29,19.29,0,0,0,14.53-6.5A21,21,0,0,0,658.27,87V69.27a20.53,20.53,0,0,0-6.12-14.53,19.4,19.4,0,0,0-14.53-6.42,19.15,19.15,0,0,0-14.45,6.42,20.65,20.65,0,0,0-6,14.53Z"/><path class="cls-2" d="M683,111V45.26q0-3.06,3.67-3.06a4.09,4.09,0,0,1,2.6.84,2.69,2.69,0,0,1,1.07,2.22v7.65Q697,41.29,710.87,41.29a22.75,22.75,0,0,1,13.38,4.13,26,26,0,0,1,8.95,11.16,28,28,0,0,1,10.09-11.39,24.59,24.59,0,0,1,31,3.67q7.49,7.57,7.49,20.41V111a3.12,3.12,0,0,1-1.15,2.29,3.8,3.8,0,0,1-2.68,1.07,3.53,3.53,0,0,1-2.6-1.07,3.2,3.2,0,0,1-1.07-2.29V69.27q0-9.78-5.73-15.37a18.25,18.25,0,0,0-13.07-5.58A19,19,0,0,0,742,54,19.26,19.26,0,0,0,736.1,68.5v42.66q0,3.21-3.82,3.21-3.67,0-3.67-3.21V68.66a20.54,20.54,0,0,0-5.43-14.45A17.32,17.32,0,0,0,710,48.32a18.83,18.83,0,0,0-13.53,5.73q-5.89,5.73-5.89,15.21V111a3.12,3.12,0,0,1-1.15,2.29,3.8,3.8,0,0,1-2.68,1.07,3.67,3.67,0,0,1-2.6-1A3.12,3.12,0,0,1,683,111Z"/></g></g></svg>