<svg xmlns="http://www.w3.org/2000/svg" viewBox="0 0 1708.59 980.69"><defs><style>.cls-1{fill:#f4ca7e;}.cls-2{fill:#45cedf;}</style></defs><title>Asset 80</title><g id="Layer_2" data-name="Layer 2"><g id="Layer_1-2" data-name="Layer 1"><path id="BTC_alt" data-name="BTC alt" class="cls-1" d="M247.38,62a19.37,19.37,0,0,0,1.35-7.13,18.15,18.15,0,0,0,4.81,3.67,14.76,14.76,0,0,0,6.79.63c1.54-.24,7.94-1.44,10.46-7.18,2-4.44,2.07-9,1.1-15l12.8-2.95-1.8-7.83-12.65,2.91-1.37-6,12.65-2.91-1.8-7.83L267.06,15.4,263.51,0l-8.2,1.89,1,4.53c.28,1.23.65,3.46-.19,4.64s-1.35,1.47-3.4,1.94L220.11,20.5a3.3,3.3,0,0,1-2.55-.26c-.78-.51-1.08-1.14-1.44-2.71l-1.08-4.68-9.85.57,3.54,15.4-12.61,2.9,1.8,7.83,12.61-2.9,1.37,6-12.61,2.9,1.8,7.83,12.82-3c.58,2,1.17,3.85,1.57,4.91a26.56,26.56,0,0,0,7,11c4.41,4,9.85,3.82,15.11,2.72S246,65.16,247.38,62Zm12.55-36.74s.79,2.44,1.32,4.9a25.36,25.36,0,0,1,.69,8.08c-.26,3.45-2.25,5.91-5.11,6.64a6.35,6.35,0,0,1-6.79-2,19.44,19.44,0,0,1-3.85-7.62c-.77-2.83-1.5-6.51-1.5-6.51Zm-33.7,26.2a25.33,25.33,0,0,1-4.18-8.36c-1.06-3.42-2.14-8.63-2.14-8.63l16.93-3.9s1.4,4.92,2,8.85a25.54,25.54,0,0,1,0,9.05,7.19,7.19,0,0,1-12.63,3Z"/><path id="BTC_alt-2" data-name="BTC alt" class="cls-1" d="M61.73,661a19.37,19.37,0,0,0-7.1-1.47,18.15,18.15,0,0,0,3.75-4.74,14.76,14.76,0,0,0,.75-6.78c-.21-1.54-1.3-8-7-10.59-4.41-2-9-2.23-14.94-1.36l-2.72-12.85-7.86,1.66,2.69,12.7-6,1.27-2.69-12.7-7.86,1.66,2.69,12.7L0,643.78,1.74,652l4.54-1c1.24-.26,3.47-.59,4.63.27s1.44,1.38,1.88,3.43l6.95,32.79a3.3,3.3,0,0,1-.31,2.54c-.53.77-1.16,1.06-2.74,1.39l-4.7,1,.4,9.86L27.86,699l2.68,12.66L38.4,710l-2.68-12.66,6-1.27,2.68,12.66,7.86-1.66-2.73-12.87c2-.55,3.87-1.11,4.94-1.49A26.56,26.56,0,0,0,65.6,686c4-4.34,4-9.78,3-15.06S64.84,662.47,61.73,661ZM25.21,647.8s2.45-.75,4.92-1.24a25.36,25.36,0,0,1,8.09-.55c3.44.32,5.87,2.36,6.55,5.23a6.35,6.35,0,0,1-2.1,6.75A19.44,19.44,0,0,1,35,661.71c-2.84.72-6.54,1.38-6.54,1.38ZM50.82,682a25.33,25.33,0,0,1-8.43,4c-3.43,1-8.67,2-8.67,2l-3.6-17s4.94-1.32,8.89-1.88a25.54,25.54,0,0,1,9.05.17A7.19,7.19,0,0,1,50.82,682Z"/><polygon class="cls-2" points="1702.39 969.63 1692.73 980.69 1621.27 948.25 1642.49 922.59 1629.62 922.17 1636.47 913.8 1649.06 914.77 1683.82 872.36 1708.59 883.6 1681.08 917.24 1697.18 918.45 1690.31 927.12 1673.96 926.08 1655.8 948.48 1702.39 969.63"/><polygon class="cls-2" points="1620.48 311.74 1622.43 326.3 1550.89 358.59 1545.61 325.71 1536.81 335.1 1535.04 324.43 1544.08 315.61 1535.15 261.51 1559.94 250.32 1567.06 293.19 1578.59 281.88 1580.58 292.77 1569 304.36 1573.85 332.8 1620.48 311.74"/></g></g></svg>