<svg xmlns="http://www.w3.org/2000/svg" viewBox="0 0 351.79 531.86"><defs><style>.cls-1{fill:#231f20;opacity:0.1;}.cls-2{fill:#f7dcba;}.cls-3{fill:#f3c997;}.cls-3,.cls-4{isolation:isolate;}.cls-4,.cls-5{fill:#fff;}.cls-4{opacity:0.3;}.cls-6{fill:#e4eaef;}.cls-7{fill:#607d8b;}</style></defs><title>mining0</title><g id="Layer_2" data-name="Layer 2"><g id="Layer_1-2" data-name="Layer 1"><path class="cls-1" d="M351.79,399.83c0,95.54-78.36,132-173.89,132l-4.24,0h-.82l-3.82-.07h-.21C95.51,530,34.24,507,12.59,450.28l.37.34C7.15,436,4,419.1,4,399.83c0-34,14.44-75.22,35.73-114.23l273.51-5.08,0,.05c20.8,36.9,35.69,76.18,38.15,109.72l0,.33c.09,1.32.16,2.64.22,4,0,.33,0,.66,0,1C351.76,397,351.79,398.42,351.79,399.83Z"/><path class="cls-2" d="M272.61,8.62a17.15,17.15,0,0,1,0,6.22,23.6,23.6,0,0,1-3.31,8.77C249.13,56.36,225.66,86.76,204.68,119c-1.41,2.17-2.92,4.42-5.2,5.66s-4.69,1.26-7.13,1.33l-24.46.69c-5.36.15-10.88.28-15.9-1.63-15.2-5.78-22.82-27.47-31-40C108.85,66.45,92.9,50.47,81.22,31.87c-6.31-10.05,4.14-22.2,15.06-17.56,9,3.81,17.81,9.27,25.19,11.87a82,82,0,0,0,52,.73C184.21,23.45,267-17.4,272.61,8.62Z"/><path class="cls-2" d="M223.28,155.41H124.52C66.55,201.57,0,307.84,0,380.83c0,95.54,77.29,132,173.9,132,95.54,0,173.9-36.5,173.9-132C347.79,307.84,281.24,201.57,223.28,155.41Z"/><path class="cls-3" d="M279.09,214.45C304.86,257.38,322,303.54,322,341.11c0,96.61-77.29,133.11-173.9,133.11-56.89,0-107.34-12.88-139.55-42.94,22.54,59,88,81.58,165.31,81.58,95.54,0,173.9-36.5,173.9-132C347.79,331.45,316.66,266,279.09,214.45Z"/><circle class="cls-4" cx="136.33" cy="297.1" r="85.88"/><path class="cls-5" d="M224.35,155.41H124.52a15.81,15.81,0,0,1-16.1-16.1h0a15.81,15.81,0,0,1,16.1-16.1h99.83a15.81,15.81,0,0,1,16.1,16.1h0A15.81,15.81,0,0,1,224.35,155.41Z"/><path class="cls-6" d="M108.42,139.64a16.79,16.79,0,0,1,.61-4.5,15.67,15.67,0,0,0,15.49,11.6h99.83a16.27,16.27,0,0,0,11.27-4.43,15.38,15.38,0,0,0,4.23-7.13,17,17,0,0,1,.6,4.46,15.85,15.85,0,0,1-4.83,11.67,16.27,16.27,0,0,1-11.27,4.43H124.52A15.8,15.8,0,0,1,108.42,139.64Z"/><path class="cls-7" d="M223.28,343.26c-2.15-5.37-8.59-20.4-41.86-27.91V273.49c8.59,2.15,14,8.59,16.1,16.1s6.44,10.73,12.88,10.73c3.22,0,24.69-6.44,3.22-32.2-3.22-4.29-9.66-11.81-31.13-14v-16.1H169.6v17.17c-38.64,4.29-42.94,29-42.94,40.79,0,34.35,33.28,39.72,42.94,42.94v46.16c-16.1-4.29-19.32-20.4-21.47-25.76-2.15-7.51-8.59-7.51-11.81-7.51-9.66,0-12.88,9.66-12.88,12.88,0,4.29,2.15,24.69,25.76,36.5,5.37,3.22,12.88,4.29,20.4,5.37v16.1h12.88V405.52c9.66-1.07,17.17-3.22,24.69-7.51C224.35,386.2,230.79,364.73,223.28,343.26Zm-54.75-31.13c-9.66-4.29-17.17-6.44-17.17-19.32,0-5.37,2.15-15,17.17-19.32Zm12.88,74.07v-44c20.4,6.44,20.4,15,20.4,21.47C201.81,369,200.73,380.83,181.41,386.2Z"/></g></g></svg>