<svg xmlns="http://www.w3.org/2000/svg" viewBox="0 0 1027.6 269.74"><defs><style>.cls-1{opacity:0.15;}.cls-2{fill:#a3b9c1;}</style></defs><title>pattern0</title><g id="Layer_2" data-name="Layer 2"><g id="Layer_1-2" data-name="Layer 1"><g class="cls-1"><path class="cls-2" d="M575.62,75h0a.78.78,0,1,1-.27.14.78.78,0,0,1,.27-.14m-.17-.57a1.38,1.38,0,1,0,1.47.45,1.38,1.38,0,0,0-1.47-.45Z"/><path class="cls-2" d="M570.38,85.54,573,83.78c.24-.16,0-.55-.24-.38l-2.58,1.76c-.24.16,0,.55.24.38Z"/><path class="cls-2" d="M570.48,83.3l1.76,2.58c.16.24.55,0,.38-.24l-1.76-2.58c-.16-.24-.55,0-.38.24Z"/><path class="cls-2" d="M657.56,155.36c-2.42-8-12.5-12-22.56-9s-16.23,12-13.82,20,12.5,12,22.56,9c1.82-.55,12.7,4.48,14.23,3.58,1.32-.77-4.79-9.1-4.38-9.59C657.35,165.34,659,160.19,657.56,155.36Zm-6,15.34c.16.32.32.65.59,1.13a12.28,12.28,0,0,0,.75,1.26c.09.1.64,1.11.86,1.41l.41.74c.14.27.27.48.39.69-.75-.21-1.64-.5-2.88-.93-.07,0-.07,0-.13,0-6-2.09-6.92-2.38-8.45-1.92-8.87,2.67-17.61-.83-19.6-7.42s3.36-14.35,12.23-17,17.61.83,19.6,7.42c1.15,3.81-.09,8.15-3.42,11.7a2.39,2.39,0,0,0-.66,1.5,2.35,2.35,0,0,0,.31,1.46Z"/><circle class="cls-2" cx="497.34" cy="123.24" r="1.8" transform="translate(-14.4 148.84) rotate(-16.78)"/><circle class="cls-2" cx="506.29" cy="148.77" r="1.8" transform="translate(-21.39 152.51) rotate(-16.78)"/><circle class="cls-2" cx="599.11" cy="149.74" r="1.9" transform="translate(-16.42 199.52) rotate(-18.66)"/><path class="cls-2" d="M532,199.23a1.34,1.34,0,0,1,.92,2.51l-.15.05a1.34,1.34,0,0,1-.92-2.51l.15-.05m-.35-1.15-.28.1a2.54,2.54,0,0,0,1.74,4.76l.28-.1a2.54,2.54,0,0,0-1.74-4.76Z"/><path class="cls-2" d="M566.55,124.46l-1.7-2c-.19-.22-.49.11-.31.33l1.7,2c.19.22.49-.11.31-.33Z"/><path class="cls-2" d="M564.72,124.63l2-1.7c.22-.19-.11-.49-.33-.31l-2,1.7c-.22.19.11.49.33.31Z"/><path class="cls-2" d="M766.55,184.32h0A2.16,2.16,0,0,1,768,188.4l-.17.06a2.17,2.17,0,0,1-2.63-1.28,2.16,2.16,0,0,1,1.22-2.8l.17-.06m-.52-1.72-.31.11a4,4,0,0,0,2.6,7.48l.31-.11a4,4,0,0,0-2.6-7.48Z"/><path class="cls-2" d="M757,132h0a2.16,2.16,0,0,1,1.41,4.08l-.17.06a2.17,2.17,0,0,1-2.63-1.28,2.16,2.16,0,0,1,1.22-2.8L757,132m-.52-1.72-.31.11a4,4,0,0,0,2.6,7.48l.31-.11a4,4,0,0,0-2.6-7.48Z"/><path class="cls-2" d="M697.68,168.08h0a2.16,2.16,0,0,1,1.41,4.08l-.17.06a2.17,2.17,0,0,1-2.63-1.28,2.16,2.16,0,0,1,1.22-2.8l.17-.06m-.52-1.72-.31.11a4,4,0,0,0,2.6,7.48l.31-.11a4,4,0,0,0-2.6-7.48Z"/><path class="cls-2" d="M688.46,243.62h0a2.16,2.16,0,0,1,1.41,4.08l-.17.06a2.17,2.17,0,0,1-2.63-1.28,2.16,2.16,0,0,1,1.22-2.8l.17-.06m-.52-1.72-.31.11a4,4,0,0,0,2.6,7.48l.31-.11a4,4,0,0,0-2.6-7.48Z"/><path class="cls-2" d="M657.54,261.72h0a2.16,2.16,0,0,1,1.41,4.08l-.17.06a2.17,2.17,0,0,1-2.63-1.28,2.16,2.16,0,0,1,1.22-2.8l.17-.06M657,260l-.31.11a4,4,0,0,0,2.6,7.48l.31-.11A4,4,0,0,0,657,260Z"/><path class="cls-2" d="M561.54,263.7h0a2.16,2.16,0,0,1,1.41,4.08l-.17.06a2.17,2.17,0,0,1-2.63-1.28,2.16,2.16,0,0,1,1.22-2.8l.17-.06M561,262l-.31.11a4,4,0,0,0,2.6,7.48l.31-.11A4,4,0,0,0,561,262Z"/><path class="cls-2" d="M584.79,188.95h0A2.16,2.16,0,0,1,586.2,193l-.17.06a2.17,2.17,0,0,1-2.63-1.28,2.16,2.16,0,0,1,1.22-2.8l.17-.06m-.52-1.72-.31.11a4,4,0,0,0,2.6,7.48l.31-.11a4,4,0,0,0-2.6-7.48Z"/><circle class="cls-2" cx="489.39" cy="80.7" r="4.39" transform="translate(4.54 185.26) rotate(-21.53)"/><circle class="cls-2" cx="780.13" cy="203.31" r="1.47" transform="translate(-20.17 300.54) rotate(-21.53)"/><circle class="cls-2" cx="757.4" cy="154.97" r="1.47" transform="matrix(0.93, -0.37, 0.37, 0.93, -4.01, 288.82)"/><circle class="cls-2" cx="691.57" cy="98.92" r="1.47" transform="translate(11.96 260.74) rotate(-21.53)"/><circle class="cls-2" cx="681.6" cy="128.27" r="1.47" transform="translate(0.49 259.13) rotate(-21.53)"/><circle class="cls-2" cx="666.41" cy="167.35" r="1.47" transform="translate(-14.91 256.29) rotate(-21.53)"/><circle class="cls-2" cx="672.74" cy="244.48" r="1.47" transform="translate(-42.78 263.99) rotate(-21.53)"/><circle class="cls-2" cx="639.34" cy="262.7" r="1.47" transform="translate(-51.8 253.01) rotate(-21.53)"/><circle class="cls-2" cx="600.77" cy="242.97" r="1.47" transform="matrix(0.93, -0.37, 0.37, 0.93, -47.25, 237.47)"/><circle class="cls-2" cx="631.32" cy="204.9" r="1.47" transform="translate(-31.14 246.03) rotate(-21.53)"/><circle class="cls-2" cx="592.93" cy="231.53" r="1.47" transform="translate(-43.6 233.8) rotate(-21.53)"/><circle class="cls-2" cx="644.74" cy="16.44" r="1.47" transform="translate(38.97 237.8) rotate(-21.53)"/><circle class="cls-2" cx="614.01" cy="69.65" r="2.82" transform="translate(17.29 230.23) rotate(-21.53)"/><path class="cls-2" d="M666.79,46.92h0A2.16,2.16,0,0,1,668.2,51l-.17.06a2.17,2.17,0,0,1-2.63-1.28,2.16,2.16,0,0,1,1.22-2.8l.17-.06m-.52-1.72-.31.11a4,4,0,0,0,2.6,7.48l.31-.11a4,4,0,0,0-2.6-7.48Z"/><path class="cls-2" d="M672,82h0a2.39,2.39,0,0,1,1.57,4.52l-.19.07A2.39,2.39,0,0,1,671.8,82L672,82m-.35-1.15-.29.1a3.6,3.6,0,0,0,2.35,6.79l.29-.1a3.6,3.6,0,0,0-2.35-6.79Z"/><path class="cls-2" d="M543.46,134.7,549,133a.68.68,0,0,0-.39-1.29l-5.58,1.68a.68.68,0,0,0,.39,1.29Z"/><path class="cls-2" d="M544.57,130.62l1.68,5.58a.68.68,0,0,0,1.29-.39l-1.68-5.58a.68.68,0,0,0-1.29.39Z"/><path class="cls-2" d="M620.16,136.2l2.44,3c.54.67,1.69,0,1.14-.72l-2.44-3c-.54-.67-1.69,0-1.14.72Z"/><path class="cls-2" d="M623.12,135.57l-3,2.44c-.67.54,0,1.69.72,1.14l3-2.44c.67-.54,0-1.69-.72-1.14Z"/><path class="cls-2" d="M548.3,96.06h0a.78.78,0,1,1-.21.1.78.78,0,0,1,.21-.1m-.17-.57a1.38,1.38,0,1,0,1.54.55,1.38,1.38,0,0,0-1.54-.55Z"/><path class="cls-2" d="M495.86,96.49l2.83,7.12c.43,1.07,2.15.56,1.72-.52L497.59,96c-.43-1.07-2.15-.56-1.72.52Z"/><path class="cls-2" d="M501.44,97.51l-7.12,2.83c-1.07.43-.56,2.15.52,1.72L502,99.23c1.07-.43.56-2.15-.52-1.72Z"/><path class="cls-2" d="M723.45,215.24,718.34,221c-.77.86.54,2.09,1.32,1.23l5.11-5.71c.77-.86-.54-2.09-1.32-1.23Z"/><path class="cls-2" d="M725,220.6l-5.71-5.11c-.86-.77-2.09.54-1.23,1.32l5.71,5.11c.86.77,2.09-.54,1.23-1.32Z"/><path class="cls-2" d="M736.2,82.81l-5.11,5.71c-.77.86.54,2.09,1.32,1.23L737.52,84c.77-.86-.54-2.09-1.32-1.23Z"/><path class="cls-2" d="M737.77,88.17l-5.71-5.11c-.86-.77-2.09.54-1.23,1.32l5.71,5.11c.86.77,2.09-.54,1.23-1.32Z"/><path class="cls-2" d="M680.33,149.21l-5.11,5.71c-.77.86.54,2.09,1.32,1.23l5.11-5.71c.77-.86-.54-2.09-1.32-1.23Z"/><path class="cls-2" d="M681.9,154.57l-5.71-5.11c-.86-.77-2.09.54-1.23,1.32l5.71,5.11c.86.77,2.09-.54,1.23-1.32Z"/><path class="cls-2" d="M577.63,258l-5.11,5.71c-.77.86.54,2.09,1.32,1.23l5.11-5.71c.77-.86-.54-2.09-1.32-1.23Z"/><path class="cls-2" d="M579.21,263.32l-5.71-5.11c-.86-.77-2.09.54-1.23,1.32l5.71,5.11c.86.77,2.09-.54,1.23-1.32Z"/><path class="cls-2" d="M611.82,192.45l-5.11,5.71c-.77.86.54,2.09,1.32,1.23l5.11-5.71c.77-.86-.54-2.09-1.32-1.23Z"/><path class="cls-2" d="M613.4,197.81l-5.71-5.11c-.86-.77-2.09.54-1.23,1.32l5.71,5.11c.86.77,2.09-.54,1.23-1.32Z"/><path class="cls-2" d="M604.25,46.7l-5.11,5.71c-.77.86.54,2.09,1.32,1.23l5.11-5.71c.77-.86-.54-2.09-1.32-1.23Z"/><path class="cls-2" d="M605.83,52.06,600.11,47c-.86-.77-2.09.54-1.23,1.32l5.71,5.11c.86.77,2.09-.54,1.23-1.32Z"/><path class="cls-2" d="M644.8,80.67l-6.29-5c-.9-.72-2.13.59-1.23,1.32l6.29,5c.9.72,2.13-.59,1.23-1.32Z"/><path class="cls-2" d="M639.18,82.57l5-6.29c.72-.9-.59-2.13-1.32-1.23l-5,6.29c-.72.9.59,2.13,1.32,1.23Z"/><path class="cls-2" d="M545.62,74.51h0a1,1,0,0,1,1.24.6,1,1,0,0,1-.57,1.32l-.08,0a1,1,0,0,1-.67-1.93l.08,0m-.17-.57-.13,0A1.62,1.62,0,0,0,546.38,77l.13,0a1.62,1.62,0,0,0-1.06-3.06Z"/><path class="cls-2" d="M580.66,44.38a8,8,0,1,0-11.46,3.8L562.54,64a1.07,1.07,0,1,0,2,.83L571.17,49A8.06,8.06,0,0,0,580.66,44.38Z"/><path class="cls-2" d="M557.47,143.37a21.59,21.59,0,1,0,26.91,14.44A21.57,21.57,0,0,0,557.47,143.37Zm11.69,38.76a18.89,18.89,0,1,1,12.63-23.54A18.86,18.86,0,0,1,569.16,182.14Z"/><circle class="cls-2" cx="569.64" cy="158.03" r="3.37" transform="translate(-21.37 171.19) rotate(-16.78)"/><circle class="cls-2" cx="555.43" cy="162.31" r="3.37" transform="translate(-23.21 167.27) rotate(-16.78)"/><path class="cls-2" d="M573.22,169.64a1.13,1.13,0,0,0-.79.66,9.58,9.58,0,0,1-5.6,4.09,10,10,0,0,1-6.91-.24,1.29,1.29,0,0,0-1-.18,1.35,1.35,0,0,0-.9,1.68,1.45,1.45,0,0,0,.49.7l.08,0a.93.93,0,0,0,.32.12,12.13,12.13,0,0,0,8.74.47,12.45,12.45,0,0,0,7.2-5.34,1.33,1.33,0,0,0,.11-1A1.37,1.37,0,0,0,573.22,169.64Z"/><path class="cls-2" d="M735.76,123.47c-.74-2.44-5-3.9-10.4-4-.23-5.4-1.78-9.63-4.29-10.28-2.68-.74-6.34,2.47-9.43,7.54-5.37-2.45-10.21-3.16-12-1.07a4.63,4.63,0,0,0-.82,3.33,2.71,2.71,0,0,0-1,3,2.78,2.78,0,0,0,2.47,1.92,27.77,27.77,0,0,0,1.47,2.78c-4.4,3.08-7.2,6.59-6.46,9s5,3.82,10.44,3.93c.25,5.47,1.8,9.69,4.25,10.36s6.32-2.54,9.42-7.61c5.39,2.51,10.27,3.14,12.05,1.13.79-.87,1-2.33.67-4.06a2.69,2.69,0,0,0,1-2.88,2.74,2.74,0,0,0-2.68-1.93c-.34-.67-.7-1.4-1.13-2.11C733.72,129.48,736.5,125.91,735.76,123.47Zm-8.21-1.87c3.68.36,6,1.43,6.28,2.45s-1,3.18-3.88,5.52a19,19,0,0,1-1.78,1.31,35.86,35.86,0,0,0-3.2-4.08,40.53,40.53,0,0,0,.38-5.23A18.87,18.87,0,0,1,727.56,121.59Zm-9,18.13c-.75-.4-1.53-.87-2.3-1.34l1.88-.5a15.17,15.17,0,0,0,1.65-.57C719.37,138.16,719,139,718.58,139.73Zm-1-3.77a34,34,0,0,1-3.59.87c-1-.75-2-1.5-2.95-2.34a33.93,33.93,0,0,1-2.79-2.74,39.33,39.33,0,0,1,.86-4.12,27.83,27.83,0,0,1,1.09-3.35,35.26,35.26,0,0,1,3.54-1.28c1.09-.33,2.27-.61,3.38-.88a27.83,27.83,0,0,1,2.76,2.18,32.4,32.4,0,0,1,3,3c-.23,1.33-.48,2.6-.81,3.82s-.75,2.4-1.17,3.58A22.27,22.27,0,0,1,717.58,136Zm-6.39,1.37c-1.15.14-2.32.21-3.49.28,0-1.06.06-2.12.16-3.2a22.63,22.63,0,0,0,1.84,1.69C710.18,136.51,710.65,136.93,711.2,137.33Zm-4.71-7.48c-.68-.85-1.37-1.76-2-2.63,1-.57,2-1.17,3.06-1.7-.19.55-.37,1.09-.49,1.62Zm8.33-9.1-1.69.44a18.23,18.23,0,0,0-1.84.63c.38-.82.77-1.63,1.22-2.47C713.19,119.76,714,120.21,714.82,120.74Zm5,1.08c1.22-.16,2.39-.23,3.56-.3a28.71,28.71,0,0,1-.2,3.29,26.67,26.67,0,0,0-2-1.86C720.76,122.52,720.3,122.17,719.84,121.82Zm4.13,10a22.63,22.63,0,0,0,.6-2.42,28.12,28.12,0,0,1,1.92,2.65c-1,.57-2,1.17-3.06,1.7C723.57,133,723.8,132.4,724,131.79Zm-3.44-20.7c1,.26,2.09,2.52,2.58,6.23.07.68.15,1.43.15,2.13a47.81,47.81,0,0,0-5.77.62,32.77,32.77,0,0,0-4.11-2.48,28.79,28.79,0,0,1,1.71-2.48C717.44,112.23,719.54,110.83,720.53,111.09Zm-18.11,12.47-.2-.43a2.78,2.78,0,0,0,.78-2.76,2.72,2.72,0,0,0-2.11-1.89,2.68,2.68,0,0,1,.3-1.56c.68-.77,3.21-.76,6.72.43a28.79,28.79,0,0,1,2.79,1.12,28.18,28.18,0,0,0-2,4.4,36.48,36.48,0,0,0-5.09,2.66A10.55,10.55,0,0,1,702.42,123.57Zm1.19,13.94c-3.75-.34-6.12-1.45-6.41-2.41s1.09-3.13,3.94-5.54c.5-.43,1.09-.82,1.65-1.27a40.53,40.53,0,0,0,3.21,4.15,47.79,47.79,0,0,0-.4,5.17Zm6.9,10.54c-1-.26-2.11-2.59-2.6-6.3-.07-.68-.15-1.43-.15-2.13a49.3,49.3,0,0,0,5.71-.6,32.77,32.77,0,0,0,4.11,2.48,26.94,26.94,0,0,1-1.66,2.39C713.66,146.89,711.49,148.32,710.5,148.05Zm18-12.58a2.71,2.71,0,0,0-.61,2.64,2.65,2.65,0,0,0,2.24,1.85,2.82,2.82,0,0,1-.25,2.18c-.68.77-3.27.78-6.8-.47a26.94,26.94,0,0,1-2.71-1.08,41,41,0,0,0,2-4.32,39,39,0,0,0,5.15-2.68A15.93,15.93,0,0,1,728.52,135.47Z"/><path class="cls-2" d="M697.65,54.06s-5.17,16.92-3.6,22.12a9.83,9.83,0,0,0,18.83-5.68C711.32,65.3,697.65,54.06,697.65,54.06Z"/><path class="cls-2" d="M543.82,213.88a10.6,10.6,0,0,0,1,14.91l15.88,13.95,5.67-6.45,6.45,5.67a2,2,0,0,0,2.8-.18,2,2,0,0,0-.18-2.8l-6.45-5.67,5.67-6.45-15.88-13.95A10.6,10.6,0,0,0,543.82,213.88Zm27.06,13.22L560.42,239l-13.89-12.2A7.93,7.93,0,1,1,557,214.9Z"/><path class="cls-2" d="M668.23,108.86,643.3,99.34c-2.55,6.66-1.78,13.47,1.48,17.66l9.88,3.77a15,15,0,0,0,7.12-3.69l-.41.38,3.12,1.19a5.24,5.24,0,0,0,3.74-9.79Zm-13.37,9.85L646,115.32c-2.28-3.27-2.86-8.3-1.46-13.37l20.32,7.76C662.53,114.42,658.73,117.78,654.86,118.71Zm10.35-1.92-2.24-.85,0,0a22,22,0,0,0,4-6,1.38,1.38,0,0,1-.21.4l.79.3a3.24,3.24,0,1,1-2.31,6.06Zm-11.57-15.42a2.79,2.79,0,0,0,2.69-2.28,25.65,25.65,0,0,1,.56-3.58,13.88,13.88,0,0,1,.89-2.33,18.84,18.84,0,0,1,2-3s-3.53.31-4.63,3.46a11.65,11.65,0,0,0-.37,4.88A2.77,2.77,0,0,1,653.63,101.36Zm3.65.22a1.7,1.7,0,0,0,1.67-1.44,17.07,17.07,0,0,1,.33-2.28,17.29,17.29,0,0,1,1.84-3.41,3.56,3.56,0,0,0-2.94,2.24,7.73,7.73,0,0,0-.23,3.12A1.65,1.65,0,0,1,657.28,101.58Z"/><path class="cls-2" d="M539.19,107.45,517,102.72a.43.43,0,0,0-.51.36l-2.86,23.28a.69.69,0,0,0,.34.63l8.08,4.21a1.43,1.43,0,0,0,.82.18l9.15-.59a.67.67,0,0,0,.57-.48L539.5,108A.43.43,0,0,0,539.19,107.45Zm-5.28,5.23-.17.61c-.09.24-.16.57-.25.76a1.59,1.59,0,0,1-.11.32l-10.6-2.26a.43.43,0,0,0-.51.36l-.24,2.14a.54.54,0,0,0,.4.56l9.7,2.07a.39.39,0,0,1,.28.49,6.32,6.32,0,0,1-.26.8l-2.06,6.65a4.58,4.58,0,0,0-.19.69c0,.12-.27.24-.53.27l-5.38.23-.44,0a2.72,2.72,0,0,1-.38-.21l-4.79-2.52A.67.67,0,0,1,518,123l.46-3.77a.41.41,0,0,1,.51-.36l2,.43a.54.54,0,0,1,.4.56l-.18,1.46a.69.69,0,0,0,.34.63l2.24,1.17.38.21a2.72,2.72,0,0,0,.44,0l2.52-.15a.67.67,0,0,0,.57-.44l.87-2.87a.41.41,0,0,0-.31-.54l-9.13-1.94a.54.54,0,0,1-.4-.56l.91-7.28c0-.26.09-.63.09-.84a.42.42,0,0,1,.5-.32l13.65,2.91a.4.4,0,0,1,.32.5C534.12,112.09,534,112.45,533.9,112.69Z"/><path class="cls-2" d="M499.54,54a7.45,7.45,0,0,0,.68,10.48l11.16,9.8,4-4.53,4.53,4a1.4,1.4,0,0,0,2-.13,1.37,1.37,0,0,0-.13-2l-4.53-4,4-4.53L510,53.31A7.45,7.45,0,0,0,499.54,54Zm19,9.29-7.35,8.37-9.76-8.58a5.57,5.57,0,1,1,7.35-8.37Z"/><path class="cls-2" d="M592.94,81.66a4.92,4.92,0,0,0-1,1.4,3.89,3.89,0,0,0-4.16.71,4,4,0,0,0-1.09,1.72v.09h-.09a5.17,5.17,0,0,0-5,1.19A5.69,5.69,0,0,0,580.17,89l-.23,1.1L579,90a4.36,4.36,0,0,0-3.11,1.17,4.56,4.56,0,0,0-.26,6.48l.27.29.27.2-.29.27a5.28,5.28,0,0,0,.38,6.69,8.36,8.36,0,0,0,.94.92l0,0,21.37,18.63a.76.76,0,0,0,1,0L617,108.51a.67.67,0,0,0,.09-1L600.85,85.6a5.5,5.5,0,0,0-1.43-3.68A4.56,4.56,0,0,0,592.94,81.66Zm-14.79,21.67a2.8,2.8,0,0,1-.72-1.75,2.51,2.51,0,0,1,.63-1.74s1.89-.76,1.75-2.06-2.07-1.66-2.07-1.66l-.22-.24a2,2,0,0,1,.11-2.78,2,2,0,0,1,1.78-.48l.73.31.93,1a1.64,1.64,0,1,0,2.41-2.22l-1-1.06.06-.32a2.62,2.62,0,0,1,.81-1.64,3,3,0,0,1,1.19-.65,2.63,2.63,0,0,1,1.34,0s1.67,2.39,3.06,1.28.17-3.1.17-3.1a1.94,1.94,0,0,1,.39-.54,1.32,1.32,0,0,1,.66-.34,1.17,1.17,0,0,1,.69.07s1.77,2.11,3.07.91l.32-2.17a2.36,2.36,0,0,1,.44-.59,1.93,1.93,0,0,1,2.78.11c.71.77,1.06,2.41.43,3.17l-18.84,17.37A7.17,7.17,0,0,1,578.15,103.32Zm23,5.57a3.93,3.93,0,1,1,.22-5.56A3.94,3.94,0,0,1,601.12,108.89ZM581.06,106l8.43-7.78,3.64,4a6.56,6.56,0,0,0,8.71,9.44l3.64,4-6.55,6ZM614,107.74l-6.55,6-3.64-4a6.56,6.56,0,0,0-8.71-9.44l-3.64-4,8.43-7.78Z"/><polygon class="cls-2" points="542.66 246.74 540.91 248.2 540.15 250.35 538.22 249.14 535.95 249.08 536.5 246.87 535.85 244.69 538.12 244.53 540 243.24 540.85 245.35 542.66 246.74"/><polygon class="cls-2" points="589.49 210.66 587.74 212.12 586.98 214.28 585.05 213.06 582.77 213.01 583.33 210.8 582.68 208.61 584.95 208.46 586.83 207.16 587.68 209.28 589.49 210.66"/><polygon class="cls-2" points="661.33 209.7 659.58 211.16 658.83 213.31 656.9 212.1 654.62 212.04 655.17 209.83 654.52 207.65 656.8 207.49 658.67 206.2 659.52 208.31 661.33 209.7"/><polygon class="cls-2" points="522.25 176.99 520.51 178.46 519.75 180.61 517.82 179.39 515.54 179.34 516.1 177.13 515.44 174.94 517.72 174.79 519.59 173.49 520.44 175.61 522.25 176.99"/><polygon class="cls-2" points="724.21 170.66 722.46 172.13 721.7 174.28 719.77 173.06 717.49 173.01 718.05 170.8 717.39 168.62 719.67 168.46 721.54 167.17 722.39 169.28 724.21 170.66"/><polygon class="cls-2" points="616.88 261.99 615.14 263.45 614.38 265.6 612.45 264.39 610.17 264.34 610.73 262.13 610.07 259.94 612.35 259.79 614.22 258.49 615.07 260.61 616.88 261.99"/><path class="cls-2" d="M625.22,230.57l2.8,1.08-1.91,5c.11,0,.19,0,.31-.14l5.18-5a.35.35,0,0,0-.14-.63l-2.8-1.08,1.91-5c-.11,0-.19,0-.31.14l-5.18,5A.35.35,0,0,0,625.22,230.57Zm22.38,3.7-1.12-.43,1.51-3.92a1.77,1.77,0,0,0-1-2.33l-30.84-11.83a1.77,1.77,0,0,0-2.33,1l-5.59,14.58a1.77,1.77,0,0,0,1,2.33l30.84,11.83a1.77,1.77,0,0,0,2.33-1l1.51-3.92L645,241a.57.57,0,0,0,.78-.35l2.15-5.61A.65.65,0,0,0,647.6,234.27Zm-7.24,8.8-29.72-11.4,5.16-13.46,29.72,11.4Z"/><path class="cls-2" d="M698.37,201.25l-2.6-8.62a3,3,0,0,0-5.75,1.73l.87,2.87a12.76,12.76,0,0,0-10.35,3.12l-.87-2.87a3,3,0,0,0-5.75,1.73l2.6,8.62a12.5,12.5,0,0,0,.41,5.52l5.37,17.82a2.41,2.41,0,0,0,3,1.61l19.55-5.9a2.41,2.41,0,0,0,1.61-3l-5.37-17.82A12.5,12.5,0,0,0,698.37,201.25Zm-6.63-7.41a1.2,1.2,0,0,1,2.3-.69l1.8,6a11.7,11.7,0,0,0-2.92-1.38Zm-16.1,4.85a1.2,1.2,0,0,1,2.3-.69l1.18,3.91a13.73,13.73,0,0,0-1.68,2.76Zm29.09,25.73a.57.57,0,0,1-.4.75l-19.55,5.9a.6.6,0,0,1-.75-.4l-.35-1.15,20.7-6.24Zm-.87-2.87-20.7,6.24-4.51-14.95a10.82,10.82,0,0,1,1.21-8.89l.4-.56.28-.33.41-.5a10.68,10.68,0,0,1,4.94-3.18,10.89,10.89,0,0,1,5.93-.09l.62.19.43.18.56.21a10.72,10.72,0,0,1,5.92,6.74Zm-17.46-20.45a9,9,0,0,0-6,11.23l1.72-.52a7.21,7.21,0,0,1,13.8-4.16l1.72-.52A9,9,0,0,0,686.41,201.09Zm10.28,9.13a.9.9,0,1,0,1.72-.52l-.43-1.44-1.72.52Zm0,2.19-12.65,3.81a2.41,2.41,0,0,0-1.61,3l1.21,4a2.41,2.41,0,0,0,3,1.61L699.32,221a2.41,2.41,0,0,0,1.61-3l-1.21-4A2.41,2.41,0,0,0,696.72,212.41Zm2.48,6.15a.57.57,0,0,1-.4.75l-12.65,3.81a.57.57,0,0,1-.75-.4l-1.21-4a.57.57,0,0,1,.4-.75l12.65-3.81a.57.57,0,0,1,.75.4Z"/><path class="cls-2" d="M749.74,198.18a14.05,14.05,0,0,0-5.65-18.74s-.05,0-.1,0l-.66-.35-.05,0-.74-.33-.05,0a14.14,14.14,0,0,0-16.88,5.09,11.51,11.51,0,0,0-.92,1.52,13.86,13.86,0,0,0-1,10.51,14.11,14.11,0,0,0,25.13,3.93l0-.05.44-.68,0-.05.35-.66Zm-24.05-2,6.67-2a12.39,12.39,0,0,1-1.09,8.43A12.39,12.39,0,0,1,725.69,196.13Zm17.47-15.21a12.39,12.39,0,0,1,5.57,6.42l-6.67,2A12.39,12.39,0,0,1,743.16,180.92Zm-2.78,8.94-2.57.78-3.3-10.93a12.4,12.4,0,0,1,7.06.5A13.82,13.82,0,0,0,740.38,189.86Zm-4.26,1.29-2.57.78a14,14,0,0,0-6.33-7.39,12.4,12.4,0,0,1,5.6-4.31Zm-4.26,1.29-6.67,2a12.39,12.39,0,0,1,1.09-8.43A12.39,12.39,0,0,1,731.85,192.43Zm2.2,1.18,2.57-.78,3.3,10.93a12.4,12.4,0,0,1-7.06-.5A14.15,14.15,0,0,0,734,193.61Zm4.26-1.29,2.57-.78a14,14,0,0,0,6.33,7.39,12.4,12.4,0,0,1-5.6,4.31Zm4.26-1.29,6.67-2a12.39,12.39,0,0,1-1.09,8.43A12.39,12.39,0,0,1,742.57,191Z"/><path class="cls-2" d="M703.64,4.87,669.15,0a1.77,1.77,0,0,0-2,1.53l-3,21.41a1.77,1.77,0,0,0,1.53,2l34.49,4.85a1.77,1.77,0,0,0,2-1.53l3-21.41A1.77,1.77,0,0,0,703.64,4.87Zm-3.77,22.52-33.3-4.68,2.84-20.22,33.3,4.68ZM689.69,30.8l-14.27-2a1.2,1.2,0,0,0-.33,2.38l14.27,2a1.2,1.2,0,1,0,.33-2.38Z"/><path class="cls-2" d="M634.54,40.25l-6.81-5.53a1.2,1.2,0,0,0-.18-1.69l-1.86-1.51a1.2,1.2,0,0,0-1.69.18l-6.06,7.46a1.2,1.2,0,0,0,.18,1.69L620,42.36a1.2,1.2,0,0,0,1.69-.18l6.81,5.53a12.61,12.61,0,1,0,6.06-7.46Zm-14.82-.43,5.3-6.53.93.76-5.3,6.53Zm28.76,17.94a10.2,10.2,0,0,1-17.13-10.82l-8.16-6.63,3-3.73,8.16,6.63a10.2,10.2,0,0,1,14.1,14.55Zm-6.1-14.4-9.24,11.37a8.74,8.74,0,0,0,2.58,3.49c3.26,2.65,8.45,2,11.36-1.6s2.5-8.8-.76-11.45A8.74,8.74,0,0,0,642.37,43.36Z"/></g><g class="cls-1"><path class="cls-2" d="M821.62,75h0a.78.78,0,1,1-.27.14.78.78,0,0,1,.27-.14m-.17-.57a1.38,1.38,0,1,0,1.47.45,1.38,1.38,0,0,0-1.47-.45Z"/><path class="cls-2" d="M816.38,85.54,819,83.78c.24-.16,0-.55-.24-.38l-2.58,1.76c-.24.16,0,.55.24.38Z"/><path class="cls-2" d="M816.48,83.3l1.76,2.58c.16.24.55,0,.38-.24l-1.76-2.58c-.16-.24-.55,0-.38.24Z"/><path class="cls-2" d="M903.56,155.36c-2.42-8-12.5-12-22.56-9s-16.23,12-13.82,20,12.5,12,22.56,9c1.82-.55,12.7,4.48,14.23,3.58,1.32-.77-4.79-9.1-4.38-9.59C903.35,165.34,905,160.19,903.56,155.36Zm-6,15.34c.16.32.32.65.59,1.13a12.28,12.28,0,0,0,.75,1.26c.09.1.64,1.11.86,1.41l.41.74c.14.27.27.48.39.69-.75-.21-1.64-.5-2.88-.93-.07,0-.07,0-.13,0-6-2.09-6.92-2.38-8.45-1.92-8.87,2.67-17.61-.83-19.6-7.42s3.36-14.35,12.23-17,17.61.83,19.6,7.42c1.15,3.81-.09,8.15-3.42,11.7a2.39,2.39,0,0,0-.66,1.5,2.35,2.35,0,0,0,.31,1.46Z"/><circle class="cls-2" cx="743.34" cy="123.24" r="1.8" transform="translate(-3.93 219.86) rotate(-16.78)"/><circle class="cls-2" cx="752.29" cy="148.77" r="1.8" transform="translate(-10.92 223.53) rotate(-16.78)"/><circle class="cls-2" cx="845.11" cy="149.74" r="1.9" transform="translate(-3.49 278.22) rotate(-18.66)"/><path class="cls-2" d="M778,199.23a1.34,1.34,0,0,1,.92,2.51l-.15.05a1.34,1.34,0,0,1-.92-2.51l.15-.05m-.35-1.15-.28.1a2.54,2.54,0,0,0,1.74,4.76l.28-.1a2.54,2.54,0,0,0-1.74-4.76Z"/><path class="cls-2" d="M812.55,124.46l-1.7-2c-.19-.22-.49.11-.31.33l1.7,2c.19.22.49-.11.31-.33Z"/><path class="cls-2" d="M810.72,124.63l2-1.7c.22-.19-.11-.49-.33-.31l-2,1.7c-.22.19.11.49.33.31Z"/><path class="cls-2" d="M1012.55,184.32h0a2.16,2.16,0,0,1,1.41,4.08l-.17.06a2.17,2.17,0,0,1-2.63-1.28,2.16,2.16,0,0,1,1.22-2.8l.17-.06m-.52-1.72-.31.11a4,4,0,0,0,2.6,7.48l.31-.11a4,4,0,0,0-2.6-7.48Z"/><path class="cls-2" d="M1003,132h0a2.16,2.16,0,0,1,1.41,4.08l-.17.06a2.17,2.17,0,0,1-2.63-1.28,2.16,2.16,0,0,1,1.22-2.8l.17-.06m-.52-1.72-.31.11a4,4,0,0,0,2.6,7.48l.31-.11a4,4,0,0,0-2.6-7.48Z"/><path class="cls-2" d="M943.68,168.08h0a2.16,2.16,0,0,1,1.41,4.08l-.17.06a2.17,2.17,0,0,1-2.63-1.28,2.16,2.16,0,0,1,1.22-2.8l.17-.06m-.52-1.72-.31.11a4,4,0,0,0,2.6,7.48l.31-.11a4,4,0,0,0-2.6-7.48Z"/><path class="cls-2" d="M934.46,243.62h0a2.16,2.16,0,0,1,1.41,4.08l-.17.06a2.17,2.17,0,0,1-2.63-1.28,2.16,2.16,0,0,1,1.22-2.8l.17-.06m-.52-1.72-.31.11a4,4,0,0,0,2.6,7.48l.31-.11a4,4,0,0,0-2.6-7.48Z"/><path class="cls-2" d="M903.54,261.72h0a2.16,2.16,0,0,1,1.41,4.08l-.17.06a2.17,2.17,0,0,1-2.63-1.28,2.16,2.16,0,0,1,1.22-2.8l.17-.06M903,260l-.31.11a4,4,0,0,0,2.6,7.48l.31-.11A4,4,0,0,0,903,260Z"/><path class="cls-2" d="M807.54,263.7h0a2.16,2.16,0,0,1,1.41,4.08l-.17.06a2.17,2.17,0,0,1-2.63-1.28,2.16,2.16,0,0,1,1.22-2.8l.17-.06M807,262l-.31.11a4,4,0,0,0,2.6,7.48l.31-.11A4,4,0,0,0,807,262Z"/><path class="cls-2" d="M830.79,188.95h0A2.16,2.16,0,0,1,832.2,193l-.17.06a2.17,2.17,0,0,1-2.63-1.28,2.16,2.16,0,0,1,1.22-2.8l.17-.06m-.52-1.72-.31.11a4,4,0,0,0,2.6,7.48l.31-.11a4,4,0,0,0-2.6-7.48Z"/><circle class="cls-2" cx="735.39" cy="80.7" r="4.39" transform="translate(21.71 275.56) rotate(-21.53)"/><circle class="cls-2" cx="1026.13" cy="203.31" r="1.47" transform="translate(-3 390.83) rotate(-21.53)"/><circle class="cls-2" cx="1003.4" cy="154.97" r="1.47" transform="matrix(0.93, -0.37, 0.37, 0.93, 13.16, 379.11)"/><circle class="cls-2" cx="937.57" cy="98.92" r="1.47" transform="translate(29.13 351.04) rotate(-21.53)"/><circle class="cls-2" cx="927.6" cy="128.27" r="1.47" transform="translate(17.66 349.43) rotate(-21.53)"/><circle class="cls-2" cx="912.41" cy="167.35" r="1.47" transform="translate(2.26 346.58) rotate(-21.53)"/><circle class="cls-2" cx="918.74" cy="244.48" r="1.47" transform="translate(-25.61 354.29) rotate(-21.53)"/><circle class="cls-2" cx="885.34" cy="262.7" r="1.47" transform="translate(-34.63 343.3) rotate(-21.53)"/><circle class="cls-2" cx="846.77" cy="242.97" r="1.47" transform="matrix(0.93, -0.37, 0.37, 0.93, -30.08, 327.77)"/><circle class="cls-2" cx="877.32" cy="204.9" r="1.47" transform="translate(-13.97 336.32) rotate(-21.53)"/><circle class="cls-2" cx="838.93" cy="231.53" r="1.47" transform="translate(-26.43 324.09) rotate(-21.53)"/><circle class="cls-2" cx="890.74" cy="16.44" r="1.47" transform="translate(56.14 328.09) rotate(-21.53)"/><circle class="cls-2" cx="860.01" cy="69.65" r="2.82" transform="translate(34.46 320.53) rotate(-21.53)"/><path class="cls-2" d="M912.79,46.92h0A2.16,2.16,0,0,1,914.2,51l-.17.06a2.17,2.17,0,0,1-2.63-1.28,2.16,2.16,0,0,1,1.22-2.8l.17-.06m-.52-1.72-.31.11a4,4,0,0,0,2.6,7.48l.31-.11a4,4,0,0,0-2.6-7.48Z"/><path class="cls-2" d="M918,82h0a2.39,2.39,0,0,1,1.57,4.52l-.19.07A2.39,2.39,0,0,1,917.8,82L918,82m-.35-1.15-.29.1a3.6,3.6,0,0,0,2.35,6.79l.29-.1a3.6,3.6,0,0,0-2.35-6.79Z"/><path class="cls-2" d="M789.46,134.7,795,133a.68.68,0,0,0-.39-1.29l-5.58,1.68a.68.68,0,0,0,.39,1.29Z"/><path class="cls-2" d="M790.57,130.62l1.68,5.58a.68.68,0,0,0,1.29-.39l-1.68-5.58a.68.68,0,0,0-1.29.39Z"/><path class="cls-2" d="M866.16,136.2l2.44,3c.54.67,1.69,0,1.14-.72l-2.44-3c-.54-.67-1.69,0-1.14.72Z"/><path class="cls-2" d="M869.12,135.57l-3,2.44c-.67.54,0,1.69.72,1.14l3-2.44c.67-.54,0-1.69-.72-1.14Z"/><path class="cls-2" d="M794.3,96.06h0a.78.78,0,1,1-.21.1.78.78,0,0,1,.21-.1m-.17-.57a1.38,1.38,0,1,0,1.54.55,1.38,1.38,0,0,0-1.54-.55Z"/><path class="cls-2" d="M741.86,96.49l2.83,7.12c.43,1.07,2.15.56,1.72-.52L743.59,96c-.43-1.07-2.15-.56-1.72.52Z"/><path class="cls-2" d="M747.44,97.51l-7.12,2.83c-1.07.43-.56,2.15.52,1.72L748,99.23c1.07-.43.56-2.15-.52-1.72Z"/><path class="cls-2" d="M969.45,215.24,964.34,221c-.77.86.54,2.09,1.32,1.23l5.11-5.71c.77-.86-.54-2.09-1.32-1.23Z"/><path class="cls-2" d="M971,220.6l-5.71-5.11c-.86-.77-2.09.54-1.23,1.32l5.71,5.11c.86.77,2.09-.54,1.23-1.32Z"/><path class="cls-2" d="M982.2,82.81l-5.11,5.71c-.77.86.54,2.09,1.32,1.23L983.52,84c.77-.86-.54-2.09-1.32-1.23Z"/><path class="cls-2" d="M983.77,88.17l-5.71-5.11c-.86-.77-2.09.54-1.23,1.32l5.71,5.11c.86.77,2.09-.54,1.23-1.32Z"/><path class="cls-2" d="M926.33,149.21l-5.11,5.71c-.77.86.54,2.09,1.32,1.23l5.11-5.71c.77-.86-.54-2.09-1.32-1.23Z"/><path class="cls-2" d="M927.9,154.57l-5.71-5.11c-.86-.77-2.09.54-1.23,1.32l5.71,5.11c.86.77,2.09-.54,1.23-1.32Z"/><path class="cls-2" d="M823.63,258l-5.11,5.71c-.77.86.54,2.09,1.32,1.23l5.11-5.71c.77-.86-.54-2.09-1.32-1.23Z"/><path class="cls-2" d="M825.21,263.32l-5.71-5.11c-.86-.77-2.09.54-1.23,1.32l5.71,5.11c.86.77,2.09-.54,1.23-1.32Z"/><path class="cls-2" d="M857.82,192.45l-5.11,5.71c-.77.86.54,2.09,1.32,1.23l5.11-5.71c.77-.86-.54-2.09-1.32-1.23Z"/><path class="cls-2" d="M859.4,197.81l-5.71-5.11c-.86-.77-2.09.54-1.23,1.32l5.71,5.11c.86.77,2.09-.54,1.23-1.32Z"/><path class="cls-2" d="M850.25,46.7l-5.11,5.71c-.77.86.54,2.09,1.32,1.23l5.11-5.71c.77-.86-.54-2.09-1.32-1.23Z"/><path class="cls-2" d="M851.83,52.06,846.11,47c-.86-.77-2.09.54-1.23,1.32l5.71,5.11c.86.77,2.09-.54,1.23-1.32Z"/><path class="cls-2" d="M890.8,80.67l-6.29-5c-.9-.72-2.13.59-1.23,1.32l6.29,5c.9.72,2.13-.59,1.23-1.32Z"/><path class="cls-2" d="M885.18,82.57l5-6.29c.72-.9-.59-2.13-1.32-1.23l-5,6.29c-.72.9.59,2.13,1.32,1.23Z"/><path class="cls-2" d="M791.62,74.51h0a1,1,0,0,1,1.24.6,1,1,0,0,1-.57,1.32l-.08,0a1,1,0,0,1-.67-1.93l.08,0m-.17-.57-.13,0A1.62,1.62,0,0,0,792.38,77l.13,0a1.62,1.62,0,0,0-1.06-3.06Z"/><path class="cls-2" d="M826.66,44.38a8,8,0,1,0-11.46,3.8L808.54,64a1.07,1.07,0,1,0,2,.83L817.17,49A8.06,8.06,0,0,0,826.66,44.38Z"/><path class="cls-2" d="M803.47,143.37a21.59,21.59,0,1,0,26.91,14.44A21.57,21.57,0,0,0,803.47,143.37Zm11.69,38.76a18.89,18.89,0,1,1,12.63-23.54A18.86,18.86,0,0,1,815.16,182.14Z"/><circle class="cls-2" cx="815.64" cy="158.03" r="3.37" transform="translate(-10.89 242.22) rotate(-16.78)"/><circle class="cls-2" cx="801.43" cy="162.31" r="3.37" transform="translate(-12.73 238.3) rotate(-16.78)"/><path class="cls-2" d="M819.22,169.64a1.13,1.13,0,0,0-.79.66,9.58,9.58,0,0,1-5.6,4.09,10,10,0,0,1-6.91-.24,1.29,1.29,0,0,0-1-.18,1.35,1.35,0,0,0-.9,1.68,1.45,1.45,0,0,0,.49.7l.08,0a.93.93,0,0,0,.32.12,12.13,12.13,0,0,0,8.74.47,12.45,12.45,0,0,0,7.2-5.34,1.33,1.33,0,0,0,.11-1A1.37,1.37,0,0,0,819.22,169.64Z"/><path class="cls-2" d="M981.76,123.47c-.74-2.44-5-3.9-10.4-4-.23-5.4-1.78-9.63-4.29-10.28-2.68-.74-6.34,2.47-9.43,7.54-5.37-2.45-10.21-3.16-12-1.07a4.63,4.63,0,0,0-.82,3.33,2.71,2.71,0,0,0-1,3,2.78,2.78,0,0,0,2.47,1.92,27.77,27.77,0,0,0,1.47,2.78c-4.4,3.08-7.2,6.59-6.46,9s5,3.82,10.44,3.93c.25,5.47,1.8,9.69,4.25,10.36s6.32-2.54,9.42-7.61c5.39,2.51,10.27,3.14,12.05,1.13.79-.87,1-2.33.67-4.06a2.69,2.69,0,0,0,1-2.88,2.74,2.74,0,0,0-2.68-1.93c-.34-.67-.7-1.4-1.13-2.11C979.72,129.48,982.5,125.91,981.76,123.47Zm-8.21-1.87c3.68.36,6,1.43,6.28,2.45s-1,3.18-3.88,5.52a19,19,0,0,1-1.78,1.31,35.86,35.86,0,0,0-3.2-4.08,40.53,40.53,0,0,0,.38-5.23A18.87,18.87,0,0,1,973.56,121.59Zm-9,18.13c-.75-.4-1.53-.87-2.3-1.34l1.88-.5a15.17,15.17,0,0,0,1.65-.57C965.37,138.16,965,139,964.58,139.73Zm-1-3.77a34,34,0,0,1-3.59.87c-1-.75-2-1.5-2.95-2.34a33.93,33.93,0,0,1-2.79-2.74,39.33,39.33,0,0,1,.86-4.12,27.83,27.83,0,0,1,1.09-3.35,35.26,35.26,0,0,1,3.54-1.28c1.09-.33,2.27-.61,3.38-.88a27.83,27.83,0,0,1,2.76,2.18,32.4,32.4,0,0,1,3,3c-.23,1.33-.48,2.6-.81,3.82s-.75,2.4-1.17,3.58A22.27,22.27,0,0,1,963.58,136Zm-6.39,1.37c-1.15.14-2.32.21-3.49.28,0-1.06.06-2.12.16-3.2a22.63,22.63,0,0,0,1.84,1.69C956.18,136.51,956.65,136.93,957.2,137.33Zm-4.71-7.48c-.68-.85-1.37-1.76-2-2.63,1-.57,2-1.17,3.06-1.7-.19.55-.37,1.09-.49,1.62Zm8.33-9.1-1.69.44a18.23,18.23,0,0,0-1.84.63c.38-.82.77-1.63,1.22-2.47C959.19,119.76,960,120.21,960.82,120.74Zm5,1.08c1.22-.16,2.39-.23,3.56-.3a28.71,28.71,0,0,1-.2,3.29,26.67,26.67,0,0,0-2-1.86C966.76,122.52,966.3,122.17,965.84,121.82Zm4.13,10a22.63,22.63,0,0,0,.6-2.42,28.12,28.12,0,0,1,1.92,2.65c-1,.57-2,1.17-3.06,1.7C969.57,133,969.8,132.4,970,131.79Zm-3.44-20.7c1,.26,2.09,2.52,2.58,6.23.07.68.15,1.43.15,2.13a47.81,47.81,0,0,0-5.77.62,32.77,32.77,0,0,0-4.11-2.48,28.79,28.79,0,0,1,1.71-2.48C963.44,112.23,965.54,110.83,966.53,111.09Zm-18.11,12.47-.2-.43a2.78,2.78,0,0,0,.78-2.76,2.72,2.72,0,0,0-2.11-1.89,2.68,2.68,0,0,1,.3-1.56c.68-.77,3.21-.76,6.72.43a28.79,28.79,0,0,1,2.79,1.12,28.18,28.18,0,0,0-2,4.4,36.48,36.48,0,0,0-5.09,2.66A10.55,10.55,0,0,1,948.42,123.57Zm1.19,13.94c-3.75-.34-6.12-1.45-6.41-2.41s1.09-3.13,3.94-5.54c.5-.43,1.09-.82,1.65-1.27a40.53,40.53,0,0,0,3.21,4.15,47.79,47.79,0,0,0-.4,5.17Zm6.9,10.54c-1-.26-2.11-2.59-2.6-6.3-.07-.68-.15-1.43-.15-2.13a49.3,49.3,0,0,0,5.71-.6,32.77,32.77,0,0,0,4.11,2.48,26.94,26.94,0,0,1-1.66,2.39C959.66,146.89,957.49,148.32,956.5,148.05Zm18-12.58a2.71,2.71,0,0,0-.61,2.64,2.65,2.65,0,0,0,2.24,1.85,2.82,2.82,0,0,1-.25,2.18c-.68.77-3.27.78-6.8-.47a26.94,26.94,0,0,1-2.71-1.08,41,41,0,0,0,2-4.32,39,39,0,0,0,5.15-2.68A15.93,15.93,0,0,1,974.52,135.47Z"/><path class="cls-2" d="M943.65,54.06s-5.17,16.92-3.6,22.12a9.83,9.83,0,0,0,18.83-5.68C957.32,65.3,943.65,54.06,943.65,54.06Z"/><path class="cls-2" d="M789.82,213.88a10.6,10.6,0,0,0,1,14.91l15.88,13.95,5.67-6.45,6.45,5.67a2,2,0,0,0,2.8-.18,2,2,0,0,0-.18-2.8l-6.45-5.67,5.67-6.45-15.88-13.95A10.6,10.6,0,0,0,789.82,213.88Zm27.06,13.22L806.42,239l-13.89-12.2A7.93,7.93,0,1,1,803,214.9Z"/><path class="cls-2" d="M914.23,108.86,889.3,99.34c-2.55,6.66-1.78,13.47,1.48,17.66l9.88,3.77a15,15,0,0,0,7.12-3.69l-.41.38,3.12,1.19a5.24,5.24,0,0,0,3.74-9.79Zm-13.37,9.85L892,115.32c-2.28-3.27-2.86-8.3-1.46-13.37l20.32,7.76C908.53,114.42,904.73,117.78,900.86,118.71Zm10.35-1.92-2.24-.85,0,0a22,22,0,0,0,4-6,1.38,1.38,0,0,1-.21.4l.79.3a3.24,3.24,0,1,1-2.31,6.06Zm-11.57-15.42a2.79,2.79,0,0,0,2.69-2.28,25.65,25.65,0,0,1,.56-3.58,13.88,13.88,0,0,1,.89-2.33,18.84,18.84,0,0,1,2-3s-3.53.31-4.63,3.46a11.65,11.65,0,0,0-.37,4.88A2.77,2.77,0,0,1,899.63,101.36Zm3.65.22a1.7,1.7,0,0,0,1.67-1.44,17.07,17.07,0,0,1,.33-2.28,17.29,17.29,0,0,1,1.84-3.41,3.56,3.56,0,0,0-2.94,2.24,7.73,7.73,0,0,0-.23,3.12A1.65,1.65,0,0,1,903.28,101.58Z"/><path class="cls-2" d="M785.19,107.45,763,102.72a.43.43,0,0,0-.51.36l-2.86,23.28a.69.69,0,0,0,.34.63l8.08,4.21a1.43,1.43,0,0,0,.82.18l9.15-.59a.67.67,0,0,0,.57-.48L785.5,108A.43.43,0,0,0,785.19,107.45Zm-5.28,5.23-.17.61c-.09.24-.16.57-.25.76a1.59,1.59,0,0,1-.11.32l-10.6-2.26a.43.43,0,0,0-.51.36l-.24,2.14a.54.54,0,0,0,.4.56l9.7,2.07a.39.39,0,0,1,.28.49,6.32,6.32,0,0,1-.26.8l-2.06,6.65a4.58,4.58,0,0,0-.19.69c0,.12-.27.24-.53.27l-5.38.23-.44,0a2.72,2.72,0,0,1-.38-.21l-4.79-2.52A.67.67,0,0,1,764,123l.46-3.77a.41.41,0,0,1,.51-.36l2,.43a.54.54,0,0,1,.4.56l-.18,1.46a.69.69,0,0,0,.34.63l2.24,1.17.38.21a2.72,2.72,0,0,0,.44,0l2.52-.15a.67.67,0,0,0,.57-.44l.87-2.87a.41.41,0,0,0-.31-.54l-9.13-1.94a.54.54,0,0,1-.4-.56l.91-7.28c0-.26.09-.63.09-.84a.42.42,0,0,1,.5-.32l13.65,2.91a.4.4,0,0,1,.32.5C780.12,112.09,780,112.45,779.9,112.69Z"/><path class="cls-2" d="M745.54,54a7.45,7.45,0,0,0,.68,10.48l11.16,9.8,4-4.53,4.53,4a1.4,1.4,0,0,0,2-.13,1.37,1.37,0,0,0-.13-2l-4.53-4,4-4.53L756,53.31A7.45,7.45,0,0,0,745.54,54Zm19,9.29-7.35,8.37-9.76-8.58a5.57,5.57,0,1,1,7.35-8.37Z"/><path class="cls-2" d="M838.94,81.66a4.92,4.92,0,0,0-1,1.4,3.89,3.89,0,0,0-4.16.71,4,4,0,0,0-1.09,1.72v.09h-.09a5.17,5.17,0,0,0-5,1.19A5.69,5.69,0,0,0,826.17,89l-.23,1.1L825,90a4.36,4.36,0,0,0-3.11,1.17,4.56,4.56,0,0,0-.26,6.48l.27.29.27.2-.29.27a5.28,5.28,0,0,0,.38,6.69,8.36,8.36,0,0,0,.94.92l0,0,21.37,18.63a.76.76,0,0,0,1,0L863,108.51a.67.67,0,0,0,.09-1L846.85,85.6a5.5,5.5,0,0,0-1.43-3.68A4.56,4.56,0,0,0,838.94,81.66Zm-14.79,21.67a2.8,2.8,0,0,1-.72-1.75,2.51,2.51,0,0,1,.63-1.74s1.89-.76,1.75-2.06-2.07-1.66-2.07-1.66l-.22-.24a2,2,0,0,1,.11-2.78,2,2,0,0,1,1.78-.48l.73.31.93,1a1.64,1.64,0,1,0,2.41-2.22l-1-1.06.06-.32a2.62,2.62,0,0,1,.81-1.64,3,3,0,0,1,1.19-.65,2.63,2.63,0,0,1,1.34,0s1.67,2.39,3.06,1.28.17-3.1.17-3.1a1.94,1.94,0,0,1,.39-.54,1.32,1.32,0,0,1,.66-.34,1.17,1.17,0,0,1,.69.07s1.77,2.11,3.07.91l.32-2.17a2.36,2.36,0,0,1,.44-.59,1.93,1.93,0,0,1,2.78.11c.71.77,1.06,2.41.43,3.17l-18.84,17.37A7.17,7.17,0,0,1,824.15,103.32Zm23,5.57a3.93,3.93,0,1,1,.22-5.56A3.94,3.94,0,0,1,847.12,108.89ZM827.06,106l8.43-7.78,3.64,4a6.56,6.56,0,0,0,8.71,9.44l3.64,4-6.55,6ZM860,107.74l-6.55,6-3.64-4a6.56,6.56,0,0,0-8.71-9.44l-3.64-4,8.43-7.78Z"/><polygon class="cls-2" points="788.66 246.74 786.91 248.2 786.15 250.35 784.22 249.14 781.95 249.08 782.5 246.87 781.85 244.69 784.12 244.53 786 243.24 786.85 245.35 788.66 246.74"/><polygon class="cls-2" points="835.49 210.66 833.74 212.12 832.98 214.28 831.05 213.06 828.77 213.01 829.33 210.8 828.68 208.61 830.95 208.46 832.83 207.16 833.68 209.28 835.49 210.66"/><polygon class="cls-2" points="907.33 209.7 905.58 211.16 904.83 213.31 902.9 212.1 900.62 212.04 901.17 209.83 900.52 207.65 902.8 207.49 904.67 206.2 905.52 208.31 907.33 209.7"/><polygon class="cls-2" points="768.25 176.99 766.51 178.46 765.75 180.61 763.82 179.39 761.54 179.34 762.1 177.13 761.44 174.94 763.72 174.79 765.59 173.49 766.44 175.61 768.25 176.99"/><polygon class="cls-2" points="970.21 170.66 968.46 172.13 967.7 174.28 965.77 173.06 963.49 173.01 964.05 170.8 963.39 168.62 965.67 168.46 967.54 167.17 968.39 169.28 970.21 170.66"/><polygon class="cls-2" points="862.88 261.99 861.14 263.45 860.38 265.6 858.45 264.39 856.17 264.34 856.73 262.13 856.07 259.94 858.35 259.79 860.22 258.49 861.07 260.61 862.88 261.99"/><path class="cls-2" d="M871.22,230.57l2.8,1.08-1.91,5c.11,0,.19,0,.31-.14l5.18-5a.35.35,0,0,0-.14-.63l-2.8-1.08,1.91-5c-.11,0-.19,0-.31.14l-5.18,5A.35.35,0,0,0,871.22,230.57Zm22.38,3.7-1.12-.43,1.51-3.92a1.77,1.77,0,0,0-1-2.33l-30.84-11.83a1.77,1.77,0,0,0-2.33,1l-5.59,14.58a1.77,1.77,0,0,0,1,2.33l30.84,11.83a1.77,1.77,0,0,0,2.33-1l1.51-3.92L891,241a.57.57,0,0,0,.78-.35l2.15-5.61A.65.65,0,0,0,893.6,234.27Zm-7.24,8.8-29.72-11.4,5.16-13.46,29.72,11.4Z"/><path class="cls-2" d="M944.37,201.25l-2.6-8.62a3,3,0,0,0-5.75,1.73l.87,2.87a12.76,12.76,0,0,0-10.35,3.12l-.87-2.87a3,3,0,0,0-5.75,1.73l2.6,8.62a12.5,12.5,0,0,0,.41,5.52l5.37,17.82a2.41,2.41,0,0,0,3,1.61l19.55-5.9a2.41,2.41,0,0,0,1.61-3l-5.37-17.82A12.5,12.5,0,0,0,944.37,201.25Zm-6.63-7.41a1.2,1.2,0,0,1,2.3-.69l1.8,6a11.7,11.7,0,0,0-2.92-1.38Zm-16.1,4.85a1.2,1.2,0,0,1,2.3-.69l1.18,3.91a13.73,13.73,0,0,0-1.68,2.76Zm29.09,25.73a.57.57,0,0,1-.4.75l-19.55,5.9a.6.6,0,0,1-.75-.4l-.35-1.15,20.7-6.24Zm-.87-2.87-20.7,6.24-4.51-14.95a10.82,10.82,0,0,1,1.21-8.89l.4-.56.28-.33.41-.5a10.68,10.68,0,0,1,4.94-3.18,10.89,10.89,0,0,1,5.93-.09l.62.19.43.18.56.21a10.72,10.72,0,0,1,5.92,6.74Zm-17.46-20.45a9,9,0,0,0-6,11.23l1.72-.52a7.21,7.21,0,0,1,13.8-4.16l1.72-.52A9,9,0,0,0,932.41,201.09Zm10.28,9.13a.9.9,0,1,0,1.72-.52l-.43-1.44-1.72.52Zm0,2.19-12.65,3.81a2.41,2.41,0,0,0-1.61,3l1.21,4a2.41,2.41,0,0,0,3,1.61L945.32,221a2.41,2.41,0,0,0,1.61-3l-1.21-4A2.41,2.41,0,0,0,942.72,212.41Zm2.48,6.15a.57.57,0,0,1-.4.75l-12.65,3.81a.57.57,0,0,1-.75-.4l-1.21-4a.57.57,0,0,1,.4-.75l12.65-3.81a.57.57,0,0,1,.75.4Z"/><path class="cls-2" d="M995.74,198.18a14.05,14.05,0,0,0-5.65-18.74s-.05,0-.1,0l-.66-.35-.05,0-.74-.33-.05,0a14.14,14.14,0,0,0-16.88,5.09,11.51,11.51,0,0,0-.92,1.52,13.86,13.86,0,0,0-1,10.51,14.11,14.11,0,0,0,25.13,3.93l0-.05.44-.68,0-.05.35-.66Zm-24.05-2,6.67-2a12.39,12.39,0,0,1-1.09,8.43A12.39,12.39,0,0,1,971.69,196.13Zm17.47-15.21a12.39,12.39,0,0,1,5.57,6.42l-6.67,2A12.39,12.39,0,0,1,989.16,180.92Zm-2.78,8.94-2.57.78-3.3-10.93a12.4,12.4,0,0,1,7.06.5A13.82,13.82,0,0,0,986.38,189.86Zm-4.26,1.29-2.57.78a14,14,0,0,0-6.33-7.39,12.4,12.4,0,0,1,5.6-4.31Zm-4.26,1.29-6.67,2a12.39,12.39,0,0,1,1.09-8.43A12.39,12.39,0,0,1,977.85,192.43Zm2.2,1.18,2.57-.78,3.3,10.93a12.4,12.4,0,0,1-7.06-.5A14.15,14.15,0,0,0,980,193.61Zm4.26-1.29,2.57-.78a14,14,0,0,0,6.33,7.39,12.4,12.4,0,0,1-5.6,4.31Zm4.26-1.29,6.67-2a12.39,12.39,0,0,1-1.09,8.43A12.39,12.39,0,0,1,988.57,191Z"/><path class="cls-2" d="M949.64,4.87,915.15,0a1.77,1.77,0,0,0-2,1.53l-3,21.41a1.77,1.77,0,0,0,1.53,2l34.49,4.85a1.77,1.77,0,0,0,2-1.53l3-21.41A1.77,1.77,0,0,0,949.64,4.87Zm-3.77,22.52-33.3-4.68,2.84-20.22,33.3,4.68ZM935.69,30.8l-14.27-2a1.2,1.2,0,0,0-.33,2.38l14.27,2a1.2,1.2,0,1,0,.33-2.38Z"/><path class="cls-2" d="M880.54,40.25l-6.81-5.53a1.2,1.2,0,0,0-.18-1.69l-1.86-1.51a1.2,1.2,0,0,0-1.69.18l-6.06,7.46a1.2,1.2,0,0,0,.18,1.69L866,42.36a1.2,1.2,0,0,0,1.69-.18l6.81,5.53a12.61,12.61,0,1,0,6.06-7.46Zm-14.82-.43,5.3-6.53.93.76-5.3,6.53Zm28.76,17.94a10.2,10.2,0,0,1-17.13-10.82l-8.16-6.63,3-3.73,8.16,6.63a10.2,10.2,0,0,1,14.1,14.55Zm-6.1-14.4-9.24,11.37a8.74,8.74,0,0,0,2.58,3.49c3.26,2.65,8.45,2,11.36-1.6s2.5-8.8-.76-11.45A8.74,8.74,0,0,0,888.37,43.36Z"/></g><g class="cls-1"><path class="cls-2" d="M90.62,75h0a.78.78,0,1,1-.27.14.78.78,0,0,1,.27-.14m-.17-.57a1.38,1.38,0,1,0,1.47.45,1.38,1.38,0,0,0-1.47-.45Z"/><path class="cls-2" d="M85.38,85.54,88,83.78c.24-.16,0-.55-.24-.38l-2.58,1.76c-.24.16,0,.55.24.38Z"/><path class="cls-2" d="M85.48,83.3l1.76,2.58c.16.24.55,0,.38-.24l-1.76-2.58c-.16-.24-.55,0-.38.24Z"/><path class="cls-2" d="M172.56,155.36c-2.42-8-12.5-12-22.56-9s-16.23,12-13.82,20,12.5,12,22.56,9c1.82-.55,12.7,4.48,14.23,3.58,1.32-.77-4.79-9.1-4.38-9.59C172.35,165.34,174,160.19,172.56,155.36Zm-6,15.34c.16.32.32.65.59,1.13a12.28,12.28,0,0,0,.75,1.26c.09.1.64,1.11.86,1.41l.41.74c.14.27.27.48.39.69-.75-.21-1.64-.5-2.88-.93-.07,0-.07,0-.13,0-6-2.09-6.92-2.38-8.45-1.92-8.87,2.67-17.61-.83-19.6-7.42s3.36-14.35,12.23-17,17.61.83,19.6,7.42c1.15,3.81-.09,8.15-3.42,11.7a2.39,2.39,0,0,0-.66,1.5,2.35,2.35,0,0,0,.31,1.46Z"/><circle class="cls-2" cx="12.34" cy="123.24" r="1.8" transform="translate(-35.06 8.81) rotate(-16.78)"/><circle class="cls-2" cx="21.29" cy="148.77" r="1.8" transform="translate(-42.05 12.48) rotate(-16.78)"/><circle class="cls-2" cx="114.11" cy="149.74" r="1.9" transform="translate(-41.9 44.37) rotate(-18.66)"/><path class="cls-2" d="M47,199.23a1.34,1.34,0,0,1,.92,2.51l-.15.05a1.34,1.34,0,0,1-.92-2.51l.15-.05m-.35-1.15-.28.1a2.54,2.54,0,0,0,1.74,4.76l.28-.1a2.54,2.54,0,0,0-1.74-4.76Z"/><path class="cls-2" d="M81.55,124.46l-1.7-2c-.19-.22-.49.11-.31.33l1.7,2c.19.22.49-.11.31-.33Z"/><path class="cls-2" d="M79.72,124.63l2-1.7c.22-.19-.11-.49-.33-.31l-2,1.7c-.22.19.11.49.33.31Z"/><path class="cls-2" d="M281.55,184.32h0A2.16,2.16,0,0,1,283,188.4l-.17.06a2.17,2.17,0,0,1-2.63-1.28,2.16,2.16,0,0,1,1.22-2.8l.17-.06m-.52-1.72-.31.11a4,4,0,0,0,2.6,7.48l.31-.11a4,4,0,0,0-2.6-7.48Z"/><path class="cls-2" d="M272,132h0a2.16,2.16,0,0,1,1.41,4.08l-.17.06a2.17,2.17,0,0,1-2.63-1.28,2.16,2.16,0,0,1,1.22-2.8L272,132m-.52-1.72-.31.11a4,4,0,0,0,2.6,7.48l.31-.11a4,4,0,0,0-2.6-7.48Z"/><path class="cls-2" d="M212.68,168.08h0a2.16,2.16,0,0,1,1.41,4.08l-.17.06a2.17,2.17,0,0,1-2.63-1.28,2.16,2.16,0,0,1,1.22-2.8l.17-.06m-.52-1.72-.31.11a4,4,0,0,0,2.6,7.48l.31-.11a4,4,0,0,0-2.6-7.48Z"/><path class="cls-2" d="M203.46,243.62h0a2.16,2.16,0,0,1,1.41,4.08l-.17.06a2.17,2.17,0,0,1-2.63-1.28,2.16,2.16,0,0,1,1.22-2.8l.17-.06m-.52-1.72-.31.11a4,4,0,0,0,2.6,7.48l.31-.11a4,4,0,0,0-2.6-7.48Z"/><path class="cls-2" d="M172.54,261.72h0a2.16,2.16,0,0,1,1.41,4.08l-.17.06a2.17,2.17,0,0,1-2.63-1.28,2.16,2.16,0,0,1,1.22-2.8l.17-.06M172,260l-.31.11a4,4,0,0,0,2.6,7.48l.31-.11A4,4,0,0,0,172,260Z"/><path class="cls-2" d="M76.54,263.7h0A2.16,2.16,0,0,1,78,267.78l-.17.06a2.17,2.17,0,0,1-2.63-1.28,2.16,2.16,0,0,1,1.22-2.8l.17-.06M76,262l-.31.11a4,4,0,0,0,2.6,7.48l.31-.11A4,4,0,0,0,76,262Z"/><path class="cls-2" d="M99.79,188.95h0A2.16,2.16,0,0,1,101.2,193l-.17.06a2.17,2.17,0,0,1-2.63-1.28,2.16,2.16,0,0,1,1.22-2.8l.17-.06m-.52-1.72-.31.11a4,4,0,0,0,2.6,7.48l.31-.11a4,4,0,0,0-2.6-7.48Z"/><circle class="cls-2" cx="4.39" cy="80.7" r="4.39" transform="translate(-29.31 7.24) rotate(-21.53)"/><circle class="cls-2" cx="295.13" cy="203.31" r="1.47" transform="translate(-54.03 122.52) rotate(-21.53)"/><circle class="cls-2" cx="272.4" cy="154.97" r="1.47" transform="matrix(0.93, -0.37, 0.37, 0.93, -37.87, 110.8)"/><circle class="cls-2" cx="206.57" cy="98.92" r="1.47" transform="translate(-21.89 82.72) rotate(-21.53)"/><circle class="cls-2" cx="196.6" cy="128.27" r="1.47" transform="translate(-33.36 81.12) rotate(-21.53)"/><circle class="cls-2" cx="181.41" cy="167.35" r="1.47" transform="translate(-48.76 78.27) rotate(-21.53)"/><circle class="cls-2" cx="187.74" cy="244.48" r="1.47" transform="translate(-76.63 85.97) rotate(-21.53)"/><circle class="cls-2" cx="154.34" cy="262.7" r="1.47" transform="translate(-85.65 74.99) rotate(-21.53)"/><circle class="cls-2" cx="115.77" cy="242.97" r="1.47" transform="matrix(0.93, -0.37, 0.37, 0.93, -81.1, 59.45)"/><circle class="cls-2" cx="146.32" cy="204.9" r="1.47" transform="translate(-65 68.01) rotate(-21.53)"/><circle class="cls-2" cx="107.93" cy="231.53" r="1.47" transform="translate(-77.45 55.78) rotate(-21.53)"/><circle class="cls-2" cx="159.74" cy="16.44" r="1.47" transform="translate(5.12 59.78) rotate(-21.53)"/><circle class="cls-2" cx="129.01" cy="69.65" r="2.82" transform="translate(-16.56 52.21) rotate(-21.53)"/><path class="cls-2" d="M181.79,46.92h0A2.16,2.16,0,0,1,183.2,51l-.17.06a2.17,2.17,0,0,1-2.63-1.28,2.16,2.16,0,0,1,1.22-2.8l.17-.06m-.52-1.72-.31.11a4,4,0,0,0,2.6,7.48l.31-.11a4,4,0,0,0-2.6-7.48Z"/><path class="cls-2" d="M187,82h0a2.39,2.39,0,0,1,1.57,4.52l-.19.07A2.39,2.39,0,0,1,186.8,82L187,82m-.35-1.15-.29.1a3.6,3.6,0,0,0,2.35,6.79l.29-.1a3.6,3.6,0,0,0-2.35-6.79Z"/><path class="cls-2" d="M58.46,134.7,64,133a.68.68,0,0,0-.39-1.29l-5.58,1.68a.68.68,0,0,0,.39,1.29Z"/><path class="cls-2" d="M59.57,130.62l1.68,5.58a.68.68,0,0,0,1.29-.39l-1.68-5.58a.68.68,0,0,0-1.29.39Z"/><path class="cls-2" d="M135.16,136.2l2.44,3c.54.67,1.69,0,1.14-.72l-2.44-3c-.54-.67-1.69,0-1.14.72Z"/><path class="cls-2" d="M138.12,135.57l-3,2.44c-.67.54,0,1.69.72,1.14l3-2.44c.67-.54,0-1.69-.72-1.14Z"/><path class="cls-2" d="M63.3,96.06h0a.78.78,0,1,1-.21.1.78.78,0,0,1,.21-.1m-.17-.57a1.38,1.38,0,1,0,1.54.55,1.38,1.38,0,0,0-1.54-.55Z"/><path class="cls-2" d="M10.86,96.49l2.83,7.12c.43,1.07,2.15.56,1.72-.52L12.59,96c-.43-1.07-2.15-.56-1.72.52Z"/><path class="cls-2" d="M16.44,97.51l-7.12,2.83c-1.07.43-.56,2.15.52,1.72L17,99.23c1.07-.43.56-2.15-.52-1.72Z"/><path class="cls-2" d="M238.45,215.24,233.34,221c-.77.86.54,2.09,1.32,1.23l5.11-5.71c.77-.86-.54-2.09-1.32-1.23Z"/><path class="cls-2" d="M240,220.6l-5.71-5.11c-.86-.77-2.09.54-1.23,1.32l5.71,5.11c.86.77,2.09-.54,1.23-1.32Z"/><path class="cls-2" d="M251.2,82.81l-5.11,5.71c-.77.86.54,2.09,1.32,1.23L252.52,84c.77-.86-.54-2.09-1.32-1.23Z"/><path class="cls-2" d="M252.77,88.17l-5.71-5.11c-.86-.77-2.09.54-1.23,1.32l5.71,5.11c.86.77,2.09-.54,1.23-1.32Z"/><path class="cls-2" d="M195.33,149.21l-5.11,5.71c-.77.86.54,2.09,1.32,1.23l5.11-5.71c.77-.86-.54-2.09-1.32-1.23Z"/><path class="cls-2" d="M196.9,154.57l-5.71-5.11c-.86-.77-2.09.54-1.23,1.32l5.71,5.11c.86.77,2.09-.54,1.23-1.32Z"/><path class="cls-2" d="M92.63,258l-5.11,5.71c-.77.86.54,2.09,1.32,1.23L94,259.18c.77-.86-.54-2.09-1.32-1.23Z"/><path class="cls-2" d="M94.21,263.32l-5.71-5.11c-.86-.77-2.09.54-1.23,1.32L93,264.64c.86.77,2.09-.54,1.23-1.32Z"/><path class="cls-2" d="M126.82,192.45l-5.11,5.71c-.77.86.54,2.09,1.32,1.23l5.11-5.71c.77-.86-.54-2.09-1.32-1.23Z"/><path class="cls-2" d="M128.4,197.81l-5.71-5.11c-.86-.77-2.09.54-1.23,1.32l5.71,5.11c.86.77,2.09-.54,1.23-1.32Z"/><path class="cls-2" d="M119.25,46.7l-5.11,5.71c-.77.86.54,2.09,1.32,1.23l5.11-5.71c.77-.86-.54-2.09-1.32-1.23Z"/><path class="cls-2" d="M120.83,52.06,115.11,47c-.86-.77-2.09.54-1.23,1.32l5.71,5.11c.86.77,2.09-.54,1.23-1.32Z"/><path class="cls-2" d="M159.8,80.67l-6.29-5c-.9-.72-2.13.59-1.23,1.32l6.29,5c.9.72,2.13-.59,1.23-1.32Z"/><path class="cls-2" d="M154.18,82.57l5-6.29c.72-.9-.59-2.13-1.32-1.23l-5,6.29c-.72.9.59,2.13,1.32,1.23Z"/><path class="cls-2" d="M60.62,74.51h0a1,1,0,0,1,1.24.6,1,1,0,0,1-.57,1.32l-.08,0a1,1,0,0,1-.67-1.93l.08,0m-.17-.57-.13,0A1.62,1.62,0,0,0,61.38,77l.13,0a1.62,1.62,0,0,0-1.06-3.06Z"/><path class="cls-2" d="M95.66,44.38a8,8,0,1,0-11.46,3.8L77.54,64a1.07,1.07,0,0,0,2,.83L86.17,49A8.06,8.06,0,0,0,95.66,44.38Z"/><path class="cls-2" d="M72.47,143.37a21.59,21.59,0,1,0,26.91,14.44A21.57,21.57,0,0,0,72.47,143.37Zm11.69,38.76A18.89,18.89,0,1,1,96.8,158.59,18.86,18.86,0,0,1,84.16,182.14Z"/><circle class="cls-2" cx="84.64" cy="158.03" r="3.37" transform="translate(-42.02 31.17) rotate(-16.78)"/><circle class="cls-2" cx="70.43" cy="162.31" r="3.37" transform="translate(-43.86 27.25) rotate(-16.78)"/><path class="cls-2" d="M88.22,169.64a1.13,1.13,0,0,0-.79.66,9.58,9.58,0,0,1-5.6,4.09,10,10,0,0,1-6.91-.24,1.29,1.29,0,0,0-1-.18,1.35,1.35,0,0,0-.9,1.68,1.45,1.45,0,0,0,.49.7l.08,0a.93.93,0,0,0,.32.12,12.13,12.13,0,0,0,8.74.47,12.45,12.45,0,0,0,7.2-5.34,1.33,1.33,0,0,0,.11-1A1.37,1.37,0,0,0,88.22,169.64Z"/><path class="cls-2" d="M250.76,123.47c-.74-2.44-5-3.9-10.4-4-.23-5.4-1.78-9.63-4.29-10.28-2.68-.74-6.34,2.47-9.43,7.54-5.37-2.45-10.21-3.16-12-1.07a4.63,4.63,0,0,0-.82,3.33,2.71,2.71,0,0,0-1,3,2.78,2.78,0,0,0,2.47,1.92,27.77,27.77,0,0,0,1.47,2.78c-4.4,3.08-7.2,6.59-6.46,9s5,3.82,10.44,3.93c.25,5.47,1.8,9.69,4.25,10.36s6.32-2.54,9.42-7.61c5.39,2.51,10.27,3.14,12.05,1.13.79-.87,1-2.33.67-4.06a2.69,2.69,0,0,0,1-2.88,2.74,2.74,0,0,0-2.68-1.93c-.34-.67-.7-1.4-1.13-2.11C248.72,129.48,251.5,125.91,250.76,123.47Zm-8.21-1.87c3.68.36,6,1.43,6.28,2.45s-1,3.18-3.88,5.52a19,19,0,0,1-1.78,1.31,35.86,35.86,0,0,0-3.2-4.08,40.53,40.53,0,0,0,.38-5.23A18.87,18.87,0,0,1,242.56,121.59Zm-9,18.13c-.75-.4-1.53-.87-2.3-1.34l1.88-.5a15.17,15.17,0,0,0,1.65-.57C234.37,138.16,234,139,233.58,139.73Zm-1-3.77a34,34,0,0,1-3.59.87c-1-.75-2-1.5-2.95-2.34a33.93,33.93,0,0,1-2.79-2.74,39.33,39.33,0,0,1,.86-4.12,27.83,27.83,0,0,1,1.09-3.35,35.26,35.26,0,0,1,3.54-1.28c1.09-.33,2.27-.61,3.38-.88a27.83,27.83,0,0,1,2.76,2.18,32.4,32.4,0,0,1,3,3c-.23,1.33-.48,2.6-.81,3.82s-.75,2.4-1.17,3.58A22.27,22.27,0,0,1,232.58,136Zm-6.39,1.37c-1.15.14-2.32.21-3.49.28,0-1.06.06-2.12.16-3.2a22.63,22.63,0,0,0,1.84,1.69C225.18,136.51,225.65,136.93,226.2,137.33Zm-4.71-7.48c-.68-.85-1.37-1.76-2-2.63,1-.57,2-1.17,3.06-1.7-.19.55-.37,1.09-.49,1.62Zm8.33-9.1-1.69.44a18.23,18.23,0,0,0-1.84.63c.38-.82.77-1.63,1.22-2.47C228.19,119.76,229,120.21,229.82,120.74Zm5,1.08c1.22-.16,2.39-.23,3.56-.3a28.71,28.71,0,0,1-.2,3.29,26.67,26.67,0,0,0-2-1.86C235.76,122.52,235.3,122.17,234.84,121.82Zm4.13,10a22.63,22.63,0,0,0,.6-2.42,28.12,28.12,0,0,1,1.92,2.65c-1,.57-2,1.17-3.06,1.7C238.57,133,238.8,132.4,239,131.79Zm-3.44-20.7c1,.26,2.09,2.52,2.58,6.23.07.68.15,1.43.15,2.13a47.81,47.81,0,0,0-5.77.62,32.77,32.77,0,0,0-4.11-2.48,28.79,28.79,0,0,1,1.71-2.48C232.44,112.23,234.54,110.83,235.53,111.09Zm-18.11,12.47-.2-.43a2.78,2.78,0,0,0,.78-2.76,2.72,2.72,0,0,0-2.11-1.89,2.68,2.68,0,0,1,.3-1.56c.68-.77,3.21-.76,6.72.43a28.79,28.79,0,0,1,2.79,1.12,28.18,28.18,0,0,0-2,4.4,36.48,36.48,0,0,0-5.09,2.66A10.55,10.55,0,0,1,217.42,123.57Zm1.19,13.94c-3.75-.34-6.12-1.45-6.41-2.41s1.09-3.13,3.94-5.54c.5-.43,1.09-.82,1.65-1.27a40.53,40.53,0,0,0,3.21,4.15,47.79,47.79,0,0,0-.4,5.17Zm6.9,10.54c-1-.26-2.11-2.59-2.6-6.3-.07-.68-.15-1.43-.15-2.13a49.3,49.3,0,0,0,5.71-.6,32.77,32.77,0,0,0,4.11,2.48,26.94,26.94,0,0,1-1.66,2.39C228.66,146.89,226.49,148.32,225.5,148.05Zm18-12.58a2.71,2.71,0,0,0-.61,2.64,2.65,2.65,0,0,0,2.24,1.85,2.82,2.82,0,0,1-.25,2.18c-.68.77-3.27.78-6.8-.47a26.94,26.94,0,0,1-2.71-1.08,41,41,0,0,0,2-4.32,39,39,0,0,0,5.15-2.68A15.93,15.93,0,0,1,243.52,135.47Z"/><path class="cls-2" d="M212.65,54.06s-5.17,16.92-3.6,22.12a9.83,9.83,0,0,0,18.83-5.68C226.32,65.3,212.65,54.06,212.65,54.06Z"/><path class="cls-2" d="M58.82,213.88a10.6,10.6,0,0,0,1,14.91l15.88,13.95,5.67-6.45L87.78,242a2,2,0,0,0,2.8-.18,2,2,0,0,0-.18-2.8l-6.45-5.67,5.67-6.45L73.74,212.92A10.6,10.6,0,0,0,58.82,213.88Zm27.06,13.22L75.42,239l-13.89-12.2A7.93,7.93,0,1,1,72,214.9Z"/><path class="cls-2" d="M183.23,108.86,158.3,99.34c-2.55,6.66-1.78,13.47,1.48,17.66l9.88,3.77a15,15,0,0,0,7.12-3.69l-.41.38,3.12,1.19a5.24,5.24,0,0,0,3.74-9.79Zm-13.37,9.85L161,115.32c-2.28-3.27-2.86-8.3-1.46-13.37l20.32,7.76C177.53,114.42,173.73,117.78,169.86,118.71Zm10.35-1.92-2.24-.85,0,0a22,22,0,0,0,4-6,1.38,1.38,0,0,1-.21.4l.79.3a3.24,3.24,0,1,1-2.31,6.06Zm-11.57-15.42a2.79,2.79,0,0,0,2.69-2.28,25.65,25.65,0,0,1,.56-3.58,13.88,13.88,0,0,1,.89-2.33,18.84,18.84,0,0,1,2-3s-3.53.31-4.63,3.46a11.65,11.65,0,0,0-.37,4.88A2.77,2.77,0,0,1,168.63,101.36Zm3.65.22a1.7,1.7,0,0,0,1.67-1.44,17.07,17.07,0,0,1,.33-2.28,17.29,17.29,0,0,1,1.84-3.41,3.56,3.56,0,0,0-2.94,2.24,7.73,7.73,0,0,0-.23,3.12A1.65,1.65,0,0,1,172.28,101.58Z"/><path class="cls-2" d="M54.19,107.45,32,102.72a.43.43,0,0,0-.51.36l-2.86,23.28A.69.69,0,0,0,29,127L37,131.21a1.43,1.43,0,0,0,.82.18L47,130.8a.67.67,0,0,0,.57-.48L54.5,108A.43.43,0,0,0,54.19,107.45Zm-5.28,5.23-.17.61c-.09.24-.16.57-.25.76a1.59,1.59,0,0,1-.11.32l-10.6-2.26a.43.43,0,0,0-.51.36L37,114.62a.54.54,0,0,0,.4.56l9.7,2.07a.39.39,0,0,1,.28.49,6.32,6.32,0,0,1-.26.8l-2.06,6.65a4.58,4.58,0,0,0-.19.69c0,.12-.27.24-.53.27l-5.38.23-.44,0a2.72,2.72,0,0,1-.38-.21l-4.79-2.52A.67.67,0,0,1,33,123l.46-3.77a.41.41,0,0,1,.51-.36l2,.43a.54.54,0,0,1,.4.56l-.18,1.46a.69.69,0,0,0,.34.63l2.24,1.17.38.21a2.72,2.72,0,0,0,.44,0l2.52-.15a.67.67,0,0,0,.57-.44l.87-2.87a.41.41,0,0,0-.31-.54l-9.13-1.94a.54.54,0,0,1-.4-.56l.91-7.28c0-.26.09-.63.09-.84a.42.42,0,0,1,.5-.32l13.65,2.91a.4.4,0,0,1,.32.5C49.12,112.09,49,112.45,48.9,112.69Z"/><path class="cls-2" d="M14.54,54a7.45,7.45,0,0,0,.68,10.48l11.16,9.8,4-4.53,4.53,4a1.4,1.4,0,0,0,2-.13,1.37,1.37,0,0,0-.13-2l-4.53-4,4-4.53L25,53.31A7.45,7.45,0,0,0,14.54,54Zm19,9.29L26.2,71.65l-9.76-8.58a5.57,5.57,0,0,1,7.35-8.37Z"/><path class="cls-2" d="M107.94,81.66a4.92,4.92,0,0,0-1,1.4,3.89,3.89,0,0,0-4.16.71,4,4,0,0,0-1.09,1.72v.09h-.09a5.17,5.17,0,0,0-5,1.19A5.69,5.69,0,0,0,95.17,89l-.23,1.1L94,90a4.36,4.36,0,0,0-3.11,1.17,4.56,4.56,0,0,0-.26,6.48l.27.29.27.2-.29.27a5.28,5.28,0,0,0,.38,6.69,8.36,8.36,0,0,0,.94.92l0,0,21.37,18.63a.76.76,0,0,0,1,0L132,108.51a.67.67,0,0,0,.09-1L115.85,85.6a5.5,5.5,0,0,0-1.43-3.68A4.56,4.56,0,0,0,107.94,81.66ZM93.15,103.32a2.8,2.8,0,0,1-.72-1.75,2.51,2.51,0,0,1,.63-1.74s1.89-.76,1.75-2.06-2.07-1.66-2.07-1.66l-.22-.24a2,2,0,0,1,.11-2.78,2,2,0,0,1,1.78-.48l.73.31.93,1a1.64,1.64,0,1,0,2.41-2.22l-1-1.06.06-.32a2.62,2.62,0,0,1,.81-1.64A3,3,0,0,1,99.57,88a2.63,2.63,0,0,1,1.34,0s1.67,2.39,3.06,1.28.17-3.1.17-3.1a1.94,1.94,0,0,1,.39-.54,1.32,1.32,0,0,1,.66-.34,1.17,1.17,0,0,1,.69.07s1.77,2.11,3.07.91l.32-2.17a2.36,2.36,0,0,1,.44-.59,1.93,1.93,0,0,1,2.78.11c.71.77,1.06,2.41.43,3.17L94.09,104.24A7.17,7.17,0,0,1,93.15,103.32Zm23,5.57a3.93,3.93,0,1,1,.22-5.56A3.94,3.94,0,0,1,116.12,108.89ZM96.06,106l8.43-7.78,3.64,4a6.56,6.56,0,0,0,8.71,9.44l3.64,4-6.55,6ZM129,107.74l-6.55,6-3.64-4a6.56,6.56,0,0,0-8.71-9.44l-3.64-4,8.43-7.78Z"/><polygon class="cls-2" points="57.66 246.74 55.91 248.2 55.16 250.35 53.22 249.14 50.95 249.08 51.5 246.87 50.85 244.69 53.12 244.53 55 243.24 55.85 245.35 57.66 246.74"/><polygon class="cls-2" points="104.49 210.66 102.74 212.12 101.98 214.28 100.05 213.06 97.77 213.01 98.33 210.8 97.68 208.61 99.95 208.46 101.83 207.16 102.68 209.28 104.49 210.66"/><polygon class="cls-2" points="176.33 209.7 174.58 211.16 173.83 213.31 171.9 212.1 169.62 212.04 170.17 209.83 169.52 207.65 171.8 207.49 173.67 206.2 174.52 208.31 176.33 209.7"/><polygon class="cls-2" points="37.26 176.99 35.51 178.46 34.75 180.61 32.82 179.39 30.54 179.34 31.1 177.13 30.44 174.94 32.72 174.79 34.59 173.49 35.44 175.61 37.26 176.99"/><polygon class="cls-2" points="239.21 170.66 237.46 172.13 236.7 174.28 234.77 173.06 232.49 173.01 233.05 170.8 232.4 168.62 234.67 168.46 236.54 167.17 237.39 169.28 239.21 170.66"/><polygon class="cls-2" points="131.88 261.99 130.14 263.45 129.38 265.6 127.45 264.39 125.17 264.34 125.73 262.13 125.07 259.94 127.35 259.79 129.22 258.49 130.07 260.61 131.88 261.99"/><path class="cls-2" d="M140.22,230.57l2.8,1.08-1.91,5c.11,0,.19,0,.31-.14l5.18-5a.35.35,0,0,0-.14-.63l-2.8-1.08,1.91-5c-.11,0-.19,0-.31.14l-5.18,5A.35.35,0,0,0,140.22,230.57Zm22.38,3.7-1.12-.43,1.51-3.92a1.77,1.77,0,0,0-1-2.33l-30.84-11.83a1.77,1.77,0,0,0-2.33,1l-5.59,14.58a1.77,1.77,0,0,0,1,2.33l30.84,11.83a1.77,1.77,0,0,0,2.33-1l1.51-3.92L160,241a.57.57,0,0,0,.78-.35l2.15-5.61A.65.65,0,0,0,162.6,234.27Zm-7.24,8.8-29.72-11.4,5.16-13.46,29.72,11.4Z"/><path class="cls-2" d="M213.37,201.25l-2.6-8.62a3,3,0,0,0-5.75,1.73l.87,2.87a12.76,12.76,0,0,0-10.35,3.12l-.87-2.87a3,3,0,0,0-5.75,1.73l2.6,8.62a12.5,12.5,0,0,0,.41,5.52l5.37,17.82a2.41,2.41,0,0,0,3,1.61l19.55-5.9a2.41,2.41,0,0,0,1.61-3l-5.37-17.82A12.5,12.5,0,0,0,213.37,201.25Zm-6.63-7.41a1.2,1.2,0,0,1,2.3-.69l1.8,6a11.7,11.7,0,0,0-2.92-1.38Zm-16.1,4.85a1.2,1.2,0,0,1,2.3-.69l1.18,3.91a13.73,13.73,0,0,0-1.68,2.76Zm29.09,25.73a.57.57,0,0,1-.4.75l-19.55,5.9a.6.6,0,0,1-.75-.4l-.35-1.15,20.7-6.24Zm-.87-2.87-20.7,6.24-4.51-14.95a10.82,10.82,0,0,1,1.21-8.89l.4-.56.28-.33.41-.5a10.68,10.68,0,0,1,4.94-3.18,10.89,10.89,0,0,1,5.93-.09l.62.19.43.18.56.21a10.72,10.72,0,0,1,5.92,6.74Zm-17.46-20.45a9,9,0,0,0-6,11.23l1.72-.52a7.21,7.21,0,0,1,13.8-4.16l1.72-.52A9,9,0,0,0,201.41,201.09Zm10.28,9.13a.9.9,0,0,0,1.72-.52l-.43-1.44-1.72.52Zm0,2.19-12.65,3.81a2.41,2.41,0,0,0-1.61,3l1.21,4a2.41,2.41,0,0,0,3,1.61L214.32,221a2.41,2.41,0,0,0,1.61-3l-1.21-4A2.41,2.41,0,0,0,211.72,212.41Zm2.48,6.15a.57.57,0,0,1-.4.75l-12.65,3.81a.57.57,0,0,1-.75-.4l-1.21-4a.57.57,0,0,1,.4-.75l12.65-3.81a.57.57,0,0,1,.75.4Z"/><path class="cls-2" d="M264.74,198.18a14.05,14.05,0,0,0-5.65-18.74s-.05,0-.1,0l-.66-.35-.05,0-.74-.33-.05,0a14.14,14.14,0,0,0-16.88,5.09,11.51,11.51,0,0,0-.92,1.52,13.86,13.86,0,0,0-1,10.51,14.11,14.11,0,0,0,25.13,3.93l0-.05.44-.68,0-.05.35-.66Zm-24.05-2,6.67-2a12.39,12.39,0,0,1-1.09,8.43A12.39,12.39,0,0,1,240.69,196.13Zm17.47-15.21a12.39,12.39,0,0,1,5.57,6.42l-6.67,2A12.39,12.39,0,0,1,258.16,180.92Zm-2.78,8.94-2.57.78-3.3-10.93a12.4,12.4,0,0,1,7.06.5A13.82,13.82,0,0,0,255.38,189.86Zm-4.26,1.29-2.57.78a14,14,0,0,0-6.33-7.39,12.4,12.4,0,0,1,5.6-4.31Zm-4.26,1.29-6.67,2a12.39,12.39,0,0,1,1.09-8.43A12.39,12.39,0,0,1,246.85,192.43Zm2.2,1.18,2.57-.78,3.3,10.93a12.4,12.4,0,0,1-7.06-.5A14.15,14.15,0,0,0,249,193.61Zm4.26-1.29,2.57-.78a14,14,0,0,0,6.33,7.39,12.4,12.4,0,0,1-5.6,4.31Zm4.26-1.29,6.67-2a12.39,12.39,0,0,1-1.09,8.43A12.39,12.39,0,0,1,257.57,191Z"/><path class="cls-2" d="M218.64,4.87,184.15,0a1.77,1.77,0,0,0-2,1.53l-3,21.41a1.77,1.77,0,0,0,1.53,2l34.49,4.85a1.77,1.77,0,0,0,2-1.53l3-21.41A1.77,1.77,0,0,0,218.64,4.87Zm-3.77,22.52-33.3-4.68,2.84-20.22,33.3,4.68ZM204.69,30.8l-14.27-2a1.2,1.2,0,0,0-.33,2.38l14.27,2a1.2,1.2,0,1,0,.33-2.38Z"/><path class="cls-2" d="M149.54,40.25l-6.81-5.53a1.2,1.2,0,0,0-.18-1.69l-1.86-1.51a1.2,1.2,0,0,0-1.69.18l-6.06,7.46a1.2,1.2,0,0,0,.18,1.69L135,42.36a1.2,1.2,0,0,0,1.69-.18l6.81,5.53a12.61,12.61,0,1,0,6.06-7.46Zm-14.82-.43,5.3-6.53.93.76-5.3,6.53Zm28.76,17.94a10.2,10.2,0,0,1-17.13-10.82l-8.16-6.63,3-3.73,8.16,6.63a10.2,10.2,0,0,1,14.1,14.55Zm-6.1-14.4-9.24,11.37a8.74,8.74,0,0,0,2.58,3.49c3.26,2.65,8.45,2,11.36-1.6s2.5-8.8-.76-11.45A8.74,8.74,0,0,0,157.37,43.36Z"/></g><g class="cls-1"><path class="cls-2" d="M336.62,75h0a.78.78,0,1,1-.27.14.78.78,0,0,1,.27-.14m-.17-.57a1.38,1.38,0,1,0,1.47.45,1.38,1.38,0,0,0-1.47-.45Z"/><path class="cls-2" d="M331.38,85.54,334,83.78c.24-.16,0-.55-.24-.38l-2.58,1.76c-.24.16,0,.55.24.38Z"/><path class="cls-2" d="M331.48,83.3l1.76,2.58c.16.24.55,0,.38-.24l-1.76-2.58c-.16-.24-.55,0-.38.24Z"/><path class="cls-2" d="M418.56,155.36c-2.42-8-12.5-12-22.56-9s-16.23,12-13.82,20,12.5,12,22.56,9c1.82-.55,12.7,4.48,14.23,3.58,1.32-.77-4.79-9.1-4.38-9.59C418.35,165.34,420,160.19,418.56,155.36Zm-6,15.34c.16.32.32.65.59,1.13a12.28,12.28,0,0,0,.75,1.26c.09.1.64,1.11.86,1.41l.41.74c.14.27.27.48.39.69-.75-.21-1.64-.5-2.88-.93-.07,0-.07,0-.13,0-6-2.09-6.92-2.38-8.45-1.92-8.87,2.67-17.61-.83-19.6-7.42s3.36-14.35,12.23-17,17.61.83,19.6,7.42c1.15,3.81-.09,8.15-3.42,11.7a2.39,2.39,0,0,0-.66,1.5,2.35,2.35,0,0,0,.31,1.46Z"/><circle class="cls-2" cx="258.34" cy="123.24" r="1.8" transform="translate(-24.58 79.83) rotate(-16.78)"/><circle class="cls-2" cx="267.29" cy="148.77" r="1.8" transform="translate(-31.57 83.51) rotate(-16.78)"/><circle class="cls-2" cx="360.11" cy="149.74" r="1.9" transform="translate(-28.98 123.07) rotate(-18.66)"/><path class="cls-2" d="M293,199.23a1.34,1.34,0,0,1,.92,2.51l-.15.05a1.34,1.34,0,0,1-.92-2.51l.15-.05m-.35-1.15-.28.1a2.54,2.54,0,0,0,1.74,4.76l.28-.1a2.54,2.54,0,0,0-1.74-4.76Z"/><path class="cls-2" d="M327.55,124.46l-1.7-2c-.19-.22-.49.11-.31.33l1.7,2c.19.22.49-.11.31-.33Z"/><path class="cls-2" d="M325.72,124.63l2-1.7c.22-.19-.11-.49-.33-.31l-2,1.7c-.22.19.11.49.33.31Z"/><path class="cls-2" d="M527.55,184.32h0A2.16,2.16,0,0,1,529,188.4l-.17.06a2.17,2.17,0,0,1-2.63-1.28,2.16,2.16,0,0,1,1.22-2.8l.17-.06m-.52-1.72-.31.11a4,4,0,0,0,2.6,7.48l.31-.11a4,4,0,0,0-2.6-7.48Z"/><path class="cls-2" d="M518,132h0a2.16,2.16,0,0,1,1.41,4.08l-.17.06a2.17,2.17,0,0,1-2.63-1.28,2.16,2.16,0,0,1,1.22-2.8L518,132m-.52-1.72-.31.11a4,4,0,0,0,2.6,7.48l.31-.11a4,4,0,0,0-2.6-7.48Z"/><path class="cls-2" d="M458.68,168.08h0a2.16,2.16,0,0,1,1.41,4.08l-.17.06a2.17,2.17,0,0,1-2.63-1.28,2.16,2.16,0,0,1,1.22-2.8l.17-.06m-.52-1.72-.31.11a4,4,0,0,0,2.6,7.48l.31-.11a4,4,0,0,0-2.6-7.48Z"/><path class="cls-2" d="M449.46,243.62h0a2.16,2.16,0,0,1,1.41,4.08l-.17.06a2.17,2.17,0,0,1-2.63-1.28,2.16,2.16,0,0,1,1.22-2.8l.17-.06m-.52-1.72-.31.11a4,4,0,0,0,2.6,7.48l.31-.11a4,4,0,0,0-2.6-7.48Z"/><path class="cls-2" d="M418.54,261.72h0a2.16,2.16,0,0,1,1.41,4.08l-.17.06a2.17,2.17,0,0,1-2.63-1.28,2.16,2.16,0,0,1,1.22-2.8l.17-.06M418,260l-.31.11a4,4,0,0,0,2.6,7.48l.31-.11A4,4,0,0,0,418,260Z"/><path class="cls-2" d="M322.54,263.7h0a2.16,2.16,0,0,1,1.41,4.08l-.17.06a2.17,2.17,0,0,1-2.63-1.28,2.16,2.16,0,0,1,1.22-2.8l.17-.06M322,262l-.31.11a4,4,0,0,0,2.6,7.48l.31-.11A4,4,0,0,0,322,262Z"/><path class="cls-2" d="M345.79,188.95h0A2.16,2.16,0,0,1,347.2,193l-.17.06a2.17,2.17,0,0,1-2.63-1.28,2.16,2.16,0,0,1,1.22-2.8l.17-.06m-.52-1.72-.31.11a4,4,0,0,0,2.6,7.48l.31-.11a4,4,0,0,0-2.6-7.48Z"/><circle class="cls-2" cx="250.39" cy="80.7" r="4.39" transform="translate(-12.14 97.54) rotate(-21.53)"/><circle class="cls-2" cx="541.13" cy="203.31" r="1.47" transform="translate(-36.85 212.81) rotate(-21.53)"/><circle class="cls-2" cx="518.4" cy="154.97" r="1.47" transform="matrix(0.93, -0.37, 0.37, 0.93, -20.7, 201.09)"/><circle class="cls-2" cx="452.57" cy="98.92" r="1.47" transform="translate(-4.72 173.02) rotate(-21.53)"/><circle class="cls-2" cx="442.6" cy="128.27" r="1.47" transform="translate(-16.19 171.41) rotate(-21.53)"/><circle class="cls-2" cx="427.41" cy="167.35" r="1.47" transform="translate(-31.59 168.56) rotate(-21.53)"/><circle class="cls-2" cx="433.74" cy="244.48" r="1.47" transform="translate(-59.46 176.27) rotate(-21.53)"/><circle class="cls-2" cx="400.34" cy="262.7" r="1.47" transform="translate(-68.48 165.28) rotate(-21.53)"/><circle class="cls-2" cx="361.77" cy="242.97" r="1.47" transform="matrix(0.93, -0.37, 0.37, 0.93, -63.93, 149.75)"/><circle class="cls-2" cx="392.32" cy="204.9" r="1.47" transform="translate(-47.83 158.3) rotate(-21.53)"/><circle class="cls-2" cx="353.93" cy="231.53" r="1.47" transform="translate(-60.28 146.07) rotate(-21.53)"/><circle class="cls-2" cx="405.74" cy="16.44" r="1.47" transform="translate(22.29 150.08) rotate(-21.53)"/><circle class="cls-2" cx="375.01" cy="69.65" r="2.82" transform="translate(0.61 142.51) rotate(-21.53)"/><path class="cls-2" d="M427.79,46.92h0A2.16,2.16,0,0,1,429.2,51l-.17.06a2.17,2.17,0,0,1-2.63-1.28,2.16,2.16,0,0,1,1.22-2.8l.17-.06m-.52-1.72-.31.11a4,4,0,0,0,2.6,7.48l.31-.11a4,4,0,0,0-2.6-7.48Z"/><path class="cls-2" d="M433,82h0a2.39,2.39,0,0,1,1.57,4.52l-.19.07A2.39,2.39,0,0,1,432.8,82L433,82m-.35-1.15-.29.1a3.6,3.6,0,0,0,2.35,6.79l.29-.1a3.6,3.6,0,0,0-2.35-6.79Z"/><path class="cls-2" d="M304.46,134.7,310,133a.68.68,0,0,0-.39-1.29l-5.58,1.68a.68.68,0,0,0,.39,1.29Z"/><path class="cls-2" d="M305.57,130.62l1.68,5.58a.68.68,0,0,0,1.29-.39l-1.68-5.58a.68.68,0,0,0-1.29.39Z"/><path class="cls-2" d="M381.16,136.2l2.44,3c.54.67,1.69,0,1.14-.72l-2.44-3c-.54-.67-1.69,0-1.14.72Z"/><path class="cls-2" d="M384.12,135.57l-3,2.44c-.67.54,0,1.69.72,1.14l3-2.44c.67-.54,0-1.69-.72-1.14Z"/><path class="cls-2" d="M309.3,96.06h0a.78.78,0,1,1-.21.1.78.78,0,0,1,.21-.1m-.17-.57a1.38,1.38,0,1,0,1.54.55,1.38,1.38,0,0,0-1.54-.55Z"/><path class="cls-2" d="M256.86,96.49l2.83,7.12c.43,1.07,2.15.56,1.72-.52L258.59,96c-.43-1.07-2.15-.56-1.72.52Z"/><path class="cls-2" d="M262.44,97.51l-7.12,2.83c-1.07.43-.56,2.15.52,1.72L263,99.23c1.07-.43.56-2.15-.52-1.72Z"/><path class="cls-2" d="M484.45,215.24,479.34,221c-.77.86.54,2.09,1.32,1.23l5.11-5.71c.77-.86-.54-2.09-1.32-1.23Z"/><path class="cls-2" d="M486,220.6l-5.71-5.11c-.86-.77-2.09.54-1.23,1.32l5.71,5.11c.86.77,2.09-.54,1.23-1.32Z"/><path class="cls-2" d="M497.2,82.81l-5.11,5.71c-.77.86.54,2.09,1.32,1.23L498.52,84c.77-.86-.54-2.09-1.32-1.23Z"/><path class="cls-2" d="M498.77,88.17l-5.71-5.11c-.86-.77-2.09.54-1.23,1.32l5.71,5.11c.86.77,2.09-.54,1.23-1.32Z"/><path class="cls-2" d="M441.33,149.21l-5.11,5.71c-.77.86.54,2.09,1.32,1.23l5.11-5.71c.77-.86-.54-2.09-1.32-1.23Z"/><path class="cls-2" d="M442.9,154.57l-5.71-5.11c-.86-.77-2.09.54-1.23,1.32l5.71,5.11c.86.77,2.09-.54,1.23-1.32Z"/><path class="cls-2" d="M338.63,258l-5.11,5.71c-.77.86.54,2.09,1.32,1.23l5.11-5.71c.77-.86-.54-2.09-1.32-1.23Z"/><path class="cls-2" d="M340.21,263.32l-5.71-5.11c-.86-.77-2.09.54-1.23,1.32l5.71,5.11c.86.77,2.09-.54,1.23-1.32Z"/><path class="cls-2" d="M372.82,192.45l-5.11,5.71c-.77.86.54,2.09,1.32,1.23l5.11-5.71c.77-.86-.54-2.09-1.32-1.23Z"/><path class="cls-2" d="M374.4,197.81l-5.71-5.11c-.86-.77-2.09.54-1.23,1.32l5.71,5.11c.86.77,2.09-.54,1.23-1.32Z"/><path class="cls-2" d="M365.25,46.7l-5.11,5.71c-.77.86.54,2.09,1.32,1.23l5.11-5.71c.77-.86-.54-2.09-1.32-1.23Z"/><path class="cls-2" d="M366.83,52.06,361.11,47c-.86-.77-2.09.54-1.23,1.32l5.71,5.11c.86.77,2.09-.54,1.23-1.32Z"/><path class="cls-2" d="M405.8,80.67l-6.29-5c-.9-.72-2.13.59-1.23,1.32l6.29,5c.9.72,2.13-.59,1.23-1.32Z"/><path class="cls-2" d="M400.18,82.57l5-6.29c.72-.9-.59-2.13-1.32-1.23l-5,6.29c-.72.9.59,2.13,1.32,1.23Z"/><path class="cls-2" d="M306.62,74.51h0a1,1,0,0,1,1.24.6,1,1,0,0,1-.57,1.32l-.08,0a1,1,0,0,1-.67-1.93l.08,0m-.17-.57-.13,0A1.62,1.62,0,0,0,307.38,77l.13,0a1.62,1.62,0,0,0-1.06-3.06Z"/><path class="cls-2" d="M341.66,44.38a8,8,0,1,0-11.46,3.8L323.54,64a1.07,1.07,0,1,0,2,.83L332.17,49A8.06,8.06,0,0,0,341.66,44.38Z"/><path class="cls-2" d="M318.47,143.37a21.59,21.59,0,1,0,26.91,14.44A21.57,21.57,0,0,0,318.47,143.37Zm11.69,38.76a18.89,18.89,0,1,1,12.63-23.54A18.86,18.86,0,0,1,330.16,182.14Z"/><circle class="cls-2" cx="330.64" cy="158.03" r="3.37" transform="translate(-31.54 102.19) rotate(-16.78)"/><circle class="cls-2" cx="316.43" cy="162.31" r="3.37" transform="translate(-33.39 98.27) rotate(-16.78)"/><path class="cls-2" d="M334.22,169.64a1.13,1.13,0,0,0-.79.66,9.58,9.58,0,0,1-5.6,4.09,10,10,0,0,1-6.91-.24,1.29,1.29,0,0,0-1-.18,1.35,1.35,0,0,0-.9,1.68,1.45,1.45,0,0,0,.49.7l.08,0a.93.93,0,0,0,.32.12,12.13,12.13,0,0,0,8.74.47,12.45,12.45,0,0,0,7.2-5.34,1.33,1.33,0,0,0,.11-1A1.37,1.37,0,0,0,334.22,169.64Z"/><path class="cls-2" d="M496.76,123.47c-.74-2.44-5-3.9-10.4-4-.23-5.4-1.78-9.63-4.29-10.28-2.68-.74-6.34,2.47-9.43,7.54-5.37-2.45-10.21-3.16-12-1.07a4.63,4.63,0,0,0-.82,3.33,2.71,2.71,0,0,0-1,3,2.78,2.78,0,0,0,2.47,1.92,27.77,27.77,0,0,0,1.47,2.78c-4.4,3.08-7.2,6.59-6.46,9s5,3.82,10.44,3.93c.25,5.47,1.8,9.69,4.25,10.36s6.32-2.54,9.42-7.61c5.39,2.51,10.27,3.14,12.05,1.13.79-.87,1-2.33.67-4.06a2.69,2.69,0,0,0,1-2.88,2.74,2.74,0,0,0-2.68-1.93c-.34-.67-.7-1.4-1.13-2.11C494.72,129.48,497.5,125.91,496.76,123.47Zm-8.21-1.87c3.68.36,6,1.43,6.28,2.45s-1,3.18-3.88,5.52a19,19,0,0,1-1.78,1.31,35.86,35.86,0,0,0-3.2-4.08,40.53,40.53,0,0,0,.38-5.23A18.87,18.87,0,0,1,488.56,121.59Zm-9,18.13c-.75-.4-1.53-.87-2.3-1.34l1.88-.5a15.17,15.17,0,0,0,1.65-.57C480.37,138.16,480,139,479.58,139.73Zm-1-3.77a34,34,0,0,1-3.59.87c-1-.75-2-1.5-2.95-2.34a33.93,33.93,0,0,1-2.79-2.74,39.33,39.33,0,0,1,.86-4.12,27.83,27.83,0,0,1,1.09-3.35,35.26,35.26,0,0,1,3.54-1.28c1.09-.33,2.27-.61,3.38-.88a27.83,27.83,0,0,1,2.76,2.18,32.4,32.4,0,0,1,3,3c-.23,1.33-.48,2.6-.81,3.82s-.75,2.4-1.17,3.58A22.27,22.27,0,0,1,478.58,136Zm-6.39,1.37c-1.15.14-2.32.21-3.49.28,0-1.06.06-2.12.16-3.2a22.63,22.63,0,0,0,1.84,1.69C471.18,136.51,471.65,136.93,472.2,137.33Zm-4.71-7.48c-.68-.85-1.37-1.76-2-2.63,1-.57,2-1.17,3.06-1.7-.19.55-.37,1.09-.49,1.62Zm8.33-9.1-1.69.44a18.23,18.23,0,0,0-1.84.63c.38-.82.77-1.63,1.22-2.47C474.19,119.76,475,120.21,475.82,120.74Zm5,1.08c1.22-.16,2.39-.23,3.56-.3a28.71,28.71,0,0,1-.2,3.29,26.67,26.67,0,0,0-2-1.86C481.76,122.52,481.3,122.17,480.84,121.82Zm4.13,10a22.63,22.63,0,0,0,.6-2.42,28.12,28.12,0,0,1,1.92,2.65c-1,.57-2,1.17-3.06,1.7C484.57,133,484.8,132.4,485,131.79Zm-3.44-20.7c1,.26,2.09,2.52,2.58,6.23.07.68.15,1.43.15,2.13a47.81,47.81,0,0,0-5.77.62,32.77,32.77,0,0,0-4.11-2.48,28.79,28.79,0,0,1,1.71-2.48C478.44,112.23,480.54,110.83,481.53,111.09Zm-18.11,12.47-.2-.43a2.78,2.78,0,0,0,.78-2.76,2.72,2.72,0,0,0-2.11-1.89,2.68,2.68,0,0,1,.3-1.56c.68-.77,3.21-.76,6.72.43a28.79,28.79,0,0,1,2.79,1.12,28.18,28.18,0,0,0-2,4.4,36.48,36.48,0,0,0-5.09,2.66A10.55,10.55,0,0,1,463.42,123.57Zm1.19,13.94c-3.75-.34-6.12-1.45-6.41-2.41s1.09-3.13,3.94-5.54c.5-.43,1.09-.82,1.65-1.27a40.53,40.53,0,0,0,3.21,4.15,47.79,47.79,0,0,0-.4,5.17Zm6.9,10.54c-1-.26-2.11-2.59-2.6-6.3-.07-.68-.15-1.43-.15-2.13a49.3,49.3,0,0,0,5.71-.6,32.77,32.77,0,0,0,4.11,2.48,26.94,26.94,0,0,1-1.66,2.39C474.66,146.89,472.49,148.32,471.5,148.05Zm18-12.58a2.71,2.71,0,0,0-.61,2.64,2.65,2.65,0,0,0,2.24,1.85,2.82,2.82,0,0,1-.25,2.18c-.68.77-3.27.78-6.8-.47a26.94,26.94,0,0,1-2.71-1.08,41,41,0,0,0,2-4.32,39,39,0,0,0,5.15-2.68A15.93,15.93,0,0,1,489.52,135.47Z"/><path class="cls-2" d="M458.65,54.06s-5.17,16.92-3.6,22.12a9.83,9.83,0,0,0,18.83-5.68C472.32,65.3,458.65,54.06,458.65,54.06Z"/><path class="cls-2" d="M304.82,213.88a10.6,10.6,0,0,0,1,14.91l15.88,13.95,5.67-6.45,6.45,5.67a2,2,0,0,0,2.8-.18,2,2,0,0,0-.18-2.8l-6.45-5.67,5.67-6.45-15.88-13.95A10.6,10.6,0,0,0,304.82,213.88Zm27.06,13.22L321.42,239l-13.89-12.2A7.93,7.93,0,1,1,318,214.9Z"/><path class="cls-2" d="M429.23,108.86,404.3,99.34c-2.55,6.66-1.78,13.47,1.48,17.66l9.88,3.77a15,15,0,0,0,7.12-3.69l-.41.38,3.12,1.19a5.24,5.24,0,0,0,3.74-9.79Zm-13.37,9.85L407,115.32c-2.28-3.27-2.86-8.3-1.46-13.37l20.32,7.76C423.53,114.42,419.73,117.78,415.86,118.71Zm10.35-1.92-2.24-.85,0,0a22,22,0,0,0,4-6,1.38,1.38,0,0,1-.21.4l.79.3a3.24,3.24,0,1,1-2.31,6.06Zm-11.57-15.42a2.79,2.79,0,0,0,2.69-2.28,25.65,25.65,0,0,1,.56-3.58,13.88,13.88,0,0,1,.89-2.33,18.84,18.84,0,0,1,2-3s-3.53.31-4.63,3.46a11.65,11.65,0,0,0-.37,4.88A2.77,2.77,0,0,1,414.63,101.36Zm3.65.22a1.7,1.7,0,0,0,1.67-1.44,17.07,17.07,0,0,1,.33-2.28,17.29,17.29,0,0,1,1.84-3.41,3.56,3.56,0,0,0-2.94,2.24,7.73,7.73,0,0,0-.23,3.12A1.65,1.65,0,0,1,418.28,101.58Z"/><path class="cls-2" d="M300.19,107.45,278,102.72a.43.43,0,0,0-.51.36l-2.86,23.28a.69.69,0,0,0,.34.63l8.08,4.21a1.43,1.43,0,0,0,.82.18l9.15-.59a.67.67,0,0,0,.57-.48L300.5,108A.43.43,0,0,0,300.19,107.45Zm-5.28,5.23-.17.61c-.09.24-.16.57-.25.76a1.59,1.59,0,0,1-.11.32l-10.6-2.26a.43.43,0,0,0-.51.36l-.24,2.14a.54.54,0,0,0,.4.56l9.7,2.07a.39.39,0,0,1,.28.49,6.32,6.32,0,0,1-.26.8l-2.06,6.65a4.58,4.58,0,0,0-.19.69c0,.12-.27.24-.53.27l-5.38.23-.44,0a2.72,2.72,0,0,1-.38-.21l-4.79-2.52A.67.67,0,0,1,279,123l.46-3.77a.41.41,0,0,1,.51-.36l2,.43a.54.54,0,0,1,.4.56l-.18,1.46a.69.69,0,0,0,.34.63l2.24,1.17.38.21a2.72,2.72,0,0,0,.44,0l2.52-.15a.67.67,0,0,0,.57-.44l.87-2.87a.41.41,0,0,0-.31-.54l-9.13-1.94a.54.54,0,0,1-.4-.56l.91-7.28c0-.26.09-.63.09-.84a.42.42,0,0,1,.5-.32l13.65,2.91a.4.4,0,0,1,.32.5C295.12,112.09,295,112.45,294.9,112.69Z"/><path class="cls-2" d="M260.54,54a7.45,7.45,0,0,0,.68,10.48l11.16,9.8,4-4.53,4.53,4a1.4,1.4,0,0,0,2-.13,1.37,1.37,0,0,0-.13-2l-4.53-4,4-4.53L271,53.31A7.45,7.45,0,0,0,260.54,54Zm19,9.29-7.35,8.37-9.76-8.58a5.57,5.57,0,1,1,7.35-8.37Z"/><path class="cls-2" d="M353.94,81.66a4.92,4.92,0,0,0-1,1.4,3.89,3.89,0,0,0-4.16.71,4,4,0,0,0-1.09,1.72v.09h-.09a5.17,5.17,0,0,0-5,1.19A5.69,5.69,0,0,0,341.17,89l-.23,1.1L340,90a4.36,4.36,0,0,0-3.11,1.17,4.56,4.56,0,0,0-.26,6.48l.27.29.27.2-.29.27a5.28,5.28,0,0,0,.38,6.69,8.36,8.36,0,0,0,.94.92l0,0,21.37,18.63a.76.76,0,0,0,1,0L378,108.51a.67.67,0,0,0,.09-1L361.85,85.6a5.5,5.5,0,0,0-1.43-3.68A4.56,4.56,0,0,0,353.94,81.66Zm-14.79,21.67a2.8,2.8,0,0,1-.72-1.75,2.51,2.51,0,0,1,.63-1.74s1.89-.76,1.75-2.06-2.07-1.66-2.07-1.66l-.22-.24a2,2,0,0,1,.11-2.78,2,2,0,0,1,1.78-.48l.73.31.93,1a1.64,1.64,0,1,0,2.41-2.22l-1-1.06.06-.32a2.62,2.62,0,0,1,.81-1.64,3,3,0,0,1,1.19-.65,2.63,2.63,0,0,1,1.34,0s1.67,2.39,3.06,1.28.17-3.1.17-3.1a1.94,1.94,0,0,1,.39-.54,1.32,1.32,0,0,1,.66-.34,1.17,1.17,0,0,1,.69.07s1.77,2.11,3.07.91l.32-2.17a2.36,2.36,0,0,1,.44-.59,1.93,1.93,0,0,1,2.78.11c.71.77,1.06,2.41.43,3.17l-18.84,17.37A7.17,7.17,0,0,1,339.15,103.32Zm23,5.57a3.93,3.93,0,1,1,.22-5.56A3.94,3.94,0,0,1,362.12,108.89ZM342.06,106l8.43-7.78,3.64,4a6.56,6.56,0,0,0,8.71,9.44l3.64,4-6.55,6ZM375,107.74l-6.55,6-3.64-4a6.56,6.56,0,0,0-8.71-9.44l-3.64-4,8.43-7.78Z"/><polygon class="cls-2" points="303.66 246.74 301.91 248.2 301.15 250.35 299.22 249.14 296.94 249.08 297.5 246.87 296.85 244.69 299.12 244.53 301 243.24 301.85 245.35 303.66 246.74"/><polygon class="cls-2" points="350.49 210.66 348.74 212.12 347.98 214.28 346.05 213.06 343.77 213.01 344.33 210.8 343.68 208.61 345.95 208.46 347.83 207.16 348.68 209.28 350.49 210.66"/><polygon class="cls-2" points="422.33 209.7 420.58 211.16 419.83 213.31 417.9 212.1 415.62 212.04 416.17 209.83 415.52 207.65 417.8 207.49 419.67 206.2 420.52 208.31 422.33 209.7"/><polygon class="cls-2" points="283.25 176.99 281.51 178.46 280.75 180.61 278.82 179.39 276.54 179.34 277.1 177.13 276.44 174.94 278.72 174.79 280.59 173.49 281.44 175.61 283.25 176.99"/><polygon class="cls-2" points="485.21 170.66 483.46 172.13 482.7 174.28 480.77 173.06 478.49 173.01 479.05 170.8 478.39 168.62 480.67 168.46 482.55 167.17 483.39 169.28 485.21 170.66"/><polygon class="cls-2" points="377.88 261.99 376.14 263.45 375.38 265.6 373.45 264.39 371.17 264.34 371.73 262.13 371.07 259.94 373.35 259.79 375.22 258.49 376.07 260.61 377.88 261.99"/><path class="cls-2" d="M386.22,230.57l2.8,1.08-1.91,5c.11,0,.19,0,.31-.14l5.18-5a.35.35,0,0,0-.14-.63l-2.8-1.08,1.91-5c-.11,0-.19,0-.31.14l-5.18,5A.35.35,0,0,0,386.22,230.57Zm22.38,3.7-1.12-.43,1.51-3.92a1.77,1.77,0,0,0-1-2.33l-30.84-11.83a1.77,1.77,0,0,0-2.33,1l-5.59,14.58a1.77,1.77,0,0,0,1,2.33l30.84,11.83a1.77,1.77,0,0,0,2.33-1l1.51-3.92L406,241a.57.57,0,0,0,.78-.35l2.15-5.61A.65.65,0,0,0,408.6,234.27Zm-7.24,8.8-29.72-11.4,5.16-13.46,29.72,11.4Z"/><path class="cls-2" d="M459.37,201.25l-2.6-8.62a3,3,0,0,0-5.75,1.73l.87,2.87a12.76,12.76,0,0,0-10.35,3.12l-.87-2.87a3,3,0,0,0-5.75,1.73l2.6,8.62a12.5,12.5,0,0,0,.41,5.52l5.37,17.82a2.41,2.41,0,0,0,3,1.61l19.55-5.9a2.41,2.41,0,0,0,1.61-3l-5.37-17.82A12.5,12.5,0,0,0,459.37,201.25Zm-6.63-7.41a1.2,1.2,0,0,1,2.3-.69l1.8,6a11.7,11.7,0,0,0-2.92-1.38Zm-16.1,4.85a1.2,1.2,0,0,1,2.3-.69l1.18,3.91a13.73,13.73,0,0,0-1.68,2.76Zm29.09,25.73a.57.57,0,0,1-.4.75l-19.55,5.9a.6.6,0,0,1-.75-.4l-.35-1.15,20.7-6.24Zm-.87-2.87-20.7,6.24-4.51-14.95a10.82,10.82,0,0,1,1.21-8.89l.4-.56.28-.33.41-.5a10.68,10.68,0,0,1,4.94-3.18,10.89,10.89,0,0,1,5.93-.09l.62.19.43.18.56.21a10.72,10.72,0,0,1,5.92,6.74Zm-17.46-20.45a9,9,0,0,0-6,11.23l1.72-.52a7.21,7.21,0,0,1,13.8-4.16l1.72-.52A9,9,0,0,0,447.41,201.09Zm10.28,9.13a.9.9,0,1,0,1.72-.52l-.43-1.44-1.72.52Zm0,2.19-12.65,3.81a2.41,2.41,0,0,0-1.61,3l1.21,4a2.41,2.41,0,0,0,3,1.61L460.32,221a2.41,2.41,0,0,0,1.61-3l-1.21-4A2.41,2.41,0,0,0,457.72,212.41Zm2.48,6.15a.57.57,0,0,1-.4.75l-12.65,3.81a.57.57,0,0,1-.75-.4l-1.21-4a.57.57,0,0,1,.4-.75l12.65-3.81a.57.57,0,0,1,.75.4Z"/><path class="cls-2" d="M510.74,198.18a14.05,14.05,0,0,0-5.65-18.74s-.05,0-.1,0l-.66-.35-.05,0-.74-.33-.05,0a14.14,14.14,0,0,0-16.88,5.09,11.51,11.51,0,0,0-.92,1.52,13.86,13.86,0,0,0-1,10.51,14.11,14.11,0,0,0,25.13,3.93l0-.05.44-.68,0-.05.35-.66Zm-24.05-2,6.67-2a12.39,12.39,0,0,1-1.09,8.43A12.39,12.39,0,0,1,486.69,196.13Zm17.47-15.21a12.39,12.39,0,0,1,5.57,6.42l-6.67,2A12.39,12.39,0,0,1,504.16,180.92Zm-2.78,8.94-2.57.78-3.3-10.93a12.4,12.4,0,0,1,7.06.5A13.82,13.82,0,0,0,501.38,189.86Zm-4.26,1.29-2.57.78a14,14,0,0,0-6.33-7.39,12.4,12.4,0,0,1,5.6-4.31Zm-4.26,1.29-6.67,2a12.39,12.39,0,0,1,1.09-8.43A12.39,12.39,0,0,1,492.85,192.43Zm2.2,1.18,2.57-.78,3.3,10.93a12.4,12.4,0,0,1-7.06-.5A14.15,14.15,0,0,0,495,193.61Zm4.26-1.29,2.57-.78a14,14,0,0,0,6.33,7.39,12.4,12.4,0,0,1-5.6,4.31Zm4.26-1.29,6.67-2a12.39,12.39,0,0,1-1.09,8.43A12.39,12.39,0,0,1,503.57,191Z"/><path class="cls-2" d="M464.64,4.87,430.15,0a1.77,1.77,0,0,0-2,1.53l-3,21.41a1.77,1.77,0,0,0,1.53,2l34.49,4.85a1.77,1.77,0,0,0,2-1.53l3-21.41A1.77,1.77,0,0,0,464.64,4.87Zm-3.77,22.52-33.3-4.68,2.84-20.22,33.3,4.68ZM450.69,30.8l-14.27-2a1.2,1.2,0,0,0-.33,2.38l14.27,2a1.2,1.2,0,1,0,.33-2.38Z"/><path class="cls-2" d="M395.54,40.25l-6.81-5.53a1.2,1.2,0,0,0-.18-1.69l-1.86-1.51a1.2,1.2,0,0,0-1.69.18l-6.06,7.46a1.2,1.2,0,0,0,.18,1.69L381,42.36a1.2,1.2,0,0,0,1.69-.18l6.81,5.53a12.61,12.61,0,1,0,6.06-7.46Zm-14.82-.43,5.3-6.53.93.76-5.3,6.53Zm28.76,17.94a10.2,10.2,0,0,1-17.13-10.82l-8.16-6.63,3-3.73,8.16,6.63a10.2,10.2,0,0,1,14.1,14.55Zm-6.1-14.4-9.24,11.37a8.74,8.74,0,0,0,2.58,3.49c3.26,2.65,8.45,2,11.36-1.6s2.5-8.8-.76-11.45A8.74,8.74,0,0,0,403.37,43.36Z"/></g></g></g></svg>