<svg xmlns="http://www.w3.org/2000/svg" viewBox="0 0 346 369"><defs><style>.cls-1{opacity:0.4;}.cls-2{fill:#f1f7f7;}.cls-3{fill:#fff;}.cls-4{fill:#38464a;}.cls-5{fill:#c8f6f4;}.cls-6{fill:#1ab9ad;}.cls-7{fill:#dce7ed;}.cls-8{fill:#ff8c5d;}.cls-9{fill:#fc7541;}.cls-10{fill:#bdd0da;}</style></defs><title>texterstellung</title><g id="Layer_2" data-name="Layer 2"><g id="Layer_1-2" data-name="Layer 1"><g class="cls-1"><circle class="cls-2" cx="183" cy="163" r="163"/></g><g class="cls-1"><circle class="cls-2" cx="163" cy="206" r="163"/></g><rect class="cls-3" x="70.75" y="30" width="206" height="282" rx="12" ry="12"/><path class="cls-4" d="M264.75,313.5h-182A13.52,13.52,0,0,1,69.25,300V108.13h3V300a10.51,10.51,0,0,0,10.5,10.5h182a10.51,10.51,0,0,0,10.5-10.5V42a10.51,10.51,0,0,0-10.5-10.5h-182A10.51,10.51,0,0,0,72.25,42V88.13h-3V42a13.52,13.52,0,0,1,13.5-13.5h182A13.52,13.52,0,0,1,278.25,42V300A13.52,13.52,0,0,1,264.75,313.5Z"/><rect class="cls-5" x="96.25" y="52" width="80" height="81"/><path class="cls-6" d="M177.75,133.5h-83v-84h83Zm-80-3h77v-78h-77Z"/><rect class="cls-7" x="96.75" y="156.5" width="151" height="8.8"/><rect class="cls-7" x="96.75" y="175.57" width="151" height="8.8"/><rect class="cls-7" x="96.75" y="194.63" width="151" height="8.8"/><rect class="cls-7" x="96.75" y="213.7" width="79" height="8.8"/><path class="cls-8" d="M250.58,108l-25.8,97.27-39.55-10.49L211,97.53a11.45,11.45,0,0,1,14-8.11l17.48,4.63A11.45,11.45,0,0,1,250.58,108Z"/><path class="cls-9" d="M243.47,94.06,226,89.42a11.33,11.33,0,0,0-7.2.48l15.68,4.16a11.45,11.45,0,0,1,8.11,14l-25.2,95,8.41,2.23L251.58,108A11.45,11.45,0,0,0,243.47,94.06Z"/><path class="cls-4" d="M198.13,230.52a8.57,8.57,0,0,1-2.2-.29,8.38,8.38,0,0,1-6-5.89l-8.35-29.82.1-.4L208.88,91.67a13.53,13.53,0,0,1,16.51-9.59L243.75,87a13.52,13.52,0,0,1,9.59,16.51L226.07,206.32l-22,21.76A8.37,8.37,0,0,1,198.13,230.52Zm-13.42-36,8.13,29a5.45,5.45,0,0,0,9.08,2.41l21.45-21.19,27.07-102.06A10.51,10.51,0,0,0,243,89.85L224.62,85a10.54,10.54,0,0,0-12.84,7.46Z"/><path class="cls-3" d="M213.64,102.49,188.9,195.77a1.13,1.13,0,0,0,2.17.6l24.74-93.28a1.13,1.13,0,0,0-2.17-.6Z"/><path class="cls-3" d="M221.49,100.18l-25.83,97.38a1.13,1.13,0,0,0,2.17.6l25.83-97.38a1.13,1.13,0,0,0-2.17-.6Z"/><path class="cls-3" d="M241.79,105.56,216,202.95a1.13,1.13,0,0,0,2.17.6L244,106.16a1.13,1.13,0,0,0-2.17-.6Z"/><path class="cls-4" d="M183.31,195.85l22.71,6a1.5,1.5,0,0,0,.8-2.89l-22.71-6a1.5,1.5,0,0,0-.8,2.89Z"/><path class="cls-4" d="M211.34,203.28l13,3.46a1.5,1.5,0,0,0,.8-2.89l-13-3.46a1.5,1.5,0,0,0-.8,2.89Z"/><path class="cls-4" d="M72.25,104V96.5a1.5,1.5,0,0,0-3,0V104a1.5,1.5,0,0,0,3,0Z"/><path class="cls-10" d="M49.5,63.5a6.26,6.26,0,0,1-6.25-6.25h3A3.25,3.25,0,1,0,49.5,54V51a6.25,6.25,0,0,1,0,12.5Z"/><path class="cls-10" d="M291.61,109A5.68,5.68,0,0,1,290,97.84l.86,2.87a2.68,2.68,0,1,0,3.34,1.8l2.87-.86a5.68,5.68,0,0,1-3.8,7.08A5.71,5.71,0,0,1,291.61,109Z"/><path class="cls-10" d="M41.71,211a5.2,5.2,0,0,1-1.5-10.19l.86,2.87a2.2,2.2,0,1,0,2.74,1.47l2.87-.86a5.2,5.2,0,0,1-5,6.7Z"/><path class="cls-10" d="M212.43,336.72a5.54,5.54,0,0,1-1.59-10.84l.86,2.87a2.54,2.54,0,1,0,3.16,1.7l2.87-.86a5.55,5.55,0,0,1-5.31,7.14Z"/><path class="cls-10" d="M98.31,337.56l19.5-19.5a1.5,1.5,0,0,0-2.12-2.12l-19.5,19.5a1.5,1.5,0,0,0,2.12,2.12Z"/><path class="cls-10" d="M30.25,128v19.5a1.5,1.5,0,0,0,3,0V128a1.5,1.5,0,0,0-3,0Z"/><path class="cls-10" d="M293.89,196.15l14.47-14c1.39-1.35-.73-3.47-2.12-2.12l-14.47,14c-1.39,1.35.73,3.47,2.12,2.12Z"/><path class="cls-10" d="M184.37,20.12l14.5-14.5a1.5,1.5,0,0,0-2.12-2.12L182.25,18a1.5,1.5,0,0,0,2.12,2.12Z"/><path class="cls-10" d="M98.69,3.06l15,15a1.5,1.5,0,0,0,2.12-2.12l-15-15a1.5,1.5,0,0,0-2.12,2.12Z"/></g></g></svg>