<svg xmlns="http://www.w3.org/2000/svg" viewBox="0 0 421 403"><defs><style>.cls-1{opacity:0.1;}.cls-2{fill:#231f20;}.cls-3{fill:#fff;}.cls-4{opacity:0.25;}.cls-5{fill:#a3b9c1;}.cls-6{fill:#45cedf;}.cls-7{fill:#f4ca7e;}</style></defs><title>website0</title><g id="Layer_2" data-name="Layer 2"><g id="Layer_1-2" data-name="Layer 1"><g class="cls-1"><path class="cls-2" d="M37.26,63.67V356.2C37.26,382,52.46,403,71.2,403H342.71c18.74,0,33.94-21,33.94-46.8V95.45a31.79,31.79,0,0,0-31.79-31.79Z"/></g><g id="bg"><rect class="cls-3" width="421" height="378.9" rx="24.06" ry="24.06"/></g><g id="text" class="cls-4"><rect id="_Path_" data-name="&lt;Path&gt;" class="cls-5" x="162.39" y="144.34" width="198.47" height="24.06" rx="12.03" ry="12.03"/><rect id="_Path_2" data-name="&lt;Path&gt;" class="cls-5" x="162.39" y="192.46" width="198.47" height="24.06" rx="12.03" ry="12.03"/><rect id="_Path_3" data-name="&lt;Path&gt;" class="cls-5" x="60.14" y="240.57" width="300.71" height="24.06" rx="12.03" ry="12.03"/><rect id="_Path_4" data-name="&lt;Path&gt;" class="cls-5" x="60.14" y="288.69" width="300.71" height="24.06" rx="12.03" ry="12.03"/></g><rect id="img" class="cls-6" x="60.14" y="144.34" width="72.17" height="72.17" rx="27.91" ry="27.91"/><path id="header" class="cls-7" d="M396.94,0H24.06A24.13,24.13,0,0,0,0,24.06V78.19H421V24.06A24.13,24.13,0,0,0,396.94,0Z"/><circle id="red" class="cls-3" cx="42.1" cy="40.9" r="12.03"/><circle id="orange" class="cls-3" cx="78.19" cy="40.9" r="12.03"/><circle id="green" class="cls-3" cx="114.27" cy="40.9" r="12.03"/></g></g></svg>