<svg xmlns="http://www.w3.org/2000/svg" viewBox="0 0 2173.8 1781.59"><defs><style>.cls-1{fill:#fff;}.cls-2{fill:#f4f7fc;}</style></defs><title>background0</title><g id="Layer_2" data-name="Layer 2"><g id="Layer_1-2" data-name="Layer 1"><rect class="cls-1" x="142.61" y="268.37" width="1921.5" height="1080.5"/><path class="cls-2" d="M1392.11,998.27c-189-175.5-318.3-59.6-417.5,177.3s-169.7,253.3-306.4,92.9-491.4,638.9,193.2,495.9S1623.71,1213.37,1392.11,998.27Z"/><path class="cls-2" d="M1935.2,1123.37q-7.61,2.5-15.31,4.67c-80.12,22.56-182.31,21.92-239.43-48.11q-3.89-4.76-7.4-9.82c-47-67.46-48.21-156.91-47.24-235.93.54-44.25,3.11-88.63.7-132.86-4.14-75.91-29.36-174.07-125.3-162-47.89,6-86.95,40.69-134.28,45.54-59.54,6.1-86.9-64.64-96.94-111.75-9.82-46.11-9-95-1-141.27,13.33-77.08,50.57-156.6,117-201.56q7.49-5.07,15.41-9.47c119.39-66.13,264.73,16.33,361.53,86.3C1913.83,316.16,2063.77,453.35,2137,628.72c45.21,108.31,54.77,234.15-5.42,338.81C2088.77,1041.91,2016.28,1096.7,1935.2,1123.37Z"/><path class="cls-2" d="M129,1234.66a27.65,27.65,0,0,1-7-1.27c-24.62-7.88-31.51-43.64-31-65.74.67-29.81,10.2-59,19.54-87C137.58,999.45,193,944.8,234.13,958.57s106.34,144.14,25.37,171.88a166,166,0,0,0-67.94,44c-13.67,14.67-19.51,35-34.17,48.7C149.75,1230.32,139.27,1235.19,129,1234.66Z"/><path class="cls-2" d="M275.63,592.57c74.91,32,149.43,74.31,203.87,136.06,26.79,30.39,48.08,65.82,58.9,105.05,13.66,49.55-3.12,99.89,5.13,149.66,16.19,97.69,143.55,86,204,41.33,63.46-46.84,77.66-133.13,62-206.27-18.43-86-74.9-159.61-138.66-217.84C620,554.09,525.37,484.66,600.61,415.07c130.5-120.7-40.3-423.3-220.7-414.9s-447.6,48-364.2,295.7c25.76,76.5,56.66,159.71,114.17,218.69,38.46,39.44,89.31,54,138.52,74.93Z"/><path class="cls-1" d="M505.26,287.7c-20,17.43-42.88,30.93-60.1,51.46-18.37,21.91-34,45.88-54.6,65.93C336.29,457.9,238.7,419.18,199.24,366c-79.07-106.49,24.34-222.66,138.38-222.66,45.8,0,92.58,22,129.48,47.67,31.42,21.85,80,60.16,38.35,96.51Z"/><path class="cls-1" d="M1751.13,352.48c-17.77-8.69-37.46-12.58-57.32-8.62-19.26,3.84-37.43,20.81-35.38,40.34.82,7.79,4.64,14.91,8.77,21.56,13.55,21.8,32.16,44.78,26.84,69.88-1.55,7.31-5.09,14-7.63,21-14.46,39.88,9,89.35,49,103.39a58.45,58.45,0,0,0,20.16,3.61,59.41,59.41,0,0,0,23.42-5.76c32.68-14.83,53-50.22,56.28-85.95s-8.29-71.48-25.6-102.92C1797.17,386.31,1776,364.67,1751.13,352.48Z"/><path class="cls-2" d="M1004.17,459c-17.77-8.69-37.46-12.58-57.32-8.62-19.26,3.84-37.43,20.81-35.38,40.34.82,7.79,4.64,14.91,8.77,21.56,13.55,21.8,32.16,44.78,26.84,69.88-1.55,7.31-5.09,14-7.63,21-14.46,39.88,9,89.35,49,103.39a58.45,58.45,0,0,0,20.16,3.61,59.41,59.41,0,0,0,23.42-5.76c32.68-14.83,53-50.22,56.28-85.95S1080,547,1062.73,515.55C1050.2,492.8,1029.08,471.16,1004.17,459Z"/><path class="cls-1" d="M1077.79,1357.15c12.25,28.15,31.61,52.54,59.05,67.85,26.61,14.84,65.16,13.07,82.38-12.07,6.87-10,9.52-22.29,11.33-34.3,5.92-39.38,7-85.26,38.59-109.57,9.18-7.08,20.11-11.45,30.18-17.18,57.21-32.57,79.26-114.61,46.08-171.47-5.37-9.2-12-17.77-20.19-24.54-9.69-8-21.38-13.29-33.46-16.75-53.53-15.35-113.11,6-153,44.93s-62.11,92.8-73.28,147.35C1057.43,1270.88,1060.62,1317.69,1077.79,1357.15Z"/></g></g></svg>