<svg xmlns="http://www.w3.org/2000/svg" viewBox="0 0 356.68 387"><defs><style>.cls-1{opacity:0.1;}.cls-2{fill:#231f20;}.cls-3{fill:#f4f8fc;}.cls-4{fill:#45cedf;}.cls-5{opacity:0.2;}.cls-6{fill:#f4ca7e;}.cls-7{fill:#7c95ab;}</style></defs><title>halving0</title><g id="Layer_2" data-name="Layer 2"><g id="Layer_1-2" data-name="Layer 1"><g class="cls-1"><path class="cls-2" d="M17.3,47.67V340.2C17.3,366,32.49,387,51.23,387H322.74c18.74,0,33.94-21,33.94-46.8V79.45A31.79,31.79,0,0,0,324.9,47.67Z"/></g><path class="cls-3" d="M0,127.27V339.39a33.94,33.94,0,0,0,33.94,33.94H305.45a33.94,33.94,0,0,0,33.94-33.94V127.27Z"/><g class="cls-1"><path class="cls-2" d="M305.45,50.91H33.94A33.94,33.94,0,0,0,0,84.85v59.39H339.39V84.85A33.94,33.94,0,0,0,305.45,50.91Z"/></g><path class="cls-4" d="M305.45,33.94H33.94A33.94,33.94,0,0,0,0,67.88v59.39H339.39V67.88A33.94,33.94,0,0,0,305.45,33.94Z"/><g class="cls-5"><path class="cls-2" d="M67.88,110.3a17,17,0,0,1-17-17V33.94a17,17,0,0,1,17-17h0a17,17,0,0,1,17,17V93.33a17,17,0,0,1-17,17Z"/></g><g class="cls-5"><path class="cls-2" d="M280,110.3a17,17,0,0,1-17-17V33.94a17,17,0,0,1,17-17h0a17,17,0,0,1,17,17V93.33a17,17,0,0,1-17,17Z"/></g><path class="cls-6" d="M67.88,93.33a17,17,0,0,1-17-17V17a17,17,0,0,1,17-17h0a17,17,0,0,1,17,17V76.36a17,17,0,0,1-17,17Z"/><path class="cls-6" d="M280,93.33a17,17,0,0,1-17-17V17A17,17,0,0,1,280,0h0a17,17,0,0,1,17,17V76.36a17,17,0,0,1-17,17Z"/><path class="cls-7" d="M179.16,269.61A42.68,42.68,0,0,1,176,286.76a32.65,32.65,0,0,1-8.82,12.05A36.88,36.88,0,0,1,153.68,306a60,60,0,0,1-17.22,2.34,48.3,48.3,0,0,1-8.71-.82,69.78,69.78,0,0,1-8.85-2.23,71.82,71.82,0,0,1-8.52-3.35,72.76,72.76,0,0,1-7.7-4.17l2.83-29.91a53.54,53.54,0,0,0,6.33,3.68,70.17,70.17,0,0,0,7.25,3.13,55.93,55.93,0,0,0,7.59,2.19,35.34,35.34,0,0,0,7.4.82,28.32,28.32,0,0,0,4.28-.33,13.32,13.32,0,0,0,4-1.23,7.83,7.83,0,0,0,2.94-2.53,7.21,7.21,0,0,0,1.15-4.24,4.18,4.18,0,0,0-1.49-3.05,13.94,13.94,0,0,0-3.57-2.42,22.49,22.49,0,0,0-4.32-1.56,15.89,15.89,0,0,0-3.72-.56q-1,0-2.49.11t-2.94.33a20.91,20.91,0,0,0-2.86.63,6.27,6.27,0,0,0-2.12,1l.45-21.28q1.26.15,2.38.22t2.38.07a36.32,36.32,0,0,0,5.66-.48,20.84,20.84,0,0,0,5.65-1.71,12.22,12.22,0,0,0,4.35-3.39,8.58,8.58,0,0,0,1.75-5.58,5.82,5.82,0,0,0-1.34-4,8.89,8.89,0,0,0-3.31-2.34,16.74,16.74,0,0,0-4.28-1.12,33.07,33.07,0,0,0-4.17-.3A35.12,35.12,0,0,0,120.57,226a30.61,30.61,0,0,0-10.31,6.1L104,205a49.31,49.31,0,0,1,15.59-8.52,54.92,54.92,0,0,1,17.6-2.94,51.11,51.11,0,0,1,15.51,2.34,39.47,39.47,0,0,1,13.06,6.92,33.69,33.69,0,0,1,9,11.27,34.17,34.17,0,0,1,3.35,15.48,18.66,18.66,0,0,1-.74,5.13,27.58,27.58,0,0,1-2,5.06,26.9,26.9,0,0,1-3,4.58,24.47,24.47,0,0,1-3.65,3.68,14.33,14.33,0,0,1,5.13,3.79,19.81,19.81,0,0,1,3.2,5.28,25.2,25.2,0,0,1,1.64,6.14A46.65,46.65,0,0,1,179.16,269.61Z"/><path class="cls-7" d="M237.57,200.11l-4.32,105.81-32.44-1.49L202.6,234l-11.91,8.18-11.16-25.45,24.26-18.16Z"/></g></g></svg>