<?xml version="1.0" encoding="UTF-8"?>
<svg width="59px" height="13px" viewBox="0 0 59 13" version="1.1" xmlns="http://www.w3.org/2000/svg" xmlns:xlink="http://www.w3.org/1999/xlink">
    <!-- Generator: Sketch 46 (44423) - http://www.bohemiancoding.com/sketch -->
    <title>Impressum</title>
    <desc>Created with Sketch.</desc>
    <defs></defs>
    <g id="Page-1" stroke="none" stroke-width="1" fill="none" fill-rule="evenodd">
        <path d="M0.768000011,9.47519999 L0.768000011,1.15519987 C0.768000011,0.984532346 0.849065869,0.856533624 1.01120002,0.771199862 C1.17333416,0.685866101 1.36959887,0.643199861 1.60000002,0.643199861 C1.83040118,0.643199861 2.02666589,0.685866101 2.18880003,0.771199862 C2.35093418,0.856533624 2.43200004,0.984532346 2.43200004,1.15519987 L2.43200004,9.47519999 C2.43200004,9.63733414 2.34880087,9.76533286 2.18240003,9.8592 C2.0159992,9.95306714 1.8218678,10 1.60000002,10 C1.36959887,10 1.17333416,9.95306714 1.01120002,9.8592 C0.849065869,9.76533286 0.768000011,9.63733414 0.768000011,9.47519999 Z M3.84000006,9.47519999 L3.84000006,4.43199992 C3.84000006,4.27839915 3.91466598,4.15466705 4.06400006,4.06079991 C4.21333414,3.96693277 4.41173216,3.91999991 4.65920007,3.91999991 C4.8640011,3.91999991 5.03679937,3.96693277 5.17760008,4.06079991 C5.31840078,4.15466705 5.38880008,4.27839915 5.38880008,4.43199992 L5.38880008,4.81599992 C5.75573525,4.16746334 6.31892963,3.84319991 7.07840011,3.84319991 C7.4368019,3.84319991 7.75893202,3.96053207 8.04480012,4.19519991 C8.33066822,4.42986776 8.54186611,4.739198 8.67840013,5.12319993 C8.89173453,4.7050645 9.17119841,4.387201 9.51680014,4.16959991 C9.86240187,3.95199882 10.2271982,3.84319991 10.6112002,3.84319991 C11.2256032,3.84319991 11.7589312,4.07786423 12.2112002,4.54719992 C12.6634691,5.01653561 12.8896002,5.64799597 12.8896002,6.44159995 L12.8896002,9.47519999 C12.8896002,9.60320063 12.806401,9.72266611 12.6400002,9.8336 C12.4735994,9.94453389 12.279468,10 12.0576002,10 C11.8442658,10 11.654401,9.94453389 11.4880002,9.8336 C11.3215993,9.72266611 11.2384002,9.60320063 11.2384002,9.47519999 L11.2384002,6.44159995 C11.2384002,6.08319815 11.1360012,5.79946765 10.9312002,5.59039993 C10.7263991,5.38133222 10.4832016,5.27679993 10.2016002,5.27679993 C9.92853212,5.27679993 9.69173448,5.38133222 9.49120014,5.59039993 C9.2906658,5.79946765 9.19040014,6.07893153 9.19040014,6.42879995 L9.19040014,9.48799999 C9.19040014,9.65866751 9.10933428,9.78666624 8.94720013,9.872 C8.78506599,9.95733376 8.58880128,10 8.35840012,10 C8.14506572,10 7.95520095,9.95520045 7.78880012,9.8656 C7.62239928,9.77599955 7.53920011,9.65013414 7.53920011,9.48799999 L7.53920011,6.44159995 C7.53920011,6.1002649 7.43466782,5.82293434 7.22560011,5.60959993 C7.01653239,5.39626553 6.77120151,5.28959993 6.4896001,5.28959993 C6.21653206,5.28959993 5.98186774,5.39199891 5.78560009,5.59679993 C5.58933244,5.80160096 5.49120008,6.08319815 5.49120008,6.44159995 L5.49120008,9.47519999 C5.49120008,9.60320063 5.40800091,9.72266611 5.24160008,9.8336 C5.07519924,9.94453389 4.88106785,10 4.65920007,10 C4.42879891,10 4.23466752,9.9466672 4.07680006,9.84 C3.9189326,9.7333328 3.84000006,9.61173401 3.84000006,9.47519999 Z M14.1312002,12.304 L14.1312002,4.43199992 C14.1312002,4.27839915 14.2058661,4.15466705 14.3552002,4.06079991 C14.5045343,3.96693277 14.6901324,3.91999991 14.9120002,3.91999991 C15.133868,3.91999991 15.3173328,3.96693277 15.4624002,4.06079991 C15.6074676,4.15466705 15.6800002,4.27839915 15.6800002,4.43199992 L15.6800002,4.81599992 C15.8421344,4.54293189 16.0746654,4.31253419 16.3776002,4.12479991 C16.6805351,3.93706564 17.0239983,3.84319991 17.4080003,3.84319991 C18.0480035,3.84319991 18.5898647,4.09706404 19.0336003,4.60479992 C19.4773358,5.1125358 19.6992003,5.72479635 19.6992003,6.44159995 L19.6992003,7.49119996 C19.6992003,8.18240343 19.4730692,8.79253067 19.0208003,9.32159999 C18.5685313,9.85066931 18.0480032,10.1152 17.4592003,10.1152 C17.0922651,10.1152 16.7530685,10.0149343 16.4416002,9.8144 C16.130132,9.61386566 15.9104009,9.37706802 15.7824002,9.10399999 L15.7824002,12.304 C15.7824002,12.4405341 15.6992011,12.5621328 15.5328002,12.6688 C15.3663994,12.7754672 15.1680014,12.8288 14.9376002,12.8288 C14.7071991,12.8288 14.515201,12.7754672 14.3616002,12.6688 C14.2079994,12.5621328 14.1312002,12.4405341 14.1312002,12.304 Z M15.7824002,7.72159997 C15.7824002,7.89226749 15.8975991,8.09279882 16.1280002,8.32319998 C16.3584014,8.55360113 16.6186655,8.66879998 16.9088003,8.66879998 C17.2074684,8.66879998 17.4719991,8.54720119 17.7024003,8.30399997 C17.9328014,8.06079876 18.0480003,7.78986813 18.0480003,7.49119996 L18.0480003,6.44159995 C18.0480003,6.14293178 17.9328014,5.87626778 17.7024003,5.64159994 C17.4719991,5.40693209 17.1989352,5.28959993 16.8832003,5.28959993 C16.5930655,5.28959993 16.337068,5.39626553 16.1152002,5.60959993 C15.8933325,5.82293434 15.7824002,6.1002649 15.7824002,6.44159995 L15.7824002,7.72159997 Z M20.7616003,9.47519999 L20.7616003,4.43199992 C20.7616003,4.27839915 20.8362662,4.15466705 20.9856003,4.06079991 C21.1349344,3.96693277 21.3290658,3.91999991 21.5680003,3.91999991 C21.7813347,3.91999991 21.9583996,3.96693277 22.0992003,4.06079991 C22.240001,4.15466705 22.3104003,4.27839915 22.3104003,4.43199992 L22.3104003,4.95679992 C22.4469344,4.65813176 22.6602656,4.39786769 22.9504003,4.17599991 C23.2405351,3.95413213 23.5519987,3.84319991 23.8848004,3.84319991 L24.2816004,3.84319991 C24.4352011,3.84319991 24.5738664,3.91573252 24.6976004,4.06079991 C24.8213343,4.20586731 24.8832004,4.37226564 24.8832004,4.55999992 C24.8832004,4.75626757 24.8213343,4.92693253 24.6976004,5.07199993 C24.5738664,5.21706732 24.4352011,5.28959993 24.2816004,5.28959993 L23.8848004,5.28959993 C23.4922651,5.28959993 23.1488018,5.46453152 22.8544003,5.81439994 C22.5599989,6.16426836 22.4128003,6.62079713 22.4128003,7.18399996 L22.4128003,9.47519999 C22.4128003,9.60320063 22.3274679,9.72266611 22.1568003,9.8336 C21.9861328,9.94453389 21.7898681,10 21.5680003,10 C21.3375992,10 21.1456011,9.9466672 20.9920003,9.84 C20.8383995,9.7333328 20.7616003,9.61173401 20.7616003,9.47519999 Z M25.2288004,7.49119996 L25.2288004,6.40319995 C25.2288004,5.7034631 25.5018643,5.10186911 26.0480004,4.59839992 C26.5941365,4.09493073 27.2554632,3.84319991 28.0320004,3.84319991 C28.7573374,3.84319991 29.3781312,4.0714643 29.8944004,4.52799992 C30.4106697,4.98453554 30.6688005,5.55839648 30.6688005,6.24959994 C30.6688005,6.50560123 30.6368008,6.71679912 30.5728005,6.88319995 C30.5088001,7.04960079 30.4106678,7.16693295 30.2784005,7.23519996 C30.1461331,7.30346697 30.0245343,7.34613321 29.9136004,7.36319996 C29.8026666,7.38026671 29.6576013,7.38879996 29.4784004,7.38879996 L26.8800004,7.38879996 L26.8800004,7.58079996 C26.8800004,7.94773514 27.0165324,8.24426551 27.2896004,8.47039998 C27.5626684,8.69653444 27.9253315,8.80959998 28.3776004,8.80959998 C28.7018687,8.80959998 29.0218655,8.72853413 29.3376004,8.56639998 C29.6533354,8.40426583 29.8581333,8.32319998 29.9520004,8.32319998 C30.1312013,8.32319998 30.2805332,8.40639914 30.4000005,8.57279998 C30.5194677,8.73920081 30.5792005,8.89919922 30.5792005,9.05279999 C30.5792005,9.29173452 30.3637359,9.52853215 29.9328004,9.7632 C29.501865,9.99786784 28.9664036,10.1152 28.3264004,10.1152 C27.4133292,10.1152 26.6688033,9.87413574 26.0928004,9.39199999 C25.5167975,8.90986424 25.2288004,8.27627057 25.2288004,7.49119996 Z M26.8800004,6.41599995 L28.7488004,6.41599995 C28.8853344,6.41599995 28.9813335,6.39253351 29.0368004,6.34559995 C29.0922674,6.29866638 29.1200004,6.20693396 29.1200004,6.07039994 C29.1200004,5.77173178 29.0112015,5.52853421 28.7936004,5.34079993 C28.5759993,5.15306566 28.3093353,5.05919993 27.9936004,5.05919993 C27.6949323,5.05919993 27.4346682,5.15093234 27.2128004,5.33439993 C26.9909326,5.51786752 26.8800004,5.75893178 26.8800004,6.05759994 L26.8800004,6.41599995 Z M31.3088005,9.01439999 C31.3088005,8.86079922 31.3642666,8.70080081 31.4752005,8.53439998 C31.5861344,8.36799914 31.7141331,8.28479997 31.8592005,8.28479997 C31.9530676,8.28479997 32.0703998,8.33173284 32.2112005,8.42559998 C32.3520012,8.51946711 32.5375993,8.61546616 32.7680005,8.71359998 C32.9984016,8.81173381 33.2714656,8.86079998 33.5872005,8.86079998 C34.210137,8.86079998 34.5216005,8.67733515 34.5216005,8.31039997 C34.5216005,8.10559895 34.4170682,7.94346723 34.2080005,7.82399997 C33.9989328,7.7045327 33.747202,7.60640035 33.4528005,7.52959996 C33.158399,7.45279958 32.8618686,7.36106716 32.5632005,7.25439996 C32.2645323,7.14773276 32.0106682,6.96853455 31.8016005,6.71679995 C31.5925328,6.46506536 31.4880005,6.14293524 31.4880005,5.75039994 C31.4880005,5.22986399 31.6714653,4.78186847 32.0384005,4.40639992 C32.4053357,4.03093137 32.9855965,3.84319991 33.7792005,3.84319991 C34.3082698,3.84319991 34.7797318,3.92426577 35.1936005,4.08639991 C35.6074693,4.24853406 35.8144005,4.44479877 35.8144005,4.67519992 C35.8144005,4.82026731 35.7568011,4.98879897 35.6416005,5.18079993 C35.5264,5.37280089 35.383468,5.46879993 35.2128005,5.46879993 C35.1445335,5.46879993 34.9589354,5.40693388 34.6560005,5.28319993 C34.3530657,5.15946598 34.0693352,5.09759993 33.8048005,5.09759993 C33.5146657,5.09759993 33.2928013,5.15733266 33.1392005,5.27679993 C32.9855997,5.3962672 32.9088005,5.52853254 32.9088005,5.67359994 C32.9088005,5.81866733 32.9855997,5.9381328 33.1392005,6.03199994 C33.2928013,6.12586708 33.482666,6.19839969 33.7088005,6.24959994 C33.934935,6.3008002 34.1802659,6.3711995 34.4448005,6.46079995 C34.7093352,6.5504004 34.9546661,6.65493269 35.1808005,6.77439995 C35.406935,6.89386722 35.5967998,7.07946536 35.7504005,7.33119996 C35.9040013,7.58293456 35.9808005,7.88799818 35.9808005,8.24639997 C35.9808005,8.82666955 35.7738693,9.28319833 35.3600005,9.61599999 C34.9461318,9.94880166 34.3680042,10.1152 33.6256005,10.1152 C32.9855973,10.1152 32.4394694,10.0042678 31.9872005,9.7824 C31.5349315,9.56053222 31.3088005,9.30453477 31.3088005,9.01439999 Z M36.6080005,9.01439999 C36.6080005,8.86079922 36.6634667,8.70080081 36.7744005,8.53439998 C36.8853344,8.36799914 37.0133332,8.28479997 37.1584006,8.28479997 C37.2522677,8.28479997 37.3695999,8.33173284 37.5104006,8.42559998 C37.6512013,8.51946711 37.8367994,8.61546616 38.0672006,8.71359998 C38.2976017,8.81173381 38.5706657,8.86079998 38.8864006,8.86079998 C39.509337,8.86079998 39.8208006,8.67733515 39.8208006,8.31039997 C39.8208006,8.10559895 39.7162683,7.94346723 39.5072006,7.82399997 C39.2981329,7.7045327 39.0464021,7.60640035 38.7520006,7.52959996 C38.4575991,7.45279958 38.1610687,7.36106716 37.8624006,7.25439996 C37.5637324,7.14773276 37.3098683,6.96853455 37.1008006,6.71679995 C36.8917328,6.46506536 36.7872005,6.14293524 36.7872005,5.75039994 C36.7872005,5.22986399 36.9706654,4.78186847 37.3376006,4.40639992 C37.7045357,4.03093137 38.2847966,3.84319991 39.0784006,3.84319991 C39.6074699,3.84319991 40.0789319,3.92426577 40.4928006,4.08639991 C40.9066693,4.24853406 41.1136006,4.44479877 41.1136006,4.67519992 C41.1136006,4.82026731 41.0560012,4.98879897 40.9408006,5.18079993 C40.8256,5.37280089 40.6826681,5.46879993 40.5120006,5.46879993 C40.4437336,5.46879993 40.2581354,5.40693388 39.9552006,5.28319993 C39.6522657,5.15946598 39.3685352,5.09759993 39.1040006,5.09759993 C38.8138658,5.09759993 38.5920013,5.15733266 38.4384006,5.27679993 C38.2847998,5.3962672 38.2080006,5.52853254 38.2080006,5.67359994 C38.2080006,5.81866733 38.2847998,5.9381328 38.4384006,6.03199994 C38.5920013,6.12586708 38.7818661,6.19839969 39.0080006,6.24959994 C39.234135,6.3008002 39.4794659,6.3711995 39.7440006,6.46079995 C40.0085353,6.5504004 40.2538661,6.65493269 40.4800006,6.77439995 C40.7061351,6.89386722 40.8959998,7.07946536 41.0496006,7.33119996 C41.2032014,7.58293456 41.2800006,7.88799818 41.2800006,8.24639997 C41.2800006,8.82666955 41.0730693,9.28319833 40.6592006,9.61599999 C40.2453319,9.94880166 39.6672043,10.1152 38.9248006,10.1152 C38.2847974,10.1152 37.7386695,10.0042678 37.2864006,9.7824 C36.8341316,9.56053222 36.6080005,9.30453477 36.6080005,9.01439999 Z M42.1888006,7.51679996 L42.1888006,4.44479992 C42.1888006,4.31679928 42.2719998,4.1973338 42.4384006,4.08639991 C42.6048015,3.97546602 42.7989329,3.91999991 43.0208006,3.91999991 C43.234135,3.91999991 43.4239998,3.97546602 43.5904006,4.08639991 C43.7568015,4.1973338 43.8400007,4.31679928 43.8400007,4.44479992 L43.8400007,7.51679996 C43.8400007,7.81546813 43.9509329,8.08213213 44.1728007,8.31679997 C44.3946684,8.55146782 44.6591991,8.66879998 44.9664007,8.66879998 C45.2736022,8.66879998 45.5359996,8.55146782 45.7536007,8.31679997 C45.9712018,8.08213213 46.0800007,7.81546813 46.0800007,7.51679996 L46.0800007,4.43199992 C46.0800007,4.2954659 46.1631999,4.17600043 46.3296007,4.07359991 C46.4960015,3.9711994 46.6901329,3.91999991 46.9120007,3.91999991 C47.1509352,3.91999991 47.3471999,3.9711994 47.5008007,4.07359991 C47.6544015,4.17600043 47.7312007,4.2954659 47.7312007,4.43199992 L47.7312007,7.51679996 C47.7312007,8.20800343 47.4581368,8.81386405 46.9120007,9.33439999 C46.3658646,9.85493593 45.7173378,10.1152 44.9664007,10.1152 C44.2154636,10.1152 43.5648034,9.85493593 43.0144006,9.33439999 C42.4639979,8.81386405 42.1888006,8.20800343 42.1888006,7.51679996 Z M48.9600007,9.47519999 L48.9600007,4.43199992 C48.9600007,4.27839915 49.0346667,4.15466705 49.1840007,4.06079991 C49.3333348,3.96693277 49.5317328,3.91999991 49.7792007,3.91999991 C49.9840018,3.91999991 50.1568,3.96693277 50.2976007,4.06079991 C50.4384015,4.15466705 50.5088008,4.27839915 50.5088008,4.43199992 L50.5088008,4.81599992 C50.8757359,4.16746334 51.4389303,3.84319991 52.1984008,3.84319991 C52.5568026,3.84319991 52.8789327,3.96053207 53.1648008,4.19519991 C53.4506689,4.42986776 53.6618668,4.739198 53.7984008,5.12319993 C54.0117352,4.7050645 54.2911991,4.387201 54.6368008,4.16959991 C54.9824025,3.95199882 55.3471989,3.84319991 55.7312008,3.84319991 C56.3456039,3.84319991 56.8789319,4.07786423 57.3312009,4.54719992 C57.7834698,5.01653561 58.0096009,5.64799597 58.0096009,6.44159995 L58.0096009,9.47519999 C58.0096009,9.60320063 57.9264017,9.72266611 57.7600009,9.8336 C57.5936,9.94453389 57.3994686,10 57.1776009,10 C56.9642664,10 56.7744017,9.94453389 56.6080008,9.8336 C56.4416,9.72266611 56.3584008,9.60320063 56.3584008,9.47519999 L56.3584008,6.44159995 C56.3584008,6.08319815 56.2560019,5.79946765 56.0512008,5.59039993 C55.8463998,5.38133222 55.6032022,5.27679993 55.3216008,5.27679993 C55.0485328,5.27679993 54.8117352,5.38133222 54.6112008,5.59039993 C54.4106665,5.79946765 54.3104008,6.07893153 54.3104008,6.42879995 L54.3104008,9.48799999 C54.3104008,9.65866751 54.229335,9.78666624 54.0672008,9.872 C53.9050667,9.95733376 53.708802,10 53.4784008,10 C53.2650664,10 53.0752016,9.95520045 52.9088008,9.8656 C52.7424,9.77599955 52.6592008,9.65013414 52.6592008,9.48799999 L52.6592008,6.44159995 C52.6592008,6.1002649 52.5546685,5.82293434 52.3456008,5.60959993 C52.1365331,5.39626553 51.8912022,5.28959993 51.6096008,5.28959993 C51.3365327,5.28959993 51.1018684,5.39199891 50.9056008,5.59679993 C50.7093331,5.80160096 50.6112008,6.08319815 50.6112008,6.44159995 L50.6112008,9.47519999 C50.6112008,9.60320063 50.5280016,9.72266611 50.3616008,9.8336 C50.1951999,9.94453389 50.0010685,10 49.7792007,10 C49.5487996,10 49.3546682,9.9466672 49.1968007,9.84 C49.0389333,9.7333328 48.9600007,9.61173401 48.9600007,9.47519999 Z" id="Impressum" fill="#FFFFFF"></path>
    </g>
</svg>