<?xml version="1.0" encoding="UTF-8"?>
<svg width="59px" height="13px" viewBox="0 0 59 13" version="1.1" xmlns="http://www.w3.org/2000/svg" xmlns:xlink="http://www.w3.org/1999/xlink">
    <!-- Generator: Sketch 46 (44423) - http://www.bohemiancoding.com/sketch -->
    <title>Impressum</title>
    <desc>Created with Sketch.</desc>
    <defs></defs>
    <g id="Page-1" stroke="none" stroke-width="1" fill="none" fill-rule="evenodd">
        <path d="M0.78,9.467 L0.78,1.017 C0.78,0.8436658 0.86233251,0.7136671 1.027,0.627 C1.19166749,0.5403329 1.39099883,0.497 1.625,0.497 C1.85900117,0.497 2.05833251,0.5403329 2.223,0.627 C2.38766749,0.7136671 2.47,0.8436658 2.47,1.017 L2.47,9.467 C2.47,9.63166749 2.38550085,9.76166619 2.2165,9.857 C2.04749916,9.95233381 1.85033446,10 1.625,10 C1.39099883,10 1.19166749,9.95233381 1.027,9.857 C0.86233251,9.76166619 0.78,9.63166749 0.78,9.467 Z M3.9,9.467 L3.9,4.345 C3.9,4.18899922 3.97583258,4.06333381 4.1275,3.968 C4.27916743,3.87266619 4.48066541,3.825 4.732,3.825 C4.94000104,3.825 5.11549928,3.87266619 5.2585,3.968 C5.40150071,4.06333381 5.473,4.18899922 5.473,4.345 L5.473,4.735 C5.84566853,4.07633004 6.41766281,3.747 7.189,3.747 C7.55300182,3.747 7.88016521,3.86616548 8.1705,4.1045 C8.46083478,4.34283453 8.67533264,4.65699805 8.814,5.047 C9.03066775,4.62233121 9.31449824,4.2995011 9.6655,4.0785 C10.0165018,3.85749889 10.386998,3.747 10.777,3.747 C11.4010031,3.747 11.9426644,3.98533095 12.402,4.462 C12.8613356,4.93866905 13.091,5.57999597 13.091,6.386 L13.091,9.467 C13.091,9.59700065 13.0065008,9.71833277 12.8375,9.831 C12.6684992,9.94366723 12.4713345,10 12.246,10 C12.0293322,10 11.8365008,9.94366723 11.6675,9.831 C11.4984992,9.71833277 11.414,9.59700065 11.414,9.467 L11.414,6.386 C11.414,6.02199818 11.310001,5.7338344 11.102,5.5215 C10.893999,5.30916561 10.6470014,5.203 10.361,5.203 C10.0836653,5.203 9.84316769,5.30916561 9.6395,5.5215 C9.43583232,5.7338344 9.334,6.01766489 9.334,6.373 L9.334,9.48 C9.334,9.6533342 9.25166749,9.7833329 9.087,9.87 C8.92233251,9.9566671 8.72300117,10 8.489,10 C8.27233225,10 8.07950084,9.95450045 7.9105,9.8635 C7.74149915,9.77249954 7.657,9.64466749 7.657,9.48 L7.657,6.386 C7.657,6.0393316 7.55083439,5.75766775 7.3385,5.541 C7.1261656,5.32433225 6.87700143,5.216 6.591,5.216 C6.31366528,5.216 6.07533433,5.31999896 5.876,5.528 C5.67666567,5.73600104 5.577,6.02199818 5.577,6.386 L5.577,9.467 C5.577,9.59700065 5.49250084,9.71833277 5.3235,9.831 C5.15449915,9.94366723 4.95733446,10 4.732,10 C4.49799883,10 4.30083414,9.94583388 4.1405,9.8375 C3.98016587,9.72916613 3.9,9.60566736 3.9,9.467 Z M14.352,12.34 L14.352,4.345 C14.352,4.18899922 14.4278326,4.06333381 14.5795,3.968 C14.7311674,3.87266619 14.9196655,3.825 15.145,3.825 C15.3703345,3.825 15.5566659,3.87266619 15.704,3.968 C15.8513341,4.06333381 15.925,4.18899922 15.925,4.345 L15.925,4.735 C16.0896675,4.45766528 16.3258318,4.22366762 16.6335,4.033 C16.9411682,3.84233238 17.2899981,3.747 17.68,3.747 C18.3300033,3.747 18.8803311,4.00483076 19.331,4.5205 C19.7816689,5.03616924 20.007,5.65799636 20.007,6.386 L20.007,7.452 C20.007,8.15400351 19.7773356,8.77366398 19.318,9.311 C18.8586644,9.84833602 18.330003,10.117 17.732,10.117 C17.3593315,10.117 17.0148349,10.0151677 16.6985,9.8115 C16.3821651,9.60783231 16.1590006,9.36733472 16.029,9.09 L16.029,12.34 C16.029,12.4786674 15.9445008,12.6021661 15.7755,12.7105 C15.6064992,12.8188339 15.4050012,12.873 15.171,12.873 C14.9369988,12.873 14.7420008,12.8188339 14.586,12.7105 C14.4299992,12.6021661 14.352,12.4786674 14.352,12.34 Z M16.029,7.686 C16.029,7.8593342 16.1459988,8.06299883 16.38,8.297 C16.6140012,8.53100117 16.8783319,8.648 17.173,8.648 C17.4763349,8.648 17.7449988,8.52450124 17.979,8.2775 C18.2130012,8.03049877 18.33,7.75533485 18.33,7.452 L18.33,6.386 C18.33,6.08266515 18.2130012,5.81183452 17.979,5.5735 C17.7449988,5.33516547 17.4676683,5.216 17.147,5.216 C16.8523319,5.216 16.5923345,5.32433225 16.367,5.541 C16.1416655,5.75766775 16.029,6.0393316 16.029,6.386 L16.029,7.686 Z M21.086,9.467 L21.086,4.345 C21.086,4.18899922 21.1618326,4.06333381 21.3135,3.968 C21.4651674,3.87266619 21.6623321,3.825 21.905,3.825 C22.1216678,3.825 22.3014993,3.87266619 22.4445,3.968 C22.5875007,4.06333381 22.659,4.18899922 22.659,4.345 L22.659,4.878 C22.7976674,4.57466515 23.0143319,4.31033446 23.309,4.085 C23.6036681,3.85966554 23.9199983,3.747 24.258,3.747 L24.661,3.747 C24.8170008,3.747 24.9578327,3.82066593 25.0835,3.968 C25.2091673,4.11533407 25.272,4.28433238 25.272,4.475 C25.272,4.67433433 25.2091673,4.84766593 25.0835,4.995 C24.9578327,5.14233407 24.8170008,5.216 24.661,5.216 L24.258,5.216 C23.8593313,5.216 23.5105015,5.39366489 23.2115,5.749 C22.9124985,6.10433511 22.763,6.56799714 22.763,7.14 L22.763,9.467 C22.763,9.59700065 22.6763342,9.71833277 22.503,9.831 C22.3296658,9.94366723 22.1303345,10 21.905,10 C21.6709988,10 21.4760008,9.94583388 21.32,9.8375 C21.1639992,9.72916613 21.086,9.60566736 21.086,9.467 Z M25.623,7.452 L25.623,6.347 C25.623,5.63632978 25.9003306,5.02533589 26.455,4.514 C27.0096694,4.00266411 27.6813294,3.747 28.47,3.747 C29.2066704,3.747 29.837164,3.97883101 30.3615,4.4425 C30.885836,4.90616898 31.148,5.48899649 31.148,6.191 C31.148,6.4510013 31.1155003,6.66549915 31.0505,6.8345 C30.9854997,7.00350084 30.885834,7.12266632 30.7515,7.192 C30.617166,7.26133368 30.4936672,7.30466658 30.381,7.322 C30.2683328,7.33933342 30.1210009,7.348 29.939,7.348 L27.3,7.348 L27.3,7.543 C27.3,7.91566853 27.4386653,8.21683218 27.716,8.4465 C27.9933347,8.67616781 28.3616644,8.791 28.821,8.791 C29.150335,8.791 29.4753317,8.70866749 29.796,8.544 C30.1166683,8.37933251 30.3246662,8.297 30.42,8.297 C30.6020009,8.297 30.7536661,8.38149916 30.875,8.5505 C30.9963339,8.71950084 31.057,8.88199922 31.057,9.038 C31.057,9.28066788 30.8381689,9.52116548 30.4005,9.7595 C29.9628311,9.99783453 29.4190033,10.117 28.769,10.117 C27.841662,10.117 27.0855029,9.87216911 26.5005,9.3825 C25.9154971,8.89283088 25.623,8.24933732 25.623,7.452 Z M27.3,6.36 L29.198,6.36 C29.3366674,6.36 29.4341664,6.3361669 29.4905,6.2885 C29.5468336,6.24083309 29.575,6.14766736 29.575,6.009 C29.575,5.70566515 29.4645011,5.45866762 29.2435,5.268 C29.0224989,5.07733238 28.7516683,4.982 28.431,4.982 C28.1276651,4.982 27.8633345,5.07516573 27.638,5.2615 C27.4126655,5.44783427 27.3,5.69266515 27.3,5.996 L27.3,6.36 Z M31.798,8.999 C31.798,8.84299922 31.8543328,8.68050085 31.967,8.5115 C32.0796672,8.34249915 32.2096659,8.258 32.357,8.258 C32.4523338,8.258 32.5714993,8.30566619 32.7145,8.401 C32.8575007,8.49633381 33.0459988,8.59383284 33.28,8.6935 C33.5140012,8.79316716 33.7913317,8.843 34.112,8.843 C34.7446698,8.843 35.061,8.65666853 35.061,8.284 C35.061,8.07599896 34.9548344,7.91133394 34.7425,7.79 C34.5301656,7.66866606 34.2745015,7.56900039 33.9755,7.491 C33.6764985,7.41299961 33.3753348,7.31983388 33.072,7.2115 C32.7686651,7.10316613 32.5108344,6.92116795 32.2985,6.6655 C32.0861656,6.40983206 31.98,6.08266866 31.98,5.684 C31.98,5.15533069 32.1663315,4.70033524 32.539,4.319 C32.9116685,3.93766476 33.500996,3.747 34.307,3.747 C34.844336,3.747 35.3231646,3.82933251 35.7435,3.994 C36.1638354,4.15866749 36.374,4.35799883 36.374,4.592 C36.374,4.73933407 36.3155006,4.91049903 36.1985,5.1055 C36.0814994,5.30050098 35.9363342,5.398 35.763,5.398 C35.6936663,5.398 35.5051682,5.33516729 35.1975,5.2095 C34.8898318,5.0838327 34.601668,5.021 34.333,5.021 C34.0383319,5.021 33.8130008,5.08166606 33.657,5.203 C33.5009992,5.32433394 33.423,5.45866593 33.423,5.606 C33.423,5.75333407 33.5009992,5.87466619 33.657,5.97 C33.8130008,6.06533381 34.0058322,6.13899974 34.2355,6.191 C34.4651678,6.24300026 34.714332,6.31449954 34.983,6.4055 C35.251668,6.49650045 35.5008322,6.60266606 35.7305,6.724 C35.9601678,6.84533394 36.1529992,7.03383206 36.309,7.2895 C36.4650008,7.54516795 36.543,7.85499818 36.543,8.219 C36.543,8.80833628 36.3328354,9.27199831 35.9125,9.61 C35.4921646,9.94800169 34.9050038,10.117 34.151,10.117 C33.5009968,10.117 32.9463356,10.0043345 32.487,9.779 C32.0276644,9.55366554 31.798,9.29366814 31.798,8.999 Z M37.18,8.999 C37.18,8.84299922 37.2363328,8.68050085 37.349,8.5115 C37.4616672,8.34249915 37.5916659,8.258 37.739,8.258 C37.8343338,8.258 37.9534993,8.30566619 38.0965,8.401 C38.2395007,8.49633381 38.4279988,8.59383284 38.662,8.6935 C38.8960012,8.79316716 39.1733317,8.843 39.494,8.843 C40.1266698,8.843 40.443,8.65666853 40.443,8.284 C40.443,8.07599896 40.3368344,7.91133394 40.1245,7.79 C39.9121656,7.66866606 39.6565015,7.56900039 39.3575,7.491 C39.0584985,7.41299961 38.7573348,7.31983388 38.454,7.2115 C38.1506652,7.10316613 37.8928344,6.92116795 37.6805,6.6655 C37.4681656,6.40983206 37.362,6.08266866 37.362,5.684 C37.362,5.15533069 37.5483315,4.70033524 37.921,4.319 C38.2936685,3.93766476 38.882996,3.747 39.689,3.747 C40.226336,3.747 40.7051646,3.82933251 41.1255,3.994 C41.5458354,4.15866749 41.756,4.35799883 41.756,4.592 C41.756,4.73933407 41.6975006,4.91049903 41.5805,5.1055 C41.4634994,5.30050098 41.3183342,5.398 41.145,5.398 C41.0756663,5.398 40.8871682,5.33516729 40.5795,5.2095 C40.2718318,5.0838327 39.983668,5.021 39.715,5.021 C39.4203319,5.021 39.1950008,5.08166606 39.039,5.203 C38.8829992,5.32433394 38.805,5.45866593 38.805,5.606 C38.805,5.75333407 38.8829992,5.87466619 39.039,5.97 C39.1950008,6.06533381 39.3878322,6.13899974 39.6175,6.191 C39.8471678,6.24300026 40.096332,6.31449954 40.365,6.4055 C40.633668,6.49650045 40.8828322,6.60266606 41.1125,6.724 C41.3421678,6.84533394 41.5349992,7.03383206 41.691,7.2895 C41.8470008,7.54516795 41.925,7.85499818 41.925,8.219 C41.925,8.80833628 41.7148354,9.27199831 41.2945,9.61 C40.8741646,9.94800169 40.2870038,10.117 39.533,10.117 C38.8829968,10.117 38.3283356,10.0043345 37.869,9.779 C37.4096644,9.55366554 37.18,9.29366814 37.18,8.999 Z M42.848,7.478 L42.848,4.358 C42.848,4.22799935 42.9324992,4.10666723 43.1015,3.994 C43.2705008,3.88133277 43.4676655,3.825 43.693,3.825 C43.9096677,3.825 44.1024992,3.88133277 44.2715,3.994 C44.4405008,4.10666723 44.525,4.22799935 44.525,4.358 L44.525,7.478 C44.525,7.78133485 44.6376655,8.05216548 44.863,8.2905 C45.0883345,8.52883453 45.3569984,8.648 45.669,8.648 C45.9810016,8.648 46.2474989,8.52883453 46.4685,8.2905 C46.6895011,8.05216548 46.8,7.78133485 46.8,7.478 L46.8,4.345 C46.8,4.20633264 46.8844992,4.08500052 47.0535,3.981 C47.2225008,3.87699948 47.4196655,3.825 47.645,3.825 C47.8876679,3.825 48.0869992,3.87699948 48.243,3.981 C48.3990008,4.08500052 48.477,4.20633264 48.477,4.345 L48.477,7.478 C48.477,8.18000351 48.1996694,8.79533069 47.645,9.324 C47.0903306,9.85266931 46.4316705,10.117 45.669,10.117 C44.9063295,10.117 44.2455028,9.85266931 43.6865,9.324 C43.1274972,8.79533069 42.848,8.18000351 42.848,7.478 Z M49.725,9.467 L49.725,4.345 C49.725,4.18899922 49.8008326,4.06333381 49.9525,3.968 C50.1041674,3.87266619 50.3056654,3.825 50.557,3.825 C50.765001,3.825 50.9404993,3.87266619 51.0835,3.968 C51.2265007,4.06333381 51.298,4.18899922 51.298,4.345 L51.298,4.735 C51.6706685,4.07633004 52.2426628,3.747 53.014,3.747 C53.3780018,3.747 53.7051652,3.86616548 53.9955,4.1045 C54.2858348,4.34283453 54.5003326,4.65699805 54.639,5.047 C54.8556678,4.62233121 55.1394982,4.2995011 55.4905,4.0785 C55.8415018,3.85749889 56.211998,3.747 56.602,3.747 C57.2260031,3.747 57.7676644,3.98533095 58.227,4.462 C58.6863356,4.93866905 58.916,5.57999597 58.916,6.386 L58.916,9.467 C58.916,9.59700065 58.8315008,9.71833277 58.6625,9.831 C58.4934992,9.94366723 58.2963345,10 58.071,10 C57.8543322,10 57.6615008,9.94366723 57.4925,9.831 C57.3234992,9.71833277 57.239,9.59700065 57.239,9.467 L57.239,6.386 C57.239,6.02199818 57.135001,5.7338344 56.927,5.5215 C56.718999,5.30916561 56.4720014,5.203 56.186,5.203 C55.9086653,5.203 55.6681677,5.30916561 55.4645,5.5215 C55.2608323,5.7338344 55.159,6.01766489 55.159,6.373 L55.159,9.48 C55.159,9.6533342 55.0766675,9.7833329 54.912,9.87 C54.7473325,9.9566671 54.5480012,10 54.314,10 C54.0973323,10 53.9045008,9.95450045 53.7355,9.8635 C53.5664992,9.77249954 53.482,9.64466749 53.482,9.48 L53.482,6.386 C53.482,6.0393316 53.3758344,5.75766775 53.1635,5.541 C52.9511656,5.32433225 52.7020014,5.216 52.416,5.216 C52.1386653,5.216 51.9003343,5.31999896 51.701,5.528 C51.5016657,5.73600104 51.402,6.02199818 51.402,6.386 L51.402,9.467 C51.402,9.59700065 51.3175008,9.71833277 51.1485,9.831 C50.9794992,9.94366723 50.7823345,10 50.557,10 C50.3229988,10 50.1258341,9.94583388 49.9655,9.8375 C49.8051659,9.72916613 49.725,9.60566736 49.725,9.467 Z" id="Impressum" fill="#FFFFFF"></path>
    </g>
</svg>