<svg xmlns="http://www.w3.org/2000/svg" viewBox="0 0 346 369"><defs><style>.cls-1{opacity:0.4;}.cls-2{fill:#f1f7f7;}.cls-3{fill:#fff;}.cls-4{fill:#38464a;}.cls-5{fill:#dce7ed;}.cls-6{fill:#bdd0da;}.cls-7{fill:#ff8c5d;}.cls-8{fill:#fc7541;}.cls-9{fill:#c8f6f4;opacity:0.5;}</style></defs><title>korrekturlesen</title><g id="Layer_2" data-name="Layer 2"><g id="Layer_1-2" data-name="Layer 1"><g class="cls-1"><circle class="cls-2" cx="183" cy="163" r="163"/></g><g class="cls-1"><circle class="cls-2" cx="163" cy="206" r="163"/></g><rect class="cls-3" x="70.75" y="30" width="206" height="282" rx="12" ry="12"/><path class="cls-4" d="M264.75,313.5h-182A13.52,13.52,0,0,1,69.25,300V108.13h3V300a10.51,10.51,0,0,0,10.5,10.5h182a10.51,10.51,0,0,0,10.5-10.5V42a10.51,10.51,0,0,0-10.5-10.5h-182A10.51,10.51,0,0,0,72.25,42V88.13h-3V42a13.52,13.52,0,0,1,13.5-13.5h182A13.52,13.52,0,0,1,278.25,42V300A13.52,13.52,0,0,1,264.75,313.5Z"/><rect class="cls-5" x="96.75" y="156.5" width="151" height="8.8"/><rect class="cls-5" x="96.75" y="175.57" width="151" height="8.8"/><rect class="cls-5" x="96.75" y="194.63" width="151" height="8.8"/><rect class="cls-5" x="96.75" y="213.7" width="79" height="8.8"/><path class="cls-4" d="M72.25,104V96.5a1.5,1.5,0,0,0-3,0V104a1.5,1.5,0,0,0,3,0Z"/><path class="cls-6" d="M49.5,63.5a6.26,6.26,0,0,1-6.25-6.25h3A3.25,3.25,0,1,0,49.5,54V51a6.25,6.25,0,0,1,0,12.5Z"/><path class="cls-6" d="M291.61,109A5.68,5.68,0,0,1,290,97.84l.86,2.87a2.68,2.68,0,1,0,3.34,1.8l2.87-.86a5.68,5.68,0,0,1-3.8,7.08A5.71,5.71,0,0,1,291.61,109Z"/><path class="cls-6" d="M41.71,211a5.2,5.2,0,0,1-1.5-10.19l.86,2.87a2.2,2.2,0,1,0,2.74,1.47l2.87-.86a5.2,5.2,0,0,1-5,6.7Z"/><path class="cls-6" d="M212.43,336.72a5.54,5.54,0,0,1-1.59-10.84l.86,2.87a2.54,2.54,0,0,0-.47,4.67,2.51,2.51,0,0,0,1.93.19,2.54,2.54,0,0,0,1.7-3.16l2.87-.86a5.55,5.55,0,0,1-5.31,7.14Z"/><path class="cls-6" d="M98.31,337.56l19.5-19.5a1.5,1.5,0,0,0-2.12-2.12l-19.5,19.5a1.5,1.5,0,0,0,2.12,2.12Z"/><path class="cls-6" d="M30.25,128v19.5a1.5,1.5,0,0,0,3,0V128a1.5,1.5,0,0,0-3,0Z"/><path class="cls-6" d="M293.89,196.15l14.47-14c1.39-1.35-.73-3.47-2.12-2.12l-14.47,14c-1.39,1.35.73,3.47,2.12,2.12Z"/><path class="cls-6" d="M184.37,20.12l14.5-14.5a1.5,1.5,0,0,0-2.12-2.12L182.25,18a1.5,1.5,0,0,0,2.12,2.12Z"/><path class="cls-6" d="M98.69,3.06l15,15a1.5,1.5,0,0,0,2.12-2.12l-15-15a1.5,1.5,0,0,0-2.12,2.12Z"/><path class="cls-7" d="M193.25,246.83h9.83V182.17l-9.67-1.33v65.33"/><path class="cls-8" d="M197.75,182.05l-4-.55v65.33l-.17.67h4l.17-.67Z"/><circle class="cls-9" cx="197.75" cy="150.5" r="30"/><path class="cls-4" d="M198.25,182.5a31.5,31.5,0,1,1,31.5-31.5A31.54,31.54,0,0,1,198.25,182.5Zm0-60a28.5,28.5,0,1,0,28.5,28.5A28.53,28.53,0,0,0,198.25,122.5Z"/><path class="cls-4" d="M191.92,180.83v65.33a1.5,1.5,0,0,0,3,0V180.83a1.5,1.5,0,0,0-3,0Z"/><path class="cls-4" d="M201.58,182.17v64.67l1.5-1.5h-9.83a1.5,1.5,0,0,0,0,3h9.83a1.52,1.52,0,0,0,1.5-1.5V182.17a1.5,1.5,0,0,0-3,0Z"/><path class="cls-3" d="M219.8,138.29a31.24,31.24,0,0,1,3.49,14.3c0,3.76-.54,6-.86,6s-.47-2.3-.94-5.88a38.91,38.91,0,0,0-3.94-13.22,26,26,0,0,0-9.24-9.87c-3-1.83-5.25-2.34-5.18-2.74s2.48-.43,6,1.15A23.32,23.32,0,0,1,219.8,138.29Z"/></g></g></svg>