<svg xmlns="http://www.w3.org/2000/svg" viewBox="0 0 329.06 347.72"><defs><style>.cls-1{opacity:0.2;}.cls-2{fill:#231f20;}.cls-3{fill:#c75c5c;}.cls-4{fill:#e0995e;}.cls-5{fill:#f5cf87;}.cls-6{fill:#e0e0d1;}.cls-7{fill:#4f5d73;}</style></defs><title>rocket0</title><g id="Layer_2" data-name="Layer 2"><g id="Layer_1-2" data-name="Layer 1"><g class="cls-1"><path class="cls-2" d="M163.6,227.29c-13.37,13.37-52.31,107.77-52.31,107.77-5.71,10.38,2.84,17.92,22.28,8L203.45,305c37.65-20.93,44.93-26.39,44.43-69l-7-50.3c-2.4-17.23-15.3-20.39-28.67-7Z"/></g><g class="cls-1"><path class="cls-2" d="M120.43,184.12c-13.37,13.37-107.77,52.31-107.77,52.31-10.38,5.71-17.92-2.84-8-22.28l38.11-69.88c20.93-37.65,26.39-44.93,69-44.43l50.3,7c17.23,2.4,20.39,15.3,7,28.67Z"/></g><path class="cls-3" d="M163.6,210.11c-13.37,13.37-52.31,107.77-52.31,107.77-5.71,10.38,2.84,17.92,22.28,8l69.88-38.11c37.65-20.93,44.93-26.39,44.43-69l-7-50.3c-2.4-17.23-15.3-20.39-28.67-7Z"/><path class="cls-3" d="M120.43,166.93C107.06,180.3,12.66,219.24,12.66,219.24,2.28,225-5.26,216.41,4.62,197l38.11-69.88c20.93-37.65,26.39-44.93,69-44.43l50.3,7c17.23,2.4,20.39,15.3,7,28.67Z"/><g class="cls-1"><path class="cls-2" d="M70.37,226.12c43.6-43.6,80.24-30.3,80.24-30.3s13.31,36.64-30.3,80.24S6.09,351.34.59,345.84C-4.74,340.5,26.76,269.72,70.37,226.12Z"/></g><path class="cls-4" d="M70.37,208.93c43.6-43.6,80.24-30.3,80.24-30.3s13.31,36.64-30.3,80.24S6.09,334.15.59,328.65C-4.74,323.31,26.76,252.53,70.37,208.93Z"/><path class="cls-5" d="M106.82,172.47c43.6-43.6,80.24-30.3,80.24-30.3s13.31,36.64-30.3,80.24S42.54,297.69,37,292.19C31.71,286.86,63.22,216.07,106.82,172.47Z"/><g class="cls-1"><path class="cls-2" d="M262.76,204.92c-67.12,67.12-170,48.75-170,48.75s-18.36-102.88,48.75-170S310.31,9.4,323.66,22.75C336.61,35.71,329.88,137.8,262.76,204.92Z"/></g><path class="cls-6" d="M262.76,187.73c-67.12,67.12-170,48.75-170,48.75S74.38,133.6,141.5,66.47,310.31-7.79,323.66,5.57C336.61,18.52,329.88,120.61,262.76,187.73Z"/><g class="cls-1"><path class="cls-2" d="M68.44,290.13c-6.71,6.71-11.52,12.79-18.23,6.08h0c-6.71-6.71-.64-11.52,6.08-18.23L141.36,168.6c6.71-6.71,35.83-12.79,42.54-6.08h0c6.71,6.71.64,35.83-6.08,42.54Z"/></g><path class="cls-3" d="M68.44,272.94c-6.71,6.71-11.52,12.79-18.23,6.08h0c-6.71-6.71-.64-11.52,6.08-18.23l85.07-109.38c6.71-6.71,35.83-12.79,42.54-6.08h0c6.71,6.71.64,35.83-6.08,42.54Z"/><g class="cls-1"><circle class="cls-2" cx="228.12" cy="119.6" r="34.37" transform="translate(-17.76 196.34) rotate(-45)"/></g><g class="cls-1"><circle class="cls-2" cx="276.74" cy="70.99" r="17.19" transform="translate(30.86 216.47) rotate(-45)"/></g><circle class="cls-7" cx="228.12" cy="102.41" r="34.37" transform="translate(-5.6 191.3) rotate(-45)"/><circle class="cls-7" cx="276.74" cy="53.8" r="17.19" transform="translate(43.01 211.44) rotate(-45)"/></g></g></svg>