<svg xmlns="http://www.w3.org/2000/svg" viewBox="0 0 337.93 402.11"><defs><style>.cls-1{fill:#231f20;opacity:0.1;}.cls-2{fill:#45cedf;}.cls-3{fill:#607d8b;}.cls-4{fill:none;stroke:#fff;stroke-miterlimit:10;stroke-width:8px;}</style></defs><title>secure0</title><g id="Layer_2" data-name="Layer 2"><g id="Layer_1-2" data-name="Layer 1"><path id="path10" class="cls-1" d="M337.78,87.9A9.79,9.79,0,0,0,329.21,78a353.72,353.72,0,0,1-69-17.15c-22.3-8.15-47.16-19.72-73.75-34.73a11,11,0,0,0-10.3,0c-26.58,15-51,26.58-73.75,34.73A349.76,349.76,0,0,1,33.76,78c-4.71.43-8.57,4.72-9,9.86Q21.54,230,86.93,320.74c23.59,33,53.61,59.6,89.19,79.77a9.06,9.06,0,0,0,10.3,0c35.59-20.59,65.6-47.17,89.19-79.77Q341.21,230,337.78,87.9Z"/><path id="path8" class="cls-2" d="M143.55,372.1a262.62,262.62,0,0,1-84.54-76C13.19,233.17-1.7,155.33.15,79v-1.1l.37-1.13C2,61.09,13.56,48.42,29.2,46.56A256,256,0,0,0,84,32.78c20.86-7.45,41-17.5,60.33-28.31a32.31,32.31,0,0,1,32.79,0c19.37,10.81,39.85,20.86,60.71,28.31a245.3,245.3,0,0,0,54.74,13.78A33.54,33.54,0,0,1,321.21,79c1.5,76.37-13,154.21-58.84,217.15a270.53,270.53,0,0,1-84.55,76c-10.8,6.33-24.2,6.33-34.27,0ZM296.63,79.34a8.51,8.51,0,0,0-7.45-8.57,307.24,307.24,0,0,1-60-14.9c-19.37-7.08-41-17.13-64.06-30.16a9.51,9.51,0,0,0-8.95,0c-23.09,13-44.31,23.09-64.06,30.16a303.8,303.8,0,0,1-59.6,14.9c-4.09.37-7.45,4.1-7.82,8.57q-2.79,123.45,54,202.24a238.72,238.72,0,0,0,77.47,69.28,7.87,7.87,0,0,0,8.95,0c30.91-17.89,57-41,77.47-69.28q57-78.78,54-202.24Z"/><path id="path10-2" data-name="path10" class="cls-3" d="M296.63,79.34a8.51,8.51,0,0,0-7.45-8.57,307.24,307.24,0,0,1-60-14.9c-19.37-7.08-41-17.13-64.06-30.16a9.51,9.51,0,0,0-8.95,0c-23.09,13-44.31,23.09-64.06,30.16a303.8,303.8,0,0,1-59.6,14.9c-4.09.37-7.45,4.1-7.82,8.57q-2.79,123.45,54,202.24a238.72,238.72,0,0,0,77.47,69.28,7.87,7.87,0,0,0,8.95,0c30.91-17.89,57-41,77.47-69.28q57-78.78,54-202.24Z"/><line class="cls-4" x1="81.97" y1="143.5" x2="135.21" y2="143.5"/><line class="cls-4" x1="155.97" y1="143.5" x2="171.97" y2="143.5"/><line class="cls-4" x1="178.97" y1="143.5" x2="194.97" y2="143.5"/><line class="cls-4" x1="200.97" y1="143.5" x2="216.97" y2="143.5"/><line class="cls-4" x1="223.97" y1="143.5" x2="239.97" y2="143.5"/><line class="cls-4" x1="245.97" y1="143.5" x2="261.97" y2="143.5"/><line class="cls-4" x1="110.97" y1="247" x2="126.97" y2="247"/><line class="cls-4" x1="133.97" y1="247" x2="149.97" y2="247"/><line class="cls-4" x1="155.97" y1="247" x2="171.97" y2="247"/><line class="cls-4" x1="178.97" y1="247" x2="194.97" y2="247"/><line class="cls-4" x1="200.97" y1="247" x2="216.97" y2="247"/><line class="cls-4" x1="65.97" y1="178" x2="81.97" y2="178"/><line class="cls-4" x1="88.97" y1="178" x2="104.97" y2="178"/><line class="cls-4" x1="110.97" y1="178" x2="126.97" y2="178"/><line class="cls-4" x1="133.97" y1="178" x2="149.97" y2="178"/><line class="cls-4" x1="155.97" y1="178" x2="171.97" y2="178"/><line class="cls-4" x1="148.97" y1="212.5" x2="164.97" y2="212.5"/><line class="cls-4" x1="171.97" y1="212.5" x2="187.97" y2="212.5"/><line class="cls-4" x1="193.97" y1="212.5" x2="209.97" y2="212.5"/><line class="cls-4" x1="216.97" y1="212.5" x2="232.97" y2="212.5"/><line class="cls-4" x1="238.97" y1="212.5" x2="254.97" y2="212.5"/><line class="cls-4" x1="58.97" y1="109" x2="225.97" y2="109"/></g></g></svg>