<svg xmlns="http://www.w3.org/2000/svg" viewBox="0 0 431.03 502.03"><defs><style>.cls-1{fill:#546e7a;}.cls-2{fill:#607d8b;}.cls-3{fill:#37474f;}.cls-4{fill:#455a64;}.cls-5{fill:#febb1e;}.cls-6{fill:#ffe57f;}.cls-7{fill:#ffc400;}.cls-8{fill:#fff;}.cls-9{opacity:0.4;}.cls-10{fill:#b78027;}</style></defs><title>supply0</title><g id="Layer_2" data-name="Layer 2"><g id="Layer_1-2" data-name="Layer 1"><polygon class="cls-1" points="198.28 137.93 172.41 137.93 129.31 25.86 198.28 34.48 198.28 137.93"/><polygon class="cls-2" points="258.62 137.93 189.66 137.93 189.66 0 310.35 25.86 258.62 137.93"/><path class="cls-2" d="M405.17,409.48V310.34c0-99.57-81.47-181-181-181H206.9c-99.57,0-181,81.47-181,181v99.14c0,12.93,0,30.17-12.93,38.79S0,479.93,0,487.07V500H431V487.07c0-7.14,0-30.17-12.93-38.79S405.17,422.41,405.17,409.48Z"/><path class="cls-1" d="M405.17,409.48V310.34c0-99.57-81.47-181-181-181,0,0,94.83,51.72,94.83,181,0,163.79-8.62,181-137.93,181-8.62,0,129.31,8.62,120.69,8.62H431V487.07c0-7.14,0-30.17-12.93-38.79S405.17,422.41,405.17,409.48Z"/><path class="cls-1" d="M283,20c-6.23,47.53-34,83.44-67.53,83.44a49.44,49.44,0,0,1-25.86-7.59v42.08h69L310.34,25.86Z"/><path class="cls-1" d="M206.9,129.31a179.23,179.23,0,0,0-58.67,10c5.35,4.08,24.5,15.85,67.29,15.85s61.94-11.78,67.29-15.85a179.23,179.23,0,0,0-58.67-10Z"/><path class="cls-3" d="M275,125.52a8.64,8.64,0,0,0-11.52-3.94c-.16.08-16.33,7.73-47.92,7.73-31.31,0-47.47-7.52-47.91-7.72A8.62,8.62,0,0,0,159.93,137c.79.38,19.49,9.53,55.59,9.53s54.79-9.15,55.58-9.53A8.6,8.6,0,0,0,275,125.52Z"/><path class="cls-3" d="M275,125.52a8.64,8.64,0,0,0-11.52-3.94c-.16.08-16.33,7.73-47.92,7.73-31.31,0-47.47-7.52-47.91-7.72A8.62,8.62,0,0,0,159.93,137c.79.38,19.49,9.53,55.59,9.53s54.79-9.15,55.58-9.53A8.6,8.6,0,0,0,275,125.52Z"/><rect class="cls-4" y="491.38" width="431.03" height="8.62"/><rect class="cls-5" x="19.14" y="432.55" width="155.17" height="34.48"/><rect class="cls-6" x="19.14" y="432.55" width="77.59" height="34.48"/><rect class="cls-7" x="19.14" y="458.41" width="155.17" height="8.62"/><rect class="cls-8" x="27.76" y="432.55" width="8.62" height="25.86"/><g class="cls-9"><rect class="cls-10" x="113.97" y="432.55" width="8.62" height="25.86"/><rect class="cls-10" x="131.21" y="432.55" width="8.62" height="25.86"/><rect class="cls-10" x="148.45" y="432.55" width="8.62" height="25.86"/><rect class="cls-10" x="165.69" y="432.55" width="8.62" height="25.86"/></g><rect class="cls-5" x="42.14" y="467.55" width="155.17" height="34.48"/><rect class="cls-6" x="42.14" y="467.55" width="77.59" height="34.48"/><rect class="cls-7" x="42.14" y="493.41" width="155.17" height="8.62"/><rect class="cls-8" x="50.76" y="467.55" width="8.62" height="25.86"/><g class="cls-9"><rect class="cls-10" x="136.97" y="467.55" width="8.62" height="25.86"/><rect class="cls-10" x="154.21" y="467.55" width="8.62" height="25.86"/><rect class="cls-10" x="171.45" y="467.55" width="8.62" height="25.86"/><rect class="cls-10" x="188.69" y="467.55" width="8.62" height="25.86"/></g><rect class="cls-5" x="238.14" y="398.55" width="155.17" height="34.48"/><rect class="cls-6" x="238.14" y="398.55" width="77.59" height="34.48"/><rect class="cls-7" x="238.14" y="424.41" width="155.17" height="8.62"/><rect class="cls-8" x="246.76" y="398.55" width="8.62" height="25.86"/><g class="cls-9"><rect class="cls-10" x="332.97" y="398.55" width="8.62" height="25.86"/><rect class="cls-10" x="350.21" y="398.55" width="8.62" height="25.86"/><rect class="cls-10" x="367.45" y="398.55" width="8.62" height="25.86"/><rect class="cls-10" x="384.69" y="398.55" width="8.62" height="25.86"/></g><rect class="cls-5" x="238.14" y="467.55" width="155.17" height="34.48"/><rect class="cls-6" x="238.14" y="467.55" width="77.59" height="34.48"/><rect class="cls-7" x="238.14" y="493.41" width="155.17" height="8.62"/><rect class="cls-8" x="246.76" y="467.55" width="8.62" height="25.86"/><g class="cls-9"><rect class="cls-10" x="332.97" y="467.55" width="8.62" height="25.86"/><rect class="cls-10" x="350.21" y="467.55" width="8.62" height="25.86"/><rect class="cls-10" x="367.45" y="467.55" width="8.62" height="25.86"/><rect class="cls-10" x="384.69" y="467.55" width="8.62" height="25.86"/></g><rect class="cls-5" x="250.64" y="433.05" width="155.17" height="34.48"/><rect class="cls-6" x="250.64" y="433.05" width="77.59" height="34.48"/><rect class="cls-7" x="250.64" y="458.91" width="155.17" height="8.62"/><rect class="cls-8" x="259.26" y="433.05" width="8.62" height="25.86"/><g class="cls-9"><rect class="cls-10" x="345.47" y="433.05" width="8.62" height="25.86"/><rect class="cls-10" x="362.71" y="433.05" width="8.62" height="25.86"/><rect class="cls-10" x="379.95" y="433.05" width="8.62" height="25.86"/><rect class="cls-10" x="397.19" y="433.05" width="8.62" height="25.86"/></g><rect class="cls-5" x="245.14" y="295.55" width="155.17" height="34.48"/><rect class="cls-6" x="245.14" y="295.55" width="77.59" height="34.48"/><rect class="cls-7" x="245.14" y="321.41" width="155.17" height="8.62"/><rect class="cls-8" x="253.76" y="295.55" width="8.62" height="25.86"/><g class="cls-9"><rect class="cls-10" x="339.97" y="295.55" width="8.62" height="25.86"/><rect class="cls-10" x="357.21" y="295.55" width="8.62" height="25.86"/><rect class="cls-10" x="374.45" y="295.55" width="8.62" height="25.86"/><rect class="cls-10" x="391.69" y="295.55" width="8.62" height="25.86"/></g><rect class="cls-5" x="245.14" y="364.55" width="155.17" height="34.48"/><rect class="cls-6" x="245.14" y="364.55" width="77.59" height="34.48"/><rect class="cls-7" x="245.14" y="390.41" width="155.17" height="8.62"/><rect class="cls-8" x="253.76" y="364.55" width="8.62" height="25.86"/><g class="cls-9"><rect class="cls-10" x="339.97" y="364.55" width="8.62" height="25.86"/><rect class="cls-10" x="357.21" y="364.55" width="8.62" height="25.86"/><rect class="cls-10" x="374.45" y="364.55" width="8.62" height="25.86"/><rect class="cls-10" x="391.69" y="364.55" width="8.62" height="25.86"/></g><rect class="cls-5" x="257.64" y="330.05" width="155.17" height="34.48"/><rect class="cls-6" x="257.64" y="330.05" width="77.59" height="34.48"/><rect class="cls-7" x="257.64" y="355.91" width="155.17" height="8.62"/><rect class="cls-8" x="266.26" y="330.05" width="8.62" height="25.86"/><g class="cls-9"><rect class="cls-10" x="352.47" y="330.05" width="8.62" height="25.86"/><rect class="cls-10" x="369.71" y="330.05" width="8.62" height="25.86"/><rect class="cls-10" x="386.95" y="330.05" width="8.62" height="25.86"/><rect class="cls-10" x="404.19" y="330.05" width="8.62" height="25.86"/></g><rect class="cls-5" x="233.14" y="225.55" width="155.17" height="34.48"/><rect class="cls-6" x="233.14" y="225.55" width="77.59" height="34.48"/><rect class="cls-7" x="233.14" y="251.41" width="155.17" height="8.62"/><rect class="cls-8" x="241.76" y="225.55" width="8.62" height="25.86"/><g class="cls-9"><rect class="cls-10" x="327.97" y="225.55" width="8.62" height="25.86"/><rect class="cls-10" x="345.21" y="225.55" width="8.62" height="25.86"/><rect class="cls-10" x="362.45" y="225.55" width="8.62" height="25.86"/><rect class="cls-10" x="379.69" y="225.55" width="8.62" height="25.86"/></g><rect class="cls-5" x="256.14" y="260.55" width="155.17" height="34.48"/><rect class="cls-6" x="256.14" y="260.55" width="77.59" height="34.48"/><rect class="cls-7" x="256.14" y="286.41" width="155.17" height="8.62"/><rect class="cls-8" x="264.76" y="260.55" width="8.62" height="25.86"/><g class="cls-9"><rect class="cls-10" x="350.97" y="260.55" width="8.62" height="25.86"/><rect class="cls-10" x="368.21" y="260.55" width="8.62" height="25.86"/><rect class="cls-10" x="385.45" y="260.55" width="8.62" height="25.86"/><rect class="cls-10" x="402.69" y="260.55" width="8.62" height="25.86"/></g></g></g></svg>