<svg xmlns="http://www.w3.org/2000/svg" viewBox="0 0 1653.31 283.52"><defs><style>.cls-1{fill:#a3b9c1;}.cls-2{fill:#f4ca7e;}.cls-3{fill:#45cedf;}</style></defs><title>Asset 40</title><g id="Layer_2" data-name="Layer 2"><g id="Layer_1-2" data-name="Layer 1"><path class="cls-1" d="M607.93,272.94h-7.07L565.5,189.17h6.31a2.76,2.76,0,0,1,1.89.63,4.08,4.08,0,0,1,1.05,1.39l27.61,66.09a22.41,22.41,0,0,1,1.26,3.7l.84,3.54q.42-1.77.88-3.58a27.92,27.92,0,0,1,1.22-3.66l27.78-66.09a3.78,3.78,0,0,1,1.14-1.47,2.76,2.76,0,0,1,1.73-.55h6.06Z"/><path class="cls-1" d="M695.06,199.61a1.94,1.94,0,0,1-1.85,1.18,4.55,4.55,0,0,1-2.4-1.05,38.69,38.69,0,0,0-3.87-2.36A31.44,31.44,0,0,0,681,195,30,30,0,0,0,672.5,194a25.12,25.12,0,0,0-8.29,1.3,20.61,20.61,0,0,0-6.4,3.48,15.84,15.84,0,0,0-4.12,5.08,13.25,13.25,0,0,0-1.47,6.09,10.36,10.36,0,0,0,2,6.55,17.39,17.39,0,0,0,5.3,4.45,40.56,40.56,0,0,0,7.45,3.19q4.17,1.34,8.54,2.69t8.54,3a32.18,32.18,0,0,1,7.45,4.08,19.31,19.31,0,0,1,5.3,6,17,17,0,0,1,2,8.59,26.08,26.08,0,0,1-2,10.19,23.16,23.16,0,0,1-5.73,8.17,27.43,27.43,0,0,1-9.22,5.47,35.82,35.82,0,0,1-12.46,2,37.59,37.59,0,0,1-15.24-2.82,42.77,42.77,0,0,1-11.45-7.37l1.94-2.86a3.26,3.26,0,0,1,.93-1,2.58,2.58,0,0,1,1.43-.34,4.63,4.63,0,0,1,2.69,1.35,33.48,33.48,0,0,0,4.17,2.9,34.32,34.32,0,0,0,6.4,2.9,28.79,28.79,0,0,0,9.47,1.35,27.21,27.21,0,0,0,9.34-1.47,19.43,19.43,0,0,0,6.74-4A16.68,16.68,0,0,0,690,257a18.9,18.9,0,0,0,1.39-7.2,11.57,11.57,0,0,0-2-7,17.33,17.33,0,0,0-5.3-4.71,37.14,37.14,0,0,0-7.45-3.28q-4.17-1.35-8.59-2.69t-8.59-2.95a31,31,0,0,1-7.45-4,19.47,19.47,0,0,1-5.3-5.94,17.17,17.17,0,0,1-2-8.71,20,20,0,0,1,1.94-8.59,21.82,21.82,0,0,1,5.51-7.24,27.13,27.13,0,0,1,8.71-5,33.84,33.84,0,0,1,11.53-1.85,38.69,38.69,0,0,1,13.6,2.22,33.22,33.22,0,0,1,10.9,6.79Z"/><path class="cls-1" d="M706.42,266.45a7.89,7.89,0,0,1,.59-3,7.51,7.51,0,0,1,1.64-2.48,8.23,8.23,0,0,1,2.44-1.68,7.33,7.33,0,0,1,3.07-.63,7.44,7.44,0,0,1,3,.63,8,8,0,0,1,4.17,4.17,7.43,7.43,0,0,1,.63,3,7.34,7.34,0,0,1-.63,3.07,8.24,8.24,0,0,1-1.68,2.44,7.54,7.54,0,0,1-2.48,1.64,7.91,7.91,0,0,1-3,.59,7.62,7.62,0,0,1-7.75-7.75Z"/><path class="cls-2" d="M130.5,123.76a35.07,35.07,0,0,1-3.42,16.06,35.53,35.53,0,0,1-9.15,11.46,49.27,49.27,0,0,1-13.2,7.69,93.39,93.39,0,0,1-15.55,4.66,120.15,120.15,0,0,1-16.23,2.25q-8.14.56-15.22.56t-14.43-.51q-7.47-.51-14.88-1.74a128.41,128.41,0,0,1-14.6-3.31A83,83,0,0,1,.22,155.65L0,11A136.47,136.47,0,0,1,13.36,6.35Q20.44,4.27,27.8,2.86T42.45.73Q49.75,0,56.6,0A130.75,130.75,0,0,1,72.72,1,88.91,88.91,0,0,1,88.38,4.38a69.6,69.6,0,0,1,14,6.12,45.73,45.73,0,0,1,11.4,9.27,40.73,40.73,0,0,1,7.64,12.8,47.63,47.63,0,0,1,2.75,16.85,37.77,37.77,0,0,1-1.8,11.79,32.73,32.73,0,0,1-5.17,9.88,32,32,0,0,1-8.2,7.47,35.39,35.39,0,0,1-10.89,4.55,48.66,48.66,0,0,1,13.31,5.62,39.43,39.43,0,0,1,10.22,9,40,40,0,0,1,6.51,11.9A42.86,42.86,0,0,1,130.5,123.76Zm-73-27.4a28.9,28.9,0,0,0-6.29.67l-.45,25.61q1.68.34,3.31.62a18.76,18.76,0,0,0,3.2.28,29.33,29.33,0,0,0,5.17-.51,15.15,15.15,0,0,0,5.28-2,11.78,11.78,0,0,0,5.73-10.95,13.33,13.33,0,0,0-1.63-7,12.71,12.71,0,0,0-4-4.21,14.07,14.07,0,0,0-5.17-2A29.33,29.33,0,0,0,57.5,96.36ZM73.45,59.75a10.82,10.82,0,0,0-1.35-5.56,12.48,12.48,0,0,0-3.31-3.76,13.49,13.49,0,0,0-4.27-2.13,14.81,14.81,0,0,0-4.1-.67,14.45,14.45,0,0,0-4.38.67,39.58,39.58,0,0,0-4.16,1.57l-.67,24.93a56.36,56.36,0,0,0,6.4-.45,26.38,26.38,0,0,0,7.36-2,15.79,15.79,0,0,0,6-4.49Q73.45,64.91,73.45,59.75Z"/><path class="cls-2" d="M197.09,5.62l-12.35,153L137.35,161V8.76Z"/><path class="cls-2" d="M323.55,3.14l-1.12,47.62L289,52.11l-8.54,106.46L233,161l.22-106.46-33.47,1.8,1.35-53Z"/><path class="cls-2" d="M437.54,5.84l-6.29,47.39A40,40,0,0,0,424.74,52a63.27,63.27,0,0,0-6.51-.34,56.38,56.38,0,0,0-15.83,2.19,39.41,39.41,0,0,0-13.31,6.68,32.85,32.85,0,0,0-9.21,11.23,34.5,34.5,0,0,0-3.43,15.83,25.24,25.24,0,0,0,1.85,10.11,18.77,18.77,0,0,0,5.22,7.08,21.88,21.88,0,0,0,8,4.16,35.88,35.88,0,0,0,10.11,1.35,44,44,0,0,0,8.65-.9,73.71,73.71,0,0,0,8.87-2.36,83.71,83.71,0,0,0,8.54-3.37q4.15-1.91,7.64-3.93l-4.49,52.78a70.69,70.69,0,0,1-9.49,4q-5.11,1.74-10.5,3a98.82,98.82,0,0,1-10.78,2,83.38,83.38,0,0,1-10.33.67,66.54,66.54,0,0,1-62.38-41.5,69.46,69.46,0,0,1-5.22-27,117,117,0,0,1,5.5-36.22,88.61,88.61,0,0,1,16.17-29.82A75.92,75.92,0,0,1,370.21,7.41Q386,0,406.54,0a105.94,105.94,0,0,1,15.89,1.24A52.62,52.62,0,0,1,437.54,5.84Z"/><path class="cls-2" d="M582.08,84.45a81.42,81.42,0,0,1-2.36,19.71,77.18,77.18,0,0,1-6.79,17.8,73.78,73.78,0,0,1-10.78,15.22A68.65,68.65,0,0,1,547.88,149a69.23,69.23,0,0,1-37,10.44,70.54,70.54,0,0,1-19.26-2.58,73.1,73.1,0,0,1-17.13-7.24,68.8,68.8,0,0,1-14.43-11.23,69.78,69.78,0,0,1-11-14.6A75.16,75.16,0,0,1,442,106.58a72.24,72.24,0,0,1-2.53-19.2,78.49,78.49,0,0,1,9.15-36.84,76.26,76.26,0,0,1,10.72-15.27,70.66,70.66,0,0,1,14.09-12,67.61,67.61,0,0,1,16.9-7.86,64.79,64.79,0,0,1,19.2-2.81,83.71,83.71,0,0,1,29.71,5.05,62.93,62.93,0,0,1,37.62,37.12A80.71,80.71,0,0,1,582.08,84.45Zm-49.86,2.92a31.66,31.66,0,0,0-1.4-9.38,25.77,25.77,0,0,0-4.1-8.09A21,21,0,0,0,520,64.18,18.71,18.71,0,0,0,510.87,62a22.35,22.35,0,0,0-9.43,1.91,21.59,21.59,0,0,0-7.13,5.22,22.89,22.89,0,0,0-4.55,7.75,27.85,27.85,0,0,0-1.57,9.38,34.2,34.2,0,0,0,1.35,9.43,28,28,0,0,0,4,8.54,21.47,21.47,0,0,0,6.68,6.18,17.85,17.85,0,0,0,9.26,2.36,21.15,21.15,0,0,0,9.49-2.08,21.41,21.41,0,0,0,7.13-5.62,25.72,25.72,0,0,0,4.49-8.14A29.34,29.34,0,0,0,532.21,87.37Z"/><path class="cls-2" d="M650.58,5.62l-12.35,153L590.83,161V8.76Z"/><path class="cls-2" d="M811.06,2.7,803,155l-58.85,5.39L712.69,78.84l-4.94,83.11H657.21l4-159.25L717.4,0l38.86,80.86,1.8-76.37Z"/><path class="cls-3" d="M863,219.51l-4.72,49.86-94.56,7.41q.67-39.19,1.52-77.94t2.08-77.94h58.4Q823.16,145.5,820.8,170t-3.37,49.47q5.28.23,10.44.22h10.44q6.29,0,12.35-.11T863,219.51Z"/><path class="cls-3" d="M928.95,125.4l-12.35,153-47.39,2.47V128.54Z"/><path class="cls-3" d="M1055.4,122.93l-1.12,47.62-33.47,1.35-8.54,106.46-47.39,2.47.22-106.46-33.47,1.8,1.35-53Z"/><path class="cls-3" d="M1167.93,121.58q-.67,10.56-1.24,20.89t-1.46,20.89l-47.62,2.47L1116.5,180H1150l-2.47,34.81-33.69,1.12-1.12,16.4h47.62q-.67,12.36-1.4,24.54t-1.29,24.43l-96.81,2.25,3.59-161.94Z"/><path class="cls-3" d="M1279.79,125.62,1273.5,173a40,40,0,0,0-6.51-1.24,63.29,63.29,0,0,0-6.51-.34,56.37,56.37,0,0,0-15.83,2.19,39.41,39.41,0,0,0-13.31,6.68,32.85,32.85,0,0,0-9.21,11.23,34.5,34.5,0,0,0-3.43,15.83,25.22,25.22,0,0,0,1.85,10.11,18.76,18.76,0,0,0,5.22,7.08,21.87,21.87,0,0,0,8,4.16,35.88,35.88,0,0,0,10.11,1.35,44,44,0,0,0,8.65-.9,73.67,73.67,0,0,0,8.87-2.36,83.71,83.71,0,0,0,8.54-3.37q4.15-1.91,7.64-3.93l-4.49,52.78a70.62,70.62,0,0,1-9.49,4q-5.11,1.74-10.5,3a98.76,98.76,0,0,1-10.78,2,83.38,83.38,0,0,1-10.33.67,66.54,66.54,0,0,1-62.38-41.5,69.44,69.44,0,0,1-5.22-27,117,117,0,0,1,5.5-36.22A88.58,88.58,0,0,1,1186,147.41a75.92,75.92,0,0,1,26.45-20.21q15.78-7.41,36.33-7.41a106,106,0,0,1,15.89,1.24A52.62,52.62,0,0,1,1279.79,125.62Z"/><path class="cls-3" d="M1424.33,204.24a81.41,81.41,0,0,1-2.36,19.71,77.13,77.13,0,0,1-6.79,17.8A73.71,73.71,0,0,1,1404.39,257a68.64,68.64,0,0,1-14.26,11.85,69.23,69.23,0,0,1-37,10.44,70.55,70.55,0,0,1-19.26-2.58,73.09,73.09,0,0,1-17.13-7.24,68.77,68.77,0,0,1-14.43-11.23,69.74,69.74,0,0,1-11-14.6,75.16,75.16,0,0,1-7.08-17.24,72.28,72.28,0,0,1-2.53-19.2,78.49,78.49,0,0,1,9.15-36.84A76.23,76.23,0,0,1,1301.58,155a70.69,70.69,0,0,1,14.09-12,67.65,67.65,0,0,1,16.9-7.86,64.79,64.79,0,0,1,19.2-2.81,83.7,83.7,0,0,1,29.7,5.05,62.93,62.93,0,0,1,37.62,37.12A80.73,80.73,0,0,1,1424.33,204.24Zm-49.86,2.92a31.66,31.66,0,0,0-1.4-9.38,25.77,25.77,0,0,0-4.1-8.09,21,21,0,0,0-6.68-5.73,18.71,18.71,0,0,0-9.15-2.19,22.35,22.35,0,0,0-9.43,1.91,21.61,21.61,0,0,0-7.13,5.22,22.91,22.91,0,0,0-4.55,7.75,27.83,27.83,0,0,0-1.57,9.38,34.2,34.2,0,0,0,1.35,9.43,28,28,0,0,0,4,8.54,21.47,21.47,0,0,0,6.68,6.18,17.84,17.84,0,0,0,9.26,2.36,21.14,21.14,0,0,0,9.49-2.08,21.41,21.41,0,0,0,7.13-5.62,25.73,25.73,0,0,0,4.49-8.14A29.34,29.34,0,0,0,1374.46,207.16Z"/><path class="cls-3" d="M1492.83,125.4l-12.35,153-47.39,2.47V128.54Z"/><path class="cls-3" d="M1653.31,122.48l-8.09,152.29-58.85,5.39-31.45-81.53L1550,281.73h-50.54l4-159.25,56.15-2.7,38.86,80.86,1.8-76.37Z"/></g></g></svg>