<svg xmlns="http://www.w3.org/2000/svg" viewBox="0 0 346 369"><defs><style>.cls-1{opacity:0.4;}.cls-2{fill:#f1f7f7;}.cls-3{fill:#fff;}.cls-4{fill:#38464a;}.cls-5{fill:#bdd0da;}.cls-6{fill:#1ab9ad;}</style></defs><title>uebersetzung</title><g id="Layer_2" data-name="Layer 2"><g id="Layer_1-2" data-name="Layer 1"><g class="cls-1"><circle class="cls-2" cx="183" cy="163" r="163"/></g><g class="cls-1"><circle class="cls-2" cx="163" cy="206" r="163"/></g><rect class="cls-3" x="70.75" y="33.5" width="206" height="282" rx="12" ry="12"/><path class="cls-4" d="M264.75,313.5h-182A13.52,13.52,0,0,1,69.25,300V108.13h3V300a10.51,10.51,0,0,0,10.5,10.5h182a10.51,10.51,0,0,0,10.5-10.5V42a10.51,10.51,0,0,0-10.5-10.5h-182A10.51,10.51,0,0,0,72.25,42V88.13h-3V42a13.52,13.52,0,0,1,13.5-13.5h182A13.52,13.52,0,0,1,278.25,42V300A13.52,13.52,0,0,1,264.75,313.5Z"/><path class="cls-4" d="M72.25,104V96.5a1.5,1.5,0,0,0-3,0V104a1.5,1.5,0,0,0,3,0Z"/><path class="cls-5" d="M49.5,63.5a6.26,6.26,0,0,1-6.25-6.25h3A3.25,3.25,0,1,0,49.5,54V51a6.25,6.25,0,0,1,0,12.5Z"/><path class="cls-5" d="M291.61,109A5.68,5.68,0,0,1,290,97.84l.86,2.87a2.68,2.68,0,1,0,3.34,1.8l2.87-.86a5.68,5.68,0,0,1-3.8,7.08A5.71,5.71,0,0,1,291.61,109Z"/><path class="cls-5" d="M41.71,211a5.2,5.2,0,0,1-1.5-10.19l.86,2.87a2.2,2.2,0,1,0,2.74,1.47l2.87-.86a5.2,5.2,0,0,1-5,6.7Z"/><path class="cls-5" d="M212.43,336.72a5.54,5.54,0,0,1-1.59-10.84l.86,2.87a2.54,2.54,0,0,0-.47,4.67,2.52,2.52,0,0,0,1.93.19,2.54,2.54,0,0,0,1.7-3.16l2.87-.86a5.55,5.55,0,0,1-5.31,7.14Z"/><path class="cls-5" d="M98.31,337.56l19.5-19.5a1.5,1.5,0,0,0-2.12-2.12l-19.5,19.5a1.5,1.5,0,0,0,2.12,2.12Z"/><path class="cls-5" d="M30.25,128v19.5a1.5,1.5,0,0,0,3,0V128a1.5,1.5,0,0,0-3,0Z"/><path class="cls-5" d="M293.89,196.15l14.47-14c1.39-1.35-.73-3.47-2.12-2.12l-14.47,14c-1.39,1.35.73,3.47,2.12,2.12Z"/><path class="cls-5" d="M184.37,20.12l14.5-14.5a1.5,1.5,0,0,0-2.12-2.12L182.25,18a1.5,1.5,0,0,0,2.12,2.12Z"/><path class="cls-5" d="M98.69,3.06l15,15a1.5,1.5,0,0,0,2.12-2.12l-15-15a1.5,1.5,0,0,0-2.12,2.12Z"/><path class="cls-6" d="M134.53,95.52c-3-.19-7.27-.38-12-.38a122.47,122.47,0,0,0-13.3.62c-1.15.12-1.58.54-2.46.54s-1.92-.35-4.23-1.65c-.54-.27-.81-.54-.81-.69s.15-.19.46-.19a3.6,3.6,0,0,1,.85.08,43,43,0,0,0,7.73.54c2.19,0,4.61-.08,7.23-.19,0-.73,0-2.27-.08-4.92-1.54.08-3,.12-4.11.12-2.15,0-4.08,0-4.08-2.42l-.12-6.61c-.12-.58-1.38-1.19-2.58-1.54-.58-.12-1-.35-1-.58s.31-.35,1.15-.42a32.07,32.07,0,0,1,5.19.65c2.15,0,6.61-.12,10-.27,2-.35,1.31-1.08,4.38-1.08,2,0,2.46.65,2.46,1.08a1.06,1.06,0,0,1-1.15.88c-6.23.15-13.07.27-15.42.35-.38.31-.58,0-.58.65v3.31c1.54,0,9.07-.15,10.77-.19,1.5-.31.5-.92,4-1,1.27,0,1.77.46,1.77.92s-.5.92-1.31,1c-2.69.12-11.23.23-15.19.31v2.69c.08,1,.31,1.19,1.54,1.27,1.08,0,2.23,0,3.46,0,1.73,0,3.54,0,5.23-.15,2.38-.23,1-1.08,4.69-1.08,1.19,0,2.38.19,2.38,1,0,.54-.62,1-1.54,1-2.65,0-5.19,0-7.5,0,0,1.42,0,3.15,0,4.84,1.88,0,5-.12,8.34-.27,1.5-.08,1.27-.73,3.11-.73,1.08,0,4.46.23,4.46,1.58,0,.46-.54.88-1.46.88ZM118.84,97.9a1.49,1.49,0,0,0-.46-1,.74.74,0,0,1-.38-.5c0-.15.15-.27.5-.27.77,0,2.5.77,2.5,1.31,0,.35-.42.65-.54,1.12,4.23.77,6.23,3.46,6.23,6.11,0,3.19-2.73,6.27-7.54,6.27s-7.38-3-7.38-6.27c0-2.73,2.11-5.54,6.54-6.15A.59.59,0,0,0,118.84,97.9Zm-5,6.61c0,2.31,1.81,4.65,5.38,4.65s5.38-2.35,5.38-4.65-1.81-4.73-5.38-4.73S113.88,102.13,113.88,104.51Z"/><path class="cls-6" d="M140.88,96.71a33.18,33.18,0,0,0,12-13.07c0-.35,0-.38,0-.38,0-.65-1.73-1.85-2.62-2.35-.23-.12-.5-.35-.5-.54s.19-.31.81-.31c1.5,0,5.61,2,5.61,2.77,0,.31-.23.58-.58,1.08-.73,1.15-1.65,2.54-2,3,.65.77,1.81,1.85,3,3,1.77,1.54,2.23.5,4.69,3.92a3.67,3.67,0,0,1,.81,2c0,.5-.27.77-.65.77a2.81,2.81,0,0,1-1.85-1.19C158,93.44,155,90,153,87.75c-3.61,5-11.15,9.81-12.54,9.81q-.23,0-.23-.12C140.19,97.28,140.42,97,140.88,96.71Zm11.84,5.77c-.08-.77-1-1.12-2.92-1.73-.42-.08-.69-.23-.69-.42s.31-.38,1.19-.54a31.16,31.16,0,0,1,4.15.27c.65.15.81.35.81.69s-.12.58-.12,1c0,1.69,0,3.77,0,5.19,0,.85.5,1.19,1.85,1.27l8-.08c2.88-.19,1.5-1.08,5-1.08,1.23,0,2.85.12,2.85,1.31,0,.42-.35.85-1,.85h-15c-2.54,0-4-.65-4.11-2.62Zm14.38-23c-.08-.5-1.61-1.58-3.23-2.23-.65-.23-1-.46-1-.65s.46-.35,1.38-.38a15.77,15.77,0,0,1,4,.92c1.11.35,1.38.62,1.38,1s-.15.62-.15,1.11l0,16.15a21,21,0,0,1-.62,5.38c-.35.88-.77,1.35-1.12,1.35s-.62-.54-.62-1.77Z"/><path class="cls-6" d="M203.95,79.21c0-.42-1-1.12-3.31-2.12-.58-.19-.88-.42-.88-.58s.46-.38,1.38-.42c.15,0,5.42.65,5.42,1.92,0,.27-.15.58-.15,1l0,12.07c.54,0,1.15,0,1.73-.08,1.77-.35,1-1.08,3.92-1.08.77,0,2.19,0,2.19,1a1,1,0,0,1-1.12,1l-6.77.15c0,7-.27,8.69-.65,9.77-.35.73-.77,1.31-1.12,1.31s-.58-.46-.62-1.73V93.82a110.64,110.64,0,0,1-17.53,4c-.88.23-1,.73-1.69.73-.92,0-5.54-2-5.54-2.85,0-.12.12-.15.35-.15a4,4,0,0,1,.81.12,31.37,31.37,0,0,0,4.58.35,50.63,50.63,0,0,0,9.08-1,61.93,61.93,0,0,0,1.5-7.88,3.71,3.71,0,0,0-1.77-2c-.46-.23-.65-.42-.65-.58s.31-.31.92-.31a12.56,12.56,0,0,1,3.73,1.38c.54.27.73.54.73.81a3.78,3.78,0,0,1-.54,1.27c-1,3.08-2.19,6-2.69,7.19,1.61-.31,5.46-1,8.73-1.92ZM194.45,82c2.38-.27.73-1.12,4.38-1.12.65,0,2.42,0,2.42,1,0,.54-.69,1-2.11,1-4.61,0-8.65.23-12.27.5-1.08.19-1.31.58-1.81.58-.65,0-3.69-1.38-3.69-2.08,0-.12.12-.15.35-.15a2.64,2.64,0,0,1,.69.08,32.64,32.64,0,0,0,5.61.42A51.64,51.64,0,0,0,194.45,82Zm-4.73,10.73c-.46,1.35-1,1.88-1.38,1.88s-.65-.54-.73-1.35a30.31,30.31,0,0,0-2.31-7.19,1.77,1.77,0,0,1-.27-.81c0-.12,0-.19.15-.19.69,0,4.58,4.73,4.58,6.77Zm1.23,9.27c0-.73-.92-1.08-2.88-1.65-.42-.12-.73-.27-.73-.46s.35-.38,1.23-.54a29.28,29.28,0,0,1,4.08.27c.69.15.85.38.85.73s-.08.58-.12,1c0,1.69,0,4,0,5.31,0,.88.54,1.23,1.88,1.31l7-.08c2.88-.23,1.5-1.11,4.92-1.11,1.27,0,2.88.15,2.88,1.31,0,.46-.38.85-1,.85H195.14c-2.58,0-4-.65-4.15-2.58Z"/><path class="cls-6" d="M221.71,87c-.08-.69-.5-1.08-2.19-1.65-.46-.12-.81-.27-.81-.46s.31-.35,1.08-.54a15.53,15.53,0,0,1,4.34.77c3-.12,4-.12,7-.23a6.87,6.87,0,0,1,2.58-.31c1.23,0,1.62.19,1.62.46s-.77.92-.88,1.38c-.54,2.77-1.31,7.46-1.77,10.11,1.12.23,1.73.62,1.73.92,0,.5-.88.5-2.81.5-2.19,0-5.58.15-7.34.23-.15,1.58-.81,2.27-1.19,2.27s-.5-1-.65-3.46Zm3.08-.88c-.46.19-.65,0-.65.77l.23,10.27c1.12-.08,3.11-.08,4.85-.12,1.08-.15,1.58-.27,2.27-.38.15-2.85.31-7.5.35-10.8Zm13.57-5c-.08-.77-1.15-1.35-2.81-2.15-.5-.23-.85-.46-.85-.62s.35-.35,1.19-.42c4.19.73,4.81,1.23,4.81,1.85,0,.23-.12.5-.12.81V93.67l4.88-.12V79.33c-.08-.77-1.38-1.69-3.08-2.58-.38-.19-.81-.46-.81-.65s.35-.35,1.35-.35c4.31,1.08,5,1.58,5,2.19,0,.27-.12.58-.12,1l-.15,29c-.23,2.42-1,3.69-1.46,3.69s-.69-.65-.69-2v-15l-4.88.12-.15,11.3c-.19,1.88-.81,3-1.35,3-.38,0-.73-.65-.73-2.19Z"/><path class="cls-6" d="M115.15,146.12c0-.58-1-1.12-2.38-1.46-.46-.12-.81-.31-.81-.5s1-.42,1.54-.42A21.52,21.52,0,0,1,116,144c1.23.19,1.46.42,1.46.81,0,.23-.08.5-.08.85V148l11.23-.15v-3c0-.46-.69-1-2-1.38-.46-.15-.81-.35-.81-.54s1.15-.35,1.38-.35a8.33,8.33,0,0,1,1.85.23,4.84,4.84,0,0,1-.38-2.46v-7.57c-2,.08-3.23.27-4.19.31s-1.23.46-1.88.46a5.7,5.7,0,0,1-2.15-.65.13.13,0,0,0-.08,0c0,5.15-4.46,6.84-8.15,6.84-5.08,0-7.84-3.27-7.84-6.65,0-2.92,2-5.84,6.34-6.54l.27-.08c.69,0,1-.38,1-.85a1.18,1.18,0,0,0-.15-.58c-.27-.23-.46-.46-.46-.65s.12-.23.46-.23c1,0,2.31.73,2.31,1.27s-.5.77-.65,1.11c3.85.42,6.15,2.61,6.65,5.35a12.81,12.81,0,0,0,1.81.08c2,0,4.85-.12,6.69-.31v-6.42c-.12-.85-2-1.81-3.38-2.38-.54-.19-1-.46-1-.65s.38-.38,1.31-.46c.46,0,5.54.88,5.54,1.92,0,.23-.12.5-.12,1l0,12.46c0,5-1.35,5.81-1.54,5.84a.29.29,0,0,0,.19.08c1,.23,1.27.42,1.27.73s-.12.5-.12.92V152a14.92,14.92,0,0,1-.46,4.08c-.23.69-.58,1.12-.88,1.12s-.73-.62-.85-2.23l-11.34.15c-.42,1.58-1.12,2.69-1.62,2.69-.35,0-.58-.46-.58-1.65Zm-8.38-13a5.06,5.06,0,0,0,5.46,5.11c4,0,6-2.54,6-5.11s-2-5.11-6-5.11A5.08,5.08,0,0,0,106.77,133.09Zm10.65,16V154l11.23-.12V149Z"/><path class="cls-6" d="M140.88,142.86a33.18,33.18,0,0,0,12-13.07c0-.35,0-.38,0-.38,0-.65-1.73-1.85-2.62-2.35-.23-.12-.5-.35-.5-.54s.19-.31.81-.31c1.5,0,5.61,2,5.61,2.77,0,.31-.23.58-.58,1.08-.73,1.15-1.65,2.54-2,3,.65.77,1.81,1.85,3,3,1.77,1.54,2.23.5,4.69,3.92a3.68,3.68,0,0,1,.81,2c0,.5-.27.77-.65.77a2.81,2.81,0,0,1-1.85-1.19c-1.69-1.92-4.69-5.34-6.73-7.61-3.61,5-11.15,9.81-12.54,9.81-.15,0-.23,0-.23-.12S140.42,143.16,140.88,142.86Zm11.84,5.77c-.08-.77-1-1.11-2.92-1.73-.42-.08-.69-.23-.69-.42s.31-.38,1.19-.54a31.16,31.16,0,0,1,4.15.27c.65.15.81.35.81.69s-.12.58-.12,1c0,1.69,0,3.77,0,5.19,0,.85.5,1.19,1.85,1.27l8-.08c2.88-.19,1.5-1.08,5-1.08,1.23,0,2.85.12,2.85,1.31,0,.42-.35.85-1,.85h-15c-2.54,0-4-.65-4.11-2.61Zm14.38-23c-.08-.5-1.61-1.58-3.23-2.23-.65-.23-1-.46-1-.65s.46-.35,1.38-.38a15.77,15.77,0,0,1,4,.92c1.11.35,1.38.62,1.38,1s-.15.62-.15,1.12l0,16.15a21,21,0,0,1-.62,5.38c-.35.88-.77,1.35-1.12,1.35s-.62-.54-.62-1.77Z"/><path class="cls-6" d="M193.37,139.82c-.12-.69-1.31-1.08-2.69-1.73-.27-.08-.5-.23-.5-.38s.31-.35,1.23-.38c3.92.38,4.61.69,4.61,1.27,0,.31-.19.69-.19,1.23l-.35,11c2.27,0,5.77-.19,9.65-.46,2.08-.15,2-.77,3.73-.77.85,0,4.38.23,4.38,1.54,0,.46-.58.88-1.46.88h-.15c-2.31-.23-5.08-.35-8.08-.35a145.9,145.9,0,0,0-16.57,1c-1.12.23-1.31.73-2.11.73-1.23,0-5.54-1.88-5.54-2.54,0-.08.15-.15.46-.15a3.6,3.6,0,0,1,.85.08c2.35.23,4.85.38,7.42.38q2.6,0,5.31-.23Zm10.84-11.42c1.15,0,.92-.31,2-.31a8.2,8.2,0,0,1,1.23.08c1,.15,1.31.35,1.31.65s-.46.77-.85,1.23c-1.35,7-2.35,12.38-3.58,14.57-.62,1.12-1.11,1.62-1.38,1.62-.08,0-.15-.08-.15-.31a2.27,2.27,0,0,1,.19-.85,78.46,78.46,0,0,0,2-15.61c-3.69.12-11.23.31-14.27.69-1.81.23-2.08.65-2.69.65s-4.54-1.54-4.54-2c0-.12.19-.19.65-.19a3.36,3.36,0,0,1,.58,0c2.35.12,4.69.19,7.31.19,3.19,0,6.77-.12,11.15-.38Z"/><path class="cls-6" d="M101.42,203.09c3.46-3.15,8.84-9.5,11-16.19.08-.54.12-.85-1.81-2.42-1-.65-.85-1-.12-1a5.71,5.71,0,0,1,1.5.31c2.88,1.31,3.69,1.92,3.69,2.58,0,.42-.46,1.23-3,5.88a17.58,17.58,0,0,0,4.11,4.23c1.58,1.27,2,.85,3.35,3.54a4.43,4.43,0,0,1,.54,1.88c0,.73-.35,1.15-.77,1.15a1.11,1.11,0,0,1-.81-.46c-1.27-1.58-4-5.34-7.11-9.38-4.11,6.15-10.38,10.92-11.11,10.92-.12,0-.15,0-.15-.12S101,203.51,101.42,203.09Zm25.61-21c0-.65-2.11-1.58-3.73-2.31-.42-.15-.69-.35-.69-.5s.46-.42,1.62-.46a32.91,32.91,0,0,1,4.42,1c.81.31,1,.58,1,1s-.12.65-.12,1.23v14h1.92c1.81-.27,1.19-1,3.65-1,.73,0,2.35,0,2.35,1.19,0,.54-.46,1-1.31,1h-6.65l0,11.15a14.72,14.72,0,0,1-1,5.69c-.31.46-.62.69-.88.69s-.58-.5-.58-1.77Z"/><path class="cls-6" d="M153.61,203.17c0-.58-1-1.12-2.38-1.46-.46-.12-.81-.31-.81-.5s1-.42,1.54-.42a21.52,21.52,0,0,1,2.54.27c1.23.19,1.46.42,1.46.81,0,.23-.08.5-.08.85v2.35l11.23-.15v-3c0-.46-.69-1-2-1.38-.46-.15-.81-.35-.81-.54s1.15-.35,1.38-.35a8.33,8.33,0,0,1,1.85.23,4.84,4.84,0,0,1-.38-2.46v-7.57c-2,.08-3.23.27-4.19.31s-1.23.46-1.88.46a5.7,5.7,0,0,1-2.15-.65.13.13,0,0,0-.08,0c0,5.15-4.46,6.84-8.15,6.84-5.08,0-7.84-3.27-7.84-6.65,0-2.92,2-5.84,6.34-6.54l.27-.08c.69,0,1-.38,1-.85a1.18,1.18,0,0,0-.15-.58c-.27-.23-.46-.46-.46-.65s.12-.23.46-.23c1,0,2.31.73,2.31,1.27s-.5.77-.65,1.11c3.85.42,6.15,2.61,6.65,5.35a12.81,12.81,0,0,0,1.81.08c2,0,4.85-.12,6.69-.31v-6.42c-.12-.85-2-1.81-3.38-2.38-.54-.19-1-.46-1-.65s.38-.38,1.31-.46c.46,0,5.54.88,5.54,1.92,0,.23-.12.5-.12,1l0,12.46c0,5-1.35,5.81-1.54,5.84a.29.29,0,0,0,.19.08c1,.23,1.27.42,1.27.73s-.12.5-.12.92v7.38a14.92,14.92,0,0,1-.46,4.08c-.23.69-.58,1.12-.88,1.12s-.73-.62-.85-2.23l-11.34.15c-.42,1.58-1.12,2.69-1.62,2.69-.35,0-.58-.46-.58-1.65Zm-8.38-13a5.06,5.06,0,0,0,5.46,5.11c4,0,6-2.54,6-5.11s-2-5.11-6-5.11A5.08,5.08,0,0,0,145.22,190.13Zm10.65,16v4.92l11.23-.12V206Z"/><path class="cls-6" d="M194.33,186.33a5.62,5.62,0,0,1,1.62-.27c2.08,0,2.42.15,2.42.5s-.65.88-1,1.42a68.8,68.8,0,0,1-5.19,7.65c.88.81,2.54,2.15,3.35,2.77,1.5,1,2,.35,3.88,3.11a4,4,0,0,1,.77,2c0,.54-.27.85-.69.85a1.72,1.72,0,0,1-1.15-.62c-1.12-1.23-3.15-3.58-6.92-7.34-4.61,5.11-11.69,9.77-12.84,9.77-.12,0-.15,0-.15-.08s.27-.46.88-.92c4.69-3.23,11.73-9.5,15.5-17.77-2,.08-7,.38-8.19.46-1,.19-1.15.65-1.73.65-.77,0-3.92-1.5-3.92-2,0-.12.15-.19.46-.19a2.75,2.75,0,0,1,.73.08,33.32,33.32,0,0,0,4.11.19C188.95,186.63,193.29,186.44,194.33,186.33Zm9.61-4.27c0-.65-2.12-1.58-3.73-2.31-.42-.15-.69-.35-.69-.5s.46-.42,1.61-.46a32.91,32.91,0,0,1,4.42,1c.81.31,1,.58,1,1s-.12.65-.12,1.23v14h1.92c1.81-.27,1.19-1,3.65-1,.73,0,2.35,0,2.35,1.19,0,.54-.46,1-1.31,1h-6.65l0,11.15a14.72,14.72,0,0,1-1,5.69c-.31.46-.62.69-.88.69s-.58-.5-.58-1.77Z"/><path class="cls-6" d="M134.91,243.7c-2.11-.19-4.65-.23-7.11-.23-7.84,0-15.61.42-19,.77-1.12.23-1.27.69-1.92.69-.92,0-5-1.85-5-2.35q0-.23.46-.23a3.39,3.39,0,0,1,.77.12,33.51,33.51,0,0,0,6.5.42c5.27,0,12.46-.38,19.3-.65,2-.08,1.54-.81,3.73-.81,2,0,3.61.23,3.61,1.27,0,.5-.5,1-1.31,1Zm-25.57-14.46c-.15-.88-1.23-1.23-2.88-1.77-.35-.08-.5-.19-.5-.31s.35-.38,1-.46a14.84,14.84,0,0,1,4.88.81c3,0,6.54,0,10.31-.19,3-.23,1.61-1,4.69-1,.81,0,2.77,0,2.77,1,0,.46-.62.88-1.77.88-4,.19-11.77.27-15.61.31-.27.23-.46,0-.46.73,0,1.58,0,4.27.08,6,.12,1.35.27,1.35,4.31,1.35,2,0,4.31-.08,7.42-.31,2.11-.31,1-1.08,4.61-1.08,1.35,0,1.88.5,1.88,1s-.58,1-1.5,1c-1.35.08-6,.12-8.11.23l-2.54.12h-4.69c-2.92,0-3.77-1-3.85-2.5Zm9.5,18a1.49,1.49,0,0,0-.46-1,.74.74,0,0,1-.38-.5c0-.15.15-.27.5-.27.77,0,2.5.77,2.5,1.31,0,.35-.42.65-.54,1.12,4.23.77,6.23,3.46,6.23,6.11,0,3.19-2.73,6.27-7.54,6.27s-7.38-3-7.38-6.27c0-2.73,2.11-5.54,6.54-6.15A.59.59,0,0,0,118.84,247.24Zm-5,6.61c0,2.31,1.81,4.65,5.38,4.65s5.38-2.35,5.38-4.65-1.81-4.73-5.38-4.73S113.88,251.47,113.88,253.85Z"/><path class="cls-6" d="M173,244.28c-2.85-.19-6.88-.31-11.38-.31a130.12,130.12,0,0,0-14,.54c-1.15.12-1.58.54-2.46.54-1.5,0-5-2-5-2.35,0-.12.15-.19.46-.19a3.6,3.6,0,0,1,.85.08,43,43,0,0,0,7.73.54c2.19,0,4.61-.08,7.23-.19,0-.73,0-2.27-.08-4.58-2.46.15-3.77.19-4.73.19-2,0-2.85-.38-2.92-1.92l-.08-2.19c-.08-.73-1.19-1-2.5-1.31-.31-.08-.58-.19-.58-.35s.35-.38,1.27-.62a27.69,27.69,0,0,1,4.58.42c1.92,0,7-.27,10.07-.42,1.15-.12,1.42-.31,2.58-.5a28,28,0,0,0,.19-3.92c-3.5.19-8.11.42-12.38.73-1.23.23-1.46.65-2,.65s-4-1.42-4-1.92c0-.12.15-.19.42-.19a2.39,2.39,0,0,1,.5,0,46.85,46.85,0,0,0,5.34.27c3.38,0,7-.23,10.31-.46,1.31-.12,1.12-.46,3-.46.73,0,2.12,0,2.12.62,0,.38-.69.92-1,1.35-.46,1.5-.81,2.31-1.08,3.27,1,0,1.58.46,1.58.81s-.31.5-1,.5c-5.15.23-10.19.42-14.19.62-.58.19-.81-.12-.81.58s0,1.12,0,2.69c0,.58.23.77,1.15.81,2.65,0,6.34-.08,9.61-.38,2.65-.23,1.15-1.15,4.61-1.15,1.38,0,1.92.54,1.92,1s-.46.88-1.27.92c-6.69.31-7.46.35-8.31.35,0,1.54,0,2.77,0,4.46,1.88,0,5-.12,8.34-.27,1.5-.08,1.27-.73,3.08-.73.92,0,4.5.19,4.5,1.58,0,.46-.54.88-1.46.88Zm-8.27,4.92c-2.35.12-8.5.35-12.73.54-1.42.08-1.65.62-2.46.62-1.08,0-4-1.5-4-1.85,0-.12.15-.19.54-.19a3.13,3.13,0,0,1,.54,0,38.84,38.84,0,0,0,5.69.31c3.58,0,7.69-.19,10.84-.35,1,0,.85-.42,2.08-.42h.5c1.46.08,1.85.31,1.85.62s-.38.73-.38,1.23c0,5,0,7.23-.62,9.61-.31,1.08-.85,1.73-1.27,1.73s-.62-.42-.62-1.38Z"/><path class="cls-6" d="M183.57,233.71c0-.46-1.35-1.12-2.5-1.5-.62-.23-.88-.42-.88-.62s.46-.38,1.27-.46c.54,0,4.54.19,4.54,1.31,0,.27-.12.58-.12.92v2.73l9.77-.23v-3.61c-.08-.58-.88-1.19-2.46-1.85-.62-.19-1-.42-1-.62s.35-.38,1.12-.46a15.06,15.06,0,0,1,3.88.77c.65.23.77.5.77.81s-.08.46-.08.73v5a21.93,21.93,0,0,0,2.31.08c1.81,0,3.73-.12,5.31-.27v-7.65c0-.81-1.92-1.81-3.31-2.38-.58-.19-1-.42-1-.65s.35-.38,1.27-.5a27.55,27.55,0,0,1,4.65,1.12c.73.35.92.58.92.85a8.19,8.19,0,0,0-.12.92l0,14.84c-.12,5.11-.23,7.31-1,8.5-.23.38-.5.65-.73.65-.38,0-.69-.69-.69-2.65V237.59c-2,.12-3.15.19-4.15.31-.77.19-1,.5-1.54.5a4.7,4.7,0,0,1-1.92-.62v1.65l-.12,3.73c0,2.19-.81,3.69-1.42,3.69-.35,0-.65-.5-.69-1.65l-9.92.15c-.27,1.42-.92,2.42-1.42,2.42-.35,0-.62-.46-.65-1.54Zm2.31,3.5v7l9.77-.19v-7Zm5.31,14.61c-.08-.77-1-1.12-2.92-1.73-.42-.08-.69-.23-.69-.42s.31-.38,1.19-.54a31.14,31.14,0,0,1,4.15.27c.65.15.81.35.81.69s-.12.58-.12,1c0,1.69,0,3.77,0,5.19,0,.85.5,1.19,1.85,1.27l8-.08c2.88-.19,1.5-1.08,5-1.08,1.23,0,2.85.12,2.85,1.31,0,.42-.35.85-1,.85h-15c-2.54,0-4-.65-4.11-2.62Z"/><path class="cls-6" d="M233.33,249.36c-4.35-.58-6.58-3.31-6.58-6,0-2.5,1.88-5,5.84-5.65.81-.12,1.42-.58,1.42-1.12a1.21,1.21,0,0,0-.08-.31,1,1,0,0,1-.35-.54c0-.15.12-.23.31-.23.69,0,1.81.73,1.81,1.27,0,.35-.38.58-.42.81,4.73.54,6.84,3.15,6.84,5.77,0,4-4.35,6-6.42,6v5.77c2.77,0,4.85-.19,8-.35,2.54-.12,2.08-.77,3.5-.77.23,0,4.35.19,4.35,1.54,0,.46-.54.85-1.54.85h-.31c-2.11-.19-4.65-.27-7.42-.27-5.81,0-12.5.35-18,.54-1.23.08-1.54.54-2.38.54-1.19,0-4.81-1.54-4.81-2.19,0-.15.19-.27.58-.27a2.75,2.75,0,0,1,.54,0,62.48,62.48,0,0,0,8.5.46c2,0,4.11,0,6.61-.08Zm5.81-15.77c3.27-.12,1.81-1,5-1,.85,0,3.27,0,3.27,1.12,0,.5-.62.92-1.58.92-.38,0-.92,0-1.62,0-4,0-12.34.27-16.27.5-1.23.23-1.5.65-2.23.65-1,0-4.65-1.58-4.65-2.19,0-.12.15-.19.42-.19a6.74,6.74,0,0,1,.73.08,45.3,45.3,0,0,0,7.15.46C232.21,233.9,237.63,233.71,239.13,233.59Zm-6.88-3.5c-.85,0-3.92-2-3.92-2.54,0-.12.12-.19.42-.19a3,3,0,0,1,.77.08,42.74,42.74,0,0,0,8.31.69c.92,0,1.54.46,1.54.92s-.73,1-2.46,1Zm-3.15,13.27c0,2.23,1.81,4.46,5.46,4.46s5.34-2.23,5.34-4.46-1.77-4.58-5.34-4.58S229.1,241,229.1,243.36Z"/></g></g></svg>